<svg width="155" height="230" viewBox="0 0 155 230" fill="none" xmlns="http://www.w3.org/2000/svg">
<g clip-path="url(#clip0_49_878)">
<rect width="155" height="230" fill="white"/>
<rect width="155" height="230" fill="#D9D9D9"/>
<g filter="url(#filter0_dd_49_878)">
<g clip-path="url(#clip1_49_878)">
<rect width="155" height="230" rx="5.34653" fill="white"/>
<rect width="133.614" height="220.99" transform="translate(10.6931 10.6931)" fill="white"/>
<path d="M63.3104 20.9208V15.2701H64.493V20.9208H63.3104ZM65.7501 20.9208V16.6093H66.8935V17.2751H66.964C67.1598 16.8091 67.5866 16.5154 68.2014 16.5154C69.1608 16.5154 69.6777 17.1028 69.6777 18.1326V20.9208H68.5343V18.3911C68.5343 17.7841 68.2837 17.463 67.7433 17.463C67.2146 17.463 66.8935 17.8429 66.8935 18.4263V20.9208H65.7501ZM72.5011 21.0108C71.3302 21.0108 70.6645 20.4861 70.5823 19.746L70.5784 19.7303H71.7023L71.7101 19.746C71.8002 20.0123 72.0625 20.2042 72.5129 20.2042C72.9514 20.2042 73.249 20.0162 73.249 19.7303V19.7225C73.249 19.4915 73.0767 19.3466 72.6382 19.2487L71.9176 19.096C71.0953 18.9197 70.688 18.5164 70.688 17.8703V17.8664C70.688 17.0558 71.4086 16.5154 72.4854 16.5154C73.6171 16.5154 74.2437 17.0793 74.2907 17.7724V17.788H73.2295L73.2255 17.7685C73.1629 17.5374 72.9084 17.322 72.4815 17.322C72.086 17.322 71.8041 17.5061 71.8041 17.7959V17.7998C71.8041 18.0308 71.9646 18.164 72.411 18.2619L73.1277 18.4146C73.9892 18.5986 74.3925 18.9589 74.3925 19.5972V19.6011C74.3925 20.4548 73.6054 21.0108 72.5011 21.0108ZM75.9119 15.9476C75.5594 15.9476 75.2657 15.6656 75.2657 15.3132C75.2657 14.9568 75.5594 14.6749 75.9119 14.6749C76.2643 14.6749 76.5541 14.9568 76.5541 15.3132C76.5541 15.6656 76.2643 15.9476 75.9119 15.9476ZM75.3362 20.9208V16.6093H76.4797V20.9208H75.3362ZM79.5341 22.4362C78.3397 22.4362 77.6466 21.935 77.5526 21.2027V21.1831H78.6843L78.6883 21.1988C78.7509 21.4494 79.0485 21.6217 79.5576 21.6217C80.1685 21.6217 80.5248 21.3359 80.5248 20.8346V20.0319H80.4543C80.2155 20.4861 79.7612 20.7328 79.1621 20.7328C78.0774 20.7328 77.4078 19.8948 77.4078 18.6691V18.6613C77.4078 17.3925 78.0774 16.5389 79.1817 16.5389C79.773 16.5389 80.235 16.8286 80.4661 17.3142H80.5209V16.6093H81.6644V20.7876C81.6644 21.7979 80.8381 22.4362 79.5341 22.4362ZM79.5498 19.8556C80.1685 19.8556 80.5366 19.374 80.5366 18.6652V18.6574C80.5366 17.9486 80.1646 17.4669 79.5498 17.4669C78.935 17.4669 78.5786 17.9486 78.5786 18.6574V18.6652C78.5786 19.374 78.931 19.8556 79.5498 19.8556ZM82.847 20.9208V14.9607H83.9904V17.2751H84.0609C84.2567 16.8091 84.6835 16.5154 85.2983 16.5154C86.2577 16.5154 86.7746 17.1028 86.7746 18.1326V20.9208H85.6312V18.3911C85.6312 17.7841 85.3806 17.463 84.8402 17.463C84.3115 17.463 83.9904 17.8429 83.9904 18.4263V20.9208H82.847ZM89.6724 20.9364C88.6229 20.9364 88.2 20.5958 88.2 19.7577V17.4709H87.5343V16.6093H88.2V15.5795H89.3552V16.6093H90.2441V17.4709H89.3552V19.4954C89.3552 19.8831 89.5197 20.0554 89.9074 20.0554C90.0562 20.0554 90.1345 20.0475 90.2441 20.0358V20.8855C90.1032 20.9129 89.8917 20.9364 89.6724 20.9364ZM92.8717 21.0108C91.7009 21.0108 91.0351 20.4861 90.9529 19.746L90.949 19.7303H92.0729L92.0807 19.746C92.1708 20.0123 92.4331 20.2042 92.8835 20.2042C93.322 20.2042 93.6197 20.0162 93.6197 19.7303V19.7225C93.6197 19.4915 93.4474 19.3466 93.0088 19.2487L92.2882 19.096C91.4659 18.9197 91.0586 18.5164 91.0586 17.8703V17.8664C91.0586 17.0558 91.7792 16.5154 92.8561 16.5154C93.9878 16.5154 94.6143 17.0793 94.6613 17.7724V17.788H93.6001L93.5962 17.7685C93.5335 17.5374 93.279 17.322 92.8521 17.322C92.4566 17.322 92.1747 17.5061 92.1747 17.7959V17.7998C92.1747 18.0308 92.3352 18.164 92.7816 18.2619L93.4983 18.4146C94.3598 18.5986 94.7631 18.9589 94.7631 19.5972V19.6011C94.7631 20.4548 93.976 21.0108 92.8717 21.0108Z" fill="#202020"/>
<rect x="10.6931" y="25.8416" width="134.218" height="0.445545" fill="#F5F5FC"/>
<rect x="16.0396" y="162.178" width="123.525" height="0.445545" fill="#F5F5FC"/>
<rect x="10.6931" y="65.495" width="134.218" height="1.78218" fill="#F5F5FC"/>
<path d="M23.4903 39.2676C23.7873 39.4391 23.7873 39.8678 23.4903 40.0393L18.812 42.7403C18.515 42.9118 18.1437 42.6974 18.1437 42.3544L18.1437 36.9525C18.1437 36.6095 18.515 36.3951 18.812 36.5666L23.4903 39.2676Z" fill="#202020"/>
<path d="M16.8279 49.5544V46.3095H16.7861L15.828 47.0039V46.5079L16.8305 45.7873H17.2978V49.5544H16.8279ZM20.1068 49.5544V48.7739H18.2715V48.3457C18.7806 47.4921 19.3575 46.5731 19.8849 45.7873H20.5663V48.3536H21.1014V48.7739H20.5663V49.5544H20.1068ZM18.7519 48.3562H20.1094V46.2233H20.0781C19.6552 46.8551 19.1617 47.633 18.7519 48.3248V48.3562ZM23.0594 45.6986C23.7486 45.6986 24.477 46.1841 24.477 47.6017V47.6069C24.477 48.8913 23.9418 49.6432 23.0281 49.6432C22.3963 49.6432 21.9264 49.2725 21.7985 48.7164L21.7906 48.6825H22.2632L22.2736 48.7112C22.3885 49.0271 22.6521 49.2229 23.0333 49.2229C23.7173 49.2229 23.9966 48.5546 24.0253 47.7688C24.0279 47.7401 24.0279 47.7087 24.0279 47.68H23.9783C23.84 47.9881 23.4849 48.2622 22.9759 48.2622C22.2684 48.2622 21.741 47.7244 21.741 47.0013V46.996C21.741 46.2442 22.2997 45.6986 23.0594 45.6986ZM23.0568 47.8523C23.545 47.8523 23.9157 47.4947 23.9157 47.0039V47.0013C23.9157 46.5052 23.5424 46.1137 23.0646 46.1137C22.5921 46.1137 22.2136 46.4974 22.2136 46.9856V46.9908C22.2136 47.4921 22.5686 47.8523 23.0568 47.8523Z" fill="#202020"/>
<path d="M52.5893 37.5035C52.2665 37.1661 51.8234 36.9802 51.3417 36.9802C50.9816 36.9802 50.6519 37.0899 50.3616 37.3062C50.2151 37.4153 50.0824 37.5489 49.9654 37.7048C49.8484 37.5489 49.7156 37.4153 49.5691 37.3062C49.2788 37.0899 48.9491 36.9802 48.589 36.9802C48.1073 36.9802 47.6642 37.1661 47.3413 37.5035C47.0223 37.8369 46.8466 38.2925 46.8466 38.7863C46.8466 39.2945 47.0431 39.7597 47.4652 40.2504C47.8428 40.6893 48.3855 41.1349 49.0139 41.6508C49.2284 41.827 49.4717 42.0267 49.7242 42.2395C49.791 42.2958 49.8766 42.3268 49.9654 42.3268C50.0541 42.3268 50.1398 42.2958 50.2064 42.2396C50.459 42.0268 50.7023 41.827 50.917 41.6507C51.5453 41.1348 52.088 40.6893 52.4656 40.2504C52.8876 39.7597 53.0842 39.2945 53.0842 38.7862C53.0842 38.2925 52.9084 37.8369 52.5893 37.5035Z" fill="#202020"/>
<path d="M48.2841 49.6171C47.5061 49.6171 47.0023 49.1837 46.9527 48.5885L46.9501 48.5572H47.4017L47.4043 48.5833C47.4409 48.954 47.7829 49.2098 48.2841 49.2098C48.7775 49.2098 49.1143 48.9331 49.1143 48.5337V48.5285C49.1143 48.0664 48.7827 47.8079 48.2554 47.8079H47.7829V47.4111H48.2345C48.6835 47.4111 48.9968 47.1344 48.9968 46.7585V46.7533C48.9968 46.3591 48.7383 46.1319 48.2789 46.1319C47.8351 46.1319 47.5192 46.3669 47.48 46.748L47.4774 46.7741H47.0258L47.0284 46.748C47.0884 46.1345 47.574 45.7247 48.2789 45.7247C48.9968 45.7247 49.4693 46.1241 49.4693 46.6958V46.701C49.4693 47.1657 49.1404 47.4842 48.6705 47.5834V47.5939C49.2187 47.6409 49.592 47.9829 49.592 48.518V48.5233C49.592 49.1524 49.0386 49.6171 48.2841 49.6171ZM51.6413 49.6171C50.8425 49.6171 50.2734 49.1681 50.2734 48.5363V48.5311C50.2734 48.0664 50.5997 47.68 51.0827 47.5678V47.5573C50.6702 47.4294 50.4091 47.1161 50.4091 46.7193V46.7141C50.4091 46.145 50.9286 45.7247 51.6413 45.7247C52.354 45.7247 52.8736 46.145 52.8736 46.7141V46.7193C52.8736 47.1161 52.6125 47.4294 52.2 47.5573V47.5678C52.683 47.68 53.0093 48.0664 53.0093 48.5311V48.5363C53.0093 49.1681 52.4402 49.6171 51.6413 49.6171ZM51.6413 47.3824C52.0956 47.3824 52.4063 47.124 52.4063 46.7585V46.7533C52.4063 46.3878 52.0956 46.1293 51.6413 46.1293C51.1871 46.1293 50.8764 46.3878 50.8764 46.7533V46.7585C50.8764 47.124 51.1871 47.3824 51.6413 47.3824ZM51.6413 49.2072C52.1609 49.2072 52.5316 48.9148 52.5316 48.5076V48.5024C52.5316 48.0899 52.1635 47.7949 51.6413 47.7949C51.1192 47.7949 50.7511 48.0899 50.7511 48.5024V48.5076C50.7511 48.9148 51.1218 49.2072 51.6413 49.2072Z" fill="#202020"/>
<path d="M80.1074 42.3509L81.5071 42.7593C81.7444 42.8283 81.9657 42.6115 81.8988 42.3755L81.501 40.9822C82.0969 39.8041 81.891 38.3738 80.942 37.4339C79.7319 36.2349 77.7601 36.2349 76.55 37.4339C75.3399 38.6328 75.4354 40.6806 76.5113 41.7467C77.5871 42.8127 78.9221 42.9267 80.1074 42.3509Z" fill="#202020"/>
<path d="M78.8182 49.6171C78.0403 49.6171 77.5364 49.1837 77.4868 48.5885L77.4842 48.5572H77.9358L77.9384 48.5833C77.975 48.954 78.317 49.2098 78.8182 49.2098C79.3116 49.2098 79.6484 48.9331 79.6484 48.5337V48.5285C79.6484 48.0664 79.3168 47.8079 78.7895 47.8079H78.317V47.4111H78.7686C79.2176 47.4111 79.5309 47.1344 79.5309 46.7585V46.7533C79.5309 46.3591 79.2725 46.1319 78.813 46.1319C78.3692 46.1319 78.0533 46.3669 78.0142 46.748L78.0115 46.7741H77.5599L77.5625 46.748C77.6226 46.1345 78.1081 45.7247 78.813 45.7247C79.5309 45.7247 80.0034 46.1241 80.0034 46.6958V46.701C80.0034 47.1657 79.6745 47.4842 79.2046 47.5834V47.5939C79.7528 47.6409 80.1261 47.9829 80.1261 48.518V48.5233C80.1261 49.1524 79.5727 49.6171 78.8182 49.6171Z" fill="#202020"/>
<path d="M110.781 37.8191C110.866 37.706 110.88 37.5545 110.816 37.4278C110.753 37.3011 110.624 37.221 110.482 37.2209L104.633 37.2147C104.485 37.2146 104.351 37.302 104.291 37.4376C104.231 37.5732 104.257 37.7313 104.357 37.8406L105.668 39.2745C105.781 39.3976 105.962 39.4312 106.111 39.3567L107.64 38.5943C107.824 38.5022 108.049 38.5773 108.141 38.762C108.233 38.9467 108.158 39.1711 107.973 39.2632L106.445 40.0255C106.295 40.1 106.213 40.2644 106.244 40.4285L106.6 42.3388C106.627 42.4845 106.738 42.6004 106.882 42.6342C107.026 42.668 107.177 42.6133 107.266 42.4949L110.781 37.8191Z" fill="#202020"/>
<path d="M107.721 49.5544V46.3095H107.679L106.721 47.0039V46.5079L107.723 45.7873H108.191V49.5544H107.721Z" fill="#202020"/>
<path d="M134.218 37.4258C134.218 37.1797 134.417 36.9802 134.663 36.9802H138.228C138.474 36.9802 138.673 37.1797 138.673 37.4258V41.3997C138.673 41.7733 138.241 41.981 137.949 41.7477L136.724 40.7672C136.561 40.6371 136.33 40.6371 136.167 40.7672L134.942 41.7477C134.65 41.981 134.218 41.7733 134.218 41.3997V37.4258Z" fill="#202020"/>
<path d="M136.547 49.5544V46.3095H136.506L135.548 47.0039V46.5079L136.55 45.7873H137.017V49.5544H136.547Z" fill="#202020"/>
<path d="M16.6106 85.3069V80.598H18.5718C19.6422 80.598 20.2557 81.1691 20.2557 82.0958V82.1024C20.2557 82.7061 19.9424 83.2249 19.404 83.437L20.396 85.3069H19.28L18.4022 83.5839H17.5961V85.3069H16.6106ZM17.5961 82.866H18.4642C18.9569 82.866 19.2473 82.5853 19.2473 82.1219V82.1154C19.2473 81.6618 18.9439 81.3681 18.4511 81.3681H17.5961V82.866ZM22.6183 85.3819C21.5251 85.3819 20.8627 84.6673 20.8627 83.5154V83.5121C20.8627 82.3699 21.5316 81.6357 22.5791 81.6357C23.6266 81.6357 24.2793 82.3536 24.2793 83.4403V83.7373H21.8057C21.8155 84.3279 22.1321 84.6705 22.6379 84.6705C23.0556 84.6705 23.2873 84.4486 23.3525 84.3116L23.3623 84.292H24.2499L24.2434 84.3246C24.1324 84.775 23.6691 85.3819 22.6183 85.3819ZM22.5955 82.3504C22.181 82.3504 21.8743 82.631 21.8155 83.1401H23.3656C23.3068 82.618 23.0099 82.3504 22.5955 82.3504ZM26.0382 85.3624C25.3529 85.3624 24.8667 84.9381 24.8667 84.2855V84.279C24.8667 83.6328 25.366 83.2543 26.2601 83.2021L27.1281 83.1499V82.8529C27.1281 82.5429 26.916 82.3667 26.5244 82.3667C26.1818 82.3667 25.9631 82.4874 25.8881 82.6995L25.8816 82.7126H25.0005L25.0037 82.6832C25.0788 82.0534 25.6727 81.6357 26.5766 81.6357C27.5295 81.6357 28.0679 82.086 28.0679 82.8529V85.3069H27.1281V84.8304H27.0694C26.8866 85.1633 26.5081 85.3624 26.0382 85.3624ZM25.7967 84.2267C25.7967 84.5009 26.0284 84.6673 26.358 84.6673C26.7985 84.6673 27.1281 84.3769 27.1281 83.9983V83.734L26.4037 83.7797C25.9958 83.8058 25.7967 83.9592 25.7967 84.2202V84.2267ZM30.5839 85.3819C29.4614 85.3819 28.825 84.6999 28.825 83.5056V83.499C28.825 82.3177 29.4581 81.6357 30.5839 81.6357C31.5368 81.6357 32.1013 82.1546 32.1862 82.9573V82.9671H31.2986L31.2953 82.9606C31.2333 82.6114 30.9951 82.383 30.5872 82.383C30.0749 82.383 29.7942 82.7811 29.7942 83.499V83.5056C29.7942 84.2333 30.0781 84.6347 30.5872 84.6347C30.9788 84.6347 31.2105 84.4486 31.2953 84.0897L31.3018 84.0766H32.1829L32.1797 84.0962C32.0818 84.8794 31.5205 85.3819 30.5839 85.3819ZM32.9628 85.3069V80.3402H33.9157V82.2688H33.9745C34.1376 81.8805 34.4933 81.6357 35.0057 81.6357C35.8052 81.6357 36.2359 82.1252 36.2359 82.9834V85.3069H35.283V83.1988C35.283 82.693 35.0742 82.4254 34.6238 82.4254C34.1833 82.4254 33.9157 82.742 33.9157 83.2282V85.3069H32.9628Z" fill="#202020"/>
<path d="M42.1634 82.4257V81.9802H42.6089V82.4257H42.1634Z" fill="#202020"/>
<path d="M41.7178 83.3168V82.8713H42.6089V84.2079H43.0545V84.6534H41.7178V84.2079H42.1634V83.3168H41.7178Z" fill="#202020"/>
<path fill-rule="evenodd" clip-rule="evenodd" d="M45.505 83.3168C45.505 85.0393 44.1086 86.4356 42.3861 86.4356C40.6637 86.4356 39.2673 85.0393 39.2673 83.3168C39.2673 81.5943 40.6637 80.198 42.3861 80.198C44.1086 80.198 45.505 81.5943 45.505 83.3168ZM45.0594 83.3168C45.0594 84.7932 43.8626 85.9901 42.3861 85.9901C40.9097 85.9901 39.7129 84.7932 39.7129 83.3168C39.7129 81.8404 40.9097 80.6435 42.3861 80.6435C43.8626 80.6435 45.0594 81.8404 45.0594 83.3168Z" fill="#202020"/>
<path d="M17.3688 176.198L16.2884 172.117H17.1765L17.8128 175.033H17.8581L18.6019 172.117H19.323L20.081 175.033H20.1262L20.7569 172.117H21.6393L20.5561 176.198H19.7558L18.9837 173.449H18.9384L18.1748 176.198H17.3688ZM22.7932 176.246C22.1993 176.246 21.7779 175.878 21.7779 175.313V175.307C21.7779 174.747 22.2106 174.419 22.9855 174.374L23.7378 174.329V174.071C23.7378 173.803 23.554 173.65 23.2146 173.65C22.9176 173.65 22.7282 173.754 22.6631 173.938L22.6575 173.95H21.8938L21.8967 173.924C21.9617 173.378 22.4765 173.016 23.2599 173.016C24.0857 173.016 24.5523 173.407 24.5523 174.071V176.198H23.7378V175.785H23.6869C23.5285 176.074 23.2005 176.246 22.7932 176.246ZM22.5839 175.262C22.5839 175.499 22.7847 175.644 23.0704 175.644C23.4522 175.644 23.7378 175.392 23.7378 175.064V174.835L23.11 174.874C22.7564 174.897 22.5839 175.03 22.5839 175.256V175.262ZM26.6536 176.209C25.8957 176.209 25.5903 175.963 25.5903 175.358V173.706H25.1095V173.084H25.5903V172.34H26.4246V173.084H27.0666V173.706H26.4246V175.169C26.4246 175.449 26.5434 175.573 26.8233 175.573C26.9308 175.573 26.9874 175.567 27.0666 175.559V176.173C26.9647 176.192 26.812 176.209 26.6536 176.209ZM29.1028 176.263C28.13 176.263 27.5785 175.672 27.5785 174.637V174.631C27.5785 173.607 28.1271 173.016 29.1028 173.016C29.9287 173.016 30.4179 173.466 30.4915 174.162V174.17H29.7222L29.7194 174.165C29.6656 173.862 29.4592 173.664 29.1057 173.664C28.6616 173.664 28.4184 174.009 28.4184 174.631V174.637C28.4184 175.268 28.6645 175.615 29.1057 175.615C29.445 175.615 29.6458 175.454 29.7194 175.143L29.725 175.132H30.4886L30.4858 175.149C30.401 175.828 29.9145 176.263 29.1028 176.263ZM31.1646 176.198V171.894H31.9904V173.565H32.0413C32.1827 173.228 32.491 173.016 32.935 173.016C33.6279 173.016 34.0012 173.441 34.0012 174.184V176.198H33.1754V174.371C33.1754 173.933 32.9944 173.701 32.6041 173.701C32.2223 173.701 31.9904 173.975 31.9904 174.396V176.198H31.1646Z" fill="#202020"/>
<path d="M16.4799 190.792V187.339H17.7817C18.4302 187.339 18.8897 187.786 18.8897 188.442V188.447C18.8897 189.103 18.4302 189.56 17.7817 189.56H16.9106V190.792H16.4799ZM17.6716 187.722H16.9106V189.177H17.6716C18.1646 189.177 18.4494 188.906 18.4494 188.452V188.447C18.4494 187.992 18.1646 187.722 17.6716 187.722ZM19.5669 190.792V187.188H19.9833V190.792H19.5669ZM21.4909 190.838C21.0004 190.838 20.6294 190.541 20.6294 190.072V190.067C20.6294 189.608 20.9693 189.342 21.5699 189.306L22.3094 189.261V189.026C22.3094 188.708 22.1155 188.535 21.7303 188.535C21.4215 188.535 21.2181 188.65 21.1511 188.851L21.1487 188.859H20.7323L20.7347 188.844C20.8017 188.44 21.1942 188.167 21.7446 188.167C22.374 188.167 22.7258 188.49 22.7258 189.026V190.792H22.3094V190.412H22.2711C22.1084 190.687 21.8379 190.838 21.4909 190.838ZM21.0554 190.062C21.0554 190.323 21.278 190.476 21.5771 190.476C22.0007 190.476 22.3094 190.199 22.3094 189.83V189.596L21.6202 189.639C21.2277 189.663 21.0554 189.801 21.0554 190.057V190.062ZM23.6112 191.697C23.5562 191.697 23.4844 191.692 23.4269 191.682V191.34C23.4772 191.35 23.5418 191.352 23.5992 191.352C23.8361 191.352 23.9797 191.244 24.0731 190.948L24.1209 190.795L23.1661 188.212H23.6112L24.3195 190.335H24.3578L25.0638 188.212H25.5017L24.4942 190.95C24.2813 191.529 24.0683 191.697 23.6112 191.697ZM26.8658 190.838C26.2914 190.838 25.8966 190.56 25.8487 190.134H26.2747C26.3441 190.349 26.5499 190.491 26.8801 190.491C27.2271 190.491 27.4736 190.325 27.4736 190.091V190.086C27.4736 189.911 27.342 189.789 27.0237 189.713L26.6241 189.617C26.1407 189.502 25.9229 189.292 25.9229 188.921V188.918C25.9229 188.49 26.3345 188.167 26.8825 188.167C27.4233 188.167 27.7991 188.437 27.8565 188.859H27.4473C27.3922 188.655 27.1912 188.514 26.8801 188.514C26.5738 188.514 26.3489 188.672 26.3489 188.899V188.904C26.3489 189.079 26.4781 189.189 26.782 189.263L27.1793 189.359C27.665 189.476 27.8996 189.687 27.8996 190.055V190.06C27.8996 190.519 27.4521 190.838 26.8658 190.838Z" fill="#202020"/>
<path d="M132.692 190.792V187.818H132.654L131.775 188.454V187.999L132.694 187.339H133.123V190.792H132.692ZM135.698 190.792V190.077H134.015V189.684C134.482 188.902 135.011 188.059 135.494 187.339H136.119V189.691H136.609V190.077H136.119V190.792H135.698ZM134.456 189.694H135.7V187.739H135.671C135.284 188.318 134.831 189.031 134.456 189.665V189.694ZM138.404 187.258C139.036 187.258 139.704 187.703 139.704 189.002V189.007C139.704 190.184 139.213 190.873 138.375 190.873C137.796 190.873 137.366 190.534 137.248 190.024L137.241 189.993H137.674L137.684 190.019C137.789 190.309 138.031 190.488 138.38 190.488C139.007 190.488 139.263 189.876 139.29 189.155C139.292 189.129 139.292 189.1 139.292 189.074H139.247C139.12 189.356 138.794 189.608 138.328 189.608C137.679 189.608 137.196 189.115 137.196 188.452V188.447C137.196 187.758 137.708 187.258 138.404 187.258ZM138.402 189.232C138.849 189.232 139.189 188.904 139.189 188.454V188.452C139.189 187.997 138.847 187.638 138.409 187.638C137.976 187.638 137.629 187.99 137.629 188.437V188.442C137.629 188.902 137.954 189.232 138.402 189.232Z" fill="#202020"/>
<path d="M17.1954 205.03L16.2549 201.577H16.7048L17.3916 204.384H17.4203L18.1933 201.577H18.6288L19.4018 204.384H19.4305L20.1173 201.577H20.5672L19.6268 205.03H19.2199L18.4254 202.304H18.3967L17.6022 205.03H17.1954ZM21.6393 205.075C21.1487 205.075 20.7778 204.779 20.7778 204.309V204.305C20.7778 203.845 21.1176 203.58 21.7183 203.544L22.4577 203.498V203.264C22.4577 202.945 22.2639 202.773 21.8786 202.773C21.5699 202.773 21.3665 202.888 21.2995 203.089L21.2971 203.096H20.8807L20.8831 203.082C20.9501 202.677 21.3426 202.405 21.893 202.405C22.5224 202.405 22.8741 202.728 22.8741 203.264V205.03H22.4577V204.649H22.4195C22.2567 204.924 21.9863 205.075 21.6393 205.075ZM21.2038 204.3C21.2038 204.561 21.4263 204.714 21.7255 204.714C22.149 204.714 22.4577 204.436 22.4577 204.068V203.833L21.7685 203.876C21.3761 203.9 21.2038 204.039 21.2038 204.295V204.3ZM23.6351 205.03V202.45H24.0515V202.833H24.0898C24.1879 202.563 24.4296 202.405 24.779 202.405C24.858 202.405 24.9465 202.414 24.9872 202.421V202.826C24.9011 202.811 24.8221 202.802 24.7311 202.802C24.3339 202.802 24.0515 203.053 24.0515 203.431V205.03H23.6351ZM26.4853 205.075C25.7626 205.075 25.3007 204.551 25.3007 203.733V203.728C25.3007 202.926 25.7602 202.405 26.4829 202.405C27.1099 202.405 27.4856 202.766 27.5621 203.225L27.5645 203.24H27.1505L27.1481 203.233C27.0835 202.979 26.8538 202.773 26.4829 202.773C26.0186 202.773 25.7267 203.146 25.7267 203.728V203.733C25.7267 204.326 26.0234 204.707 26.4829 204.707C26.8299 204.707 27.05 204.554 27.1457 204.266L27.1505 204.252L27.5621 204.25L27.5574 204.276C27.4521 204.743 27.1051 205.075 26.4853 205.075ZM28.1963 205.03V201.426H28.6127V202.838H28.651C28.7802 202.565 29.0219 202.405 29.4024 202.405C29.9815 202.405 30.3046 202.747 30.3046 203.359V205.03H29.8882V203.46C29.8882 202.996 29.6968 202.773 29.2851 202.773C28.8735 202.773 28.6127 203.051 28.6127 203.503V205.03H28.1963ZM33.3533 205.049C32.8221 205.049 32.5995 204.853 32.5995 204.36V202.795H32.1927V202.45H32.5995V201.782H33.0303V202.45H33.595V202.795H33.0303V204.254C33.0303 204.558 33.1356 204.68 33.4036 204.68C33.4778 204.68 33.5185 204.678 33.595 204.671V205.025C33.5137 205.039 33.4347 205.049 33.3533 205.049ZM34.4374 201.952C34.2795 201.952 34.1502 201.823 34.1502 201.665C34.1502 201.507 34.2795 201.378 34.4374 201.378C34.5954 201.378 34.7246 201.507 34.7246 201.665C34.7246 201.823 34.5954 201.952 34.4374 201.952ZM34.2268 205.03V202.45H34.6432V205.03H34.2268ZM35.4281 205.03V202.45H35.8445V202.843H35.8828C35.9977 202.565 36.2418 202.405 36.5792 202.405C36.9286 202.405 37.1727 202.589 37.2923 202.857H37.3306C37.4694 202.584 37.7638 202.405 38.1203 202.405C38.6468 202.405 38.9411 202.706 38.9411 203.247V205.03H38.5248V203.343C38.5248 202.962 38.3501 202.773 37.9863 202.773C37.6274 202.773 37.3904 203.044 37.3904 203.371V205.03H36.9741V203.278C36.9741 202.972 36.7635 202.773 36.438 202.773C36.1006 202.773 35.8445 203.067 35.8445 203.431V205.03H35.4281ZM40.7455 205.075C40.0085 205.075 39.5633 204.558 39.5633 203.749V203.747C39.5633 202.95 40.018 202.405 40.7192 202.405C41.4204 202.405 41.8463 202.926 41.8463 203.697V203.86H39.9893C40.0013 204.393 40.2956 204.704 40.7551 204.704C41.1045 204.704 41.3199 204.539 41.3893 204.384L41.3988 204.362H41.8152L41.8104 204.381C41.7219 204.731 41.3534 205.075 40.7455 205.075ZM40.7168 202.776C40.3339 202.776 40.042 203.036 39.9965 203.527H41.4228C41.3797 203.017 41.0973 202.776 40.7168 202.776Z" fill="#202020"/>
<path d="M108.639 205.03V204.733L109.807 203.47C110.247 202.993 110.377 202.814 110.377 202.512V202.507C110.377 202.144 110.13 201.871 109.723 201.871C109.309 201.871 109.034 202.141 109.034 202.548L109.032 202.553L108.62 202.551L108.615 202.548C108.618 201.936 109.092 201.495 109.752 201.495C110.355 201.495 110.817 201.904 110.817 202.462V202.467C110.817 202.862 110.647 203.149 110.022 203.793L109.238 204.604V204.642H110.874V205.03H108.639ZM112.442 205.03V202.055H112.404L111.525 202.692V202.237L112.444 201.577H112.873V205.03H112.442ZM115.251 205.03V202.45H115.668V202.843H115.706C115.821 202.565 116.065 202.405 116.402 202.405C116.752 202.405 116.996 202.589 117.115 202.857H117.154C117.293 202.584 117.587 202.405 117.943 202.405C118.47 202.405 118.764 202.706 118.764 203.247V205.03H118.348V203.343C118.348 202.962 118.173 202.773 117.809 202.773C117.45 202.773 117.214 203.044 117.214 203.371V205.03H116.797V203.278C116.797 202.972 116.587 202.773 116.261 202.773C115.924 202.773 115.668 203.067 115.668 203.431V205.03H115.251ZM119.736 201.952C119.578 201.952 119.449 201.823 119.449 201.665C119.449 201.507 119.578 201.378 119.736 201.378C119.894 201.378 120.023 201.507 120.023 201.665C120.023 201.823 119.894 201.952 119.736 201.952ZM119.525 205.03V202.45H119.942V205.03H119.525ZM120.727 205.03V202.45H121.143V202.838H121.181C121.311 202.565 121.552 202.405 121.933 202.405C122.512 202.405 122.835 202.747 122.835 203.359V205.03H122.418V203.46C122.418 202.996 122.227 202.773 121.815 202.773C121.404 202.773 121.143 203.051 121.143 203.503V205.03H120.727ZM126.542 205.03V204.314H124.859V203.922C125.326 203.139 125.855 202.297 126.338 201.577H126.963V203.929H127.453V204.314H126.963V205.03H126.542ZM125.3 203.931H126.544V201.976H126.515C126.128 202.555 125.675 203.268 125.3 203.903V203.931ZM128.262 205.03L129.813 201.995V201.962H127.966V201.577H130.251V201.976L128.715 205.03H128.262ZM133.175 205.075C132.601 205.075 132.206 204.798 132.158 204.372H132.584C132.654 204.587 132.859 204.728 133.19 204.728C133.537 204.728 133.783 204.563 133.783 204.329V204.324C133.783 204.149 133.652 204.027 133.333 203.951L132.934 203.855C132.45 203.74 132.232 203.529 132.232 203.158V203.156C132.232 202.728 132.644 202.405 133.192 202.405C133.733 202.405 134.109 202.675 134.166 203.096H133.757C133.702 202.893 133.501 202.752 133.19 202.752C132.883 202.752 132.658 202.91 132.658 203.137V203.142C132.658 203.316 132.788 203.426 133.092 203.501L133.489 203.596C133.975 203.714 134.209 203.924 134.209 204.293V204.298C134.209 204.757 133.762 205.075 133.175 205.075ZM135.908 205.075C135.171 205.075 134.726 204.558 134.726 203.749V203.747C134.726 202.95 135.181 202.405 135.882 202.405C136.583 202.405 137.009 202.926 137.009 203.697V203.86H135.152C135.164 204.393 135.458 204.704 135.918 204.704C136.267 204.704 136.483 204.539 136.552 204.384L136.561 204.362H136.978L136.973 204.381C136.885 204.731 136.516 205.075 135.908 205.075ZM135.879 202.776C135.497 202.776 135.205 203.036 135.159 203.527H136.585C136.542 203.017 136.26 202.776 135.879 202.776ZM138.71 205.075C137.988 205.075 137.526 204.551 137.526 203.733V203.728C137.526 202.926 137.985 202.405 138.708 202.405C139.335 202.405 139.711 202.766 139.787 203.225L139.79 203.24H139.376L139.373 203.233C139.309 202.979 139.079 202.773 138.708 202.773C138.244 202.773 137.952 203.146 137.952 203.728V203.733C137.952 204.326 138.249 204.707 138.708 204.707C139.055 204.707 139.275 204.554 139.371 204.266L139.376 204.252L139.787 204.25L139.783 204.276C139.677 204.743 139.33 205.075 138.71 205.075Z" fill="#202020"/>
<path d="M16.2047 219.267L17.4778 215.814H17.9037L19.1769 219.267H18.7246L18.3776 218.279H17.004L16.657 219.267H16.2047ZM17.6716 216.372L17.1308 217.913H18.2507L17.7099 216.372H17.6716ZM20.1245 219.267L19.1697 216.688H19.61L20.316 218.813H20.3542L21.0602 216.688H21.5005L20.5457 219.267H20.1245ZM23.0081 219.313C22.2711 219.313 21.826 218.796 21.826 217.987V217.985C21.826 217.188 22.2807 216.642 22.9818 216.642C23.683 216.642 24.109 217.164 24.109 217.934V218.097H22.2519C22.2639 218.631 22.5583 218.942 23.0177 218.942C23.3671 218.942 23.5825 218.777 23.6519 218.621L23.6615 218.6H24.0778L24.0731 218.619C23.9845 218.968 23.616 219.313 23.0081 219.313ZM22.9794 217.013C22.5965 217.013 22.3046 217.274 22.2591 217.764H23.6854C23.6423 217.255 23.3599 217.013 22.9794 217.013ZM24.7551 219.267V216.688H25.1715V217.071H25.2098C25.3079 216.8 25.5496 216.642 25.899 216.642C25.9779 216.642 26.0665 216.652 26.1072 216.659V217.063C26.021 217.049 25.942 217.039 25.8511 217.039C25.4539 217.039 25.1715 217.291 25.1715 217.669V219.267H24.7551ZM27.33 219.313C26.8394 219.313 26.4685 219.016 26.4685 218.547V218.542C26.4685 218.083 26.8083 217.817 27.409 217.781L28.1484 217.736V217.501C28.1484 217.183 27.9546 217.011 27.5693 217.011C27.2606 217.011 27.0572 217.126 26.9902 217.327L26.9878 217.334H26.5714L26.5738 217.319C26.6408 216.915 27.0333 216.642 27.5837 216.642C28.2131 216.642 28.5648 216.965 28.5648 217.501V219.267H28.1484V218.887H28.1102C27.9474 219.162 27.677 219.313 27.33 219.313ZM26.8945 218.537C26.8945 218.798 27.117 218.951 27.4162 218.951C27.8397 218.951 28.1484 218.674 28.1484 218.305V218.071L27.4592 218.114C27.0668 218.138 26.8945 218.277 26.8945 218.533V218.537ZM30.3883 220.177C29.7662 220.177 29.3689 219.897 29.3043 219.473L29.3091 219.471H29.7398L29.7422 219.473C29.7877 219.669 30.0174 219.808 30.3883 219.808C30.8502 219.808 31.1254 219.59 31.1254 219.21V218.688H31.0871C30.9244 218.973 30.6324 219.133 30.2783 219.133C29.6106 219.133 29.1966 218.616 29.1966 217.894V217.889C29.1966 217.166 29.613 216.642 30.2878 216.642C30.6516 216.642 30.934 216.822 31.0919 217.114H31.1206V216.688H31.537V219.231C31.537 219.808 31.0919 220.177 30.3883 220.177ZM30.3692 218.765C30.8478 218.765 31.135 218.406 31.135 217.894V217.889C31.135 217.377 30.8454 217.011 30.3692 217.011C29.8906 217.011 29.6226 217.377 29.6226 217.889V217.894C29.6226 218.406 29.8906 218.765 30.3692 218.765ZM33.3653 219.313C32.6283 219.313 32.1831 218.796 32.1831 217.987V217.985C32.1831 217.188 32.6378 216.642 33.339 216.642C34.0402 216.642 34.4661 217.164 34.4661 217.934V218.097H32.6091C32.6211 218.631 32.9154 218.942 33.3749 218.942C33.7243 218.942 33.9397 218.777 34.009 218.621L34.0186 218.6H34.435L34.4302 218.619C34.3417 218.968 33.9732 219.313 33.3653 219.313ZM33.3366 217.013C32.9537 217.013 32.6618 217.274 32.6163 217.764H34.0426C33.9995 217.255 33.7171 217.013 33.3366 217.013ZM36.9884 219.267L36.2657 216.688H36.6821L37.1894 218.75H37.2277L37.8044 216.688H38.1993L38.776 218.75H38.8143L39.3216 216.688H39.7356L39.0129 219.267H38.5942L38.0174 217.272H37.9791L37.4048 219.267H36.9884ZM40.9226 219.313C40.432 219.313 40.0611 219.016 40.0611 218.547V218.542C40.0611 218.083 40.4009 217.817 41.0016 217.781L41.741 217.736V217.501C41.741 217.183 41.5472 217.011 41.1619 217.011C40.8532 217.011 40.6498 217.126 40.5828 217.327L40.5804 217.334H40.164L40.1664 217.319C40.2334 216.915 40.6259 216.642 41.1763 216.642C41.8056 216.642 42.1574 216.965 42.1574 217.501V219.267H41.741V218.887H41.7027C41.54 219.162 41.2696 219.313 40.9226 219.313ZM40.4871 218.537C40.4871 218.798 40.7096 218.951 41.0088 218.951C41.4323 218.951 41.741 218.674 41.741 218.305V218.071L41.0518 218.114C40.6594 218.138 40.4871 218.277 40.4871 218.533V218.537ZM43.835 219.286C43.3037 219.286 43.0811 219.09 43.0811 218.597V217.032H42.6743V216.688H43.0811V216.02H43.5119V216.688H44.0767V217.032H43.5119V218.492C43.5119 218.796 43.6172 218.918 43.8852 218.918C43.9594 218.918 44.0001 218.916 44.0767 218.908V219.263C43.9953 219.277 43.9163 219.286 43.835 219.286ZM45.7159 219.313C44.9932 219.313 44.5313 218.789 44.5313 217.97V217.966C44.5313 217.164 44.9908 216.642 45.7135 216.642C46.3405 216.642 46.7162 217.003 46.7928 217.463L46.7952 217.477H46.3812L46.3788 217.47C46.3142 217.216 46.0844 217.011 45.7135 217.011C45.2493 217.011 44.9573 217.384 44.9573 217.966V217.97C44.9573 218.564 45.254 218.944 45.7135 218.944C46.0605 218.944 46.2807 218.791 46.3764 218.504L46.3812 218.49L46.7928 218.487L46.788 218.514C46.6827 218.98 46.3357 219.313 45.7159 219.313ZM47.4269 219.267V215.663H47.8433V217.075H47.8816C48.0109 216.802 48.2526 216.642 48.633 216.642C49.2122 216.642 49.5352 216.984 49.5352 217.597V219.267H49.1188V217.697C49.1188 217.233 48.9274 217.011 48.5158 217.011C48.1042 217.011 47.8433 217.288 47.8433 217.741V219.267H47.4269ZM52.584 219.286C52.0527 219.286 51.8302 219.09 51.8302 218.597V217.032H51.4234V216.688H51.8302V216.02H52.2609V216.688H52.8257V217.032H52.2609V218.492C52.2609 218.796 52.3662 218.918 52.6342 218.918C52.7084 218.918 52.7491 218.916 52.8257 218.908V219.263C52.7443 219.277 52.6654 219.286 52.584 219.286ZM53.668 216.19C53.5101 216.19 53.3809 216.061 53.3809 215.903C53.3809 215.745 53.5101 215.616 53.668 215.616C53.826 215.616 53.9552 215.745 53.9552 215.903C53.9552 216.061 53.826 216.19 53.668 216.19ZM53.4575 219.267V216.688H53.8739V219.267H53.4575ZM54.6588 219.267V216.688H55.0752V217.08H55.1135C55.2283 216.802 55.4724 216.642 55.8098 216.642C56.1592 216.642 56.4033 216.826 56.523 217.094H56.5613C56.7001 216.822 56.9944 216.642 57.351 216.642C57.8774 216.642 58.1718 216.944 58.1718 217.485V219.267H57.7554V217.58C57.7554 217.2 57.5807 217.011 57.217 217.011C56.858 217.011 56.6211 217.281 56.6211 217.609V219.267H56.2047V217.516C56.2047 217.209 55.9941 217.011 55.6687 217.011C55.3312 217.011 55.0752 217.305 55.0752 217.669V219.267H54.6588ZM59.9762 219.313C59.2391 219.313 58.794 218.796 58.794 217.987V217.985C58.794 217.188 59.2487 216.642 59.9498 216.642C60.651 216.642 61.077 217.164 61.077 217.934V218.097H59.22C59.2319 218.631 59.5263 218.942 59.9857 218.942C60.3351 218.942 60.5505 218.777 60.6199 218.621L60.6295 218.6H61.0459L61.0411 218.619C60.9525 218.968 60.584 219.313 59.9762 219.313ZM59.9474 217.013C59.5646 217.013 59.2726 217.274 59.2271 217.764H60.6534C60.6103 217.255 60.3279 217.013 59.9474 217.013Z" fill="#202020"/>
<path d="M128.959 219.325C128.226 219.325 127.705 218.913 127.705 218.334V218.329C127.705 217.903 128.004 217.549 128.447 217.446V217.437C128.069 217.319 127.829 217.032 127.829 216.668V216.664C127.829 216.142 128.305 215.757 128.959 215.757C129.612 215.757 130.088 216.142 130.088 216.664V216.668C130.088 217.032 129.849 217.319 129.471 217.437V217.446C129.914 217.549 130.213 217.903 130.213 218.329V218.334C130.213 218.913 129.691 219.325 128.959 219.325ZM128.959 217.276C129.375 217.276 129.66 217.039 129.66 216.704V216.7C129.66 216.365 129.375 216.128 128.959 216.128C128.542 216.128 128.258 216.365 128.258 216.7V216.704C128.258 217.039 128.542 217.276 128.959 217.276ZM128.959 218.949C129.435 218.949 129.775 218.681 129.775 218.308V218.303C129.775 217.925 129.437 217.654 128.959 217.654C128.48 217.654 128.143 217.925 128.143 218.303V218.308C128.143 218.681 128.483 218.949 128.959 218.949ZM133.175 219.313C132.601 219.313 132.206 219.035 132.158 218.609H132.584C132.654 218.825 132.859 218.966 133.19 218.966C133.537 218.966 133.783 218.801 133.783 218.566V218.561C133.783 218.387 133.652 218.265 133.333 218.188L132.934 218.092C132.45 217.977 132.232 217.767 132.232 217.396V217.394C132.232 216.965 132.644 216.642 133.192 216.642C133.733 216.642 134.109 216.913 134.166 217.334H133.757C133.702 217.13 133.501 216.989 133.19 216.989C132.883 216.989 132.658 217.147 132.658 217.374V217.379C132.658 217.554 132.788 217.664 133.092 217.738L133.489 217.834C133.975 217.951 134.209 218.162 134.209 218.53V218.535C134.209 218.995 133.762 219.313 133.175 219.313ZM135.908 219.313C135.171 219.313 134.726 218.796 134.726 217.987V217.985C134.726 217.188 135.181 216.642 135.882 216.642C136.583 216.642 137.009 217.164 137.009 217.934V218.097H135.152C135.164 218.631 135.458 218.942 135.918 218.942C136.267 218.942 136.483 218.777 136.552 218.621L136.561 218.6H136.978L136.973 218.619C136.885 218.968 136.516 219.313 135.908 219.313ZM135.879 217.013C135.497 217.013 135.205 217.274 135.159 217.764H136.585C136.542 217.255 136.26 217.013 135.879 217.013ZM138.71 219.313C137.988 219.313 137.526 218.789 137.526 217.97V217.966C137.526 217.164 137.985 216.642 138.708 216.642C139.335 216.642 139.711 217.003 139.787 217.463L139.79 217.477H139.376L139.373 217.47C139.309 217.216 139.079 217.011 138.708 217.011C138.244 217.011 137.952 217.384 137.952 217.966V217.97C137.952 218.564 138.249 218.944 138.708 218.944C139.055 218.944 139.275 218.791 139.371 218.504L139.376 218.49L139.787 218.487L139.783 218.514C139.677 218.98 139.33 219.313 138.71 219.313Z" fill="#202020"/>
<path d="M71.9607 103.683V99.1485H71.8902L70.504 100.112V99.0467L71.9646 98.0324H73.1433V103.683H71.9607ZM74.6823 103.683V102.888L76.5032 101.091C77.2981 100.319 77.5135 100.033 77.5135 99.638V99.6262C77.5135 99.1446 77.1845 98.8078 76.6441 98.8078C76.092 98.8078 75.7121 99.1759 75.7121 99.7124V99.7319H74.6196L74.6157 99.7163C74.6157 98.6316 75.4615 97.8875 76.699 97.8875C77.862 97.8875 78.6765 98.5533 78.6765 99.5283V99.5401C78.6765 100.182 78.3436 100.715 77.3137 101.666L76.2682 102.641V102.732H78.7587V103.683H74.6823ZM81.9854 103.828C80.7754 103.828 79.9766 103.107 79.91 102.164L79.9061 102.109H80.9791L80.9869 102.136C81.0691 102.551 81.4568 102.884 81.9894 102.884C82.5963 102.884 83.0192 102.457 83.0192 101.85V101.843C83.0192 101.24 82.5924 100.821 81.9933 100.821C81.7074 100.821 81.4646 100.903 81.2767 101.063C81.1709 101.15 81.0769 101.255 81.0143 101.377H80.0001L80.2624 98.0324H83.7946V98.9723H81.1827L81.0417 100.582H81.1122C81.3393 100.202 81.7779 99.9669 82.3183 99.9669C83.3717 99.9669 84.1314 100.742 84.1314 101.819V101.827C84.1314 103.017 83.2542 103.828 81.9854 103.828Z" fill="black"/>
<path d="M54.7489 111.574L56.1378 107.807H56.6025L57.9913 111.574H57.4979L57.1194 110.496H55.6209L55.2423 111.574H54.7489ZM56.3492 108.415L55.7592 110.097H56.981L56.391 108.415H56.3492ZM59.589 111.624C58.8006 111.624 58.2967 111.052 58.2967 110.159V110.154C58.2967 109.279 58.798 108.71 59.5864 108.71C60.2704 108.71 60.6802 109.105 60.7638 109.606L60.7664 109.621H60.3147L60.3121 109.614C60.2416 109.337 59.991 109.112 59.5864 109.112C59.0799 109.112 58.7614 109.52 58.7614 110.154V110.159C58.7614 110.807 59.0851 111.222 59.5864 111.222C59.9649 111.222 60.2051 111.055 60.3095 110.741L60.3147 110.726L60.7638 110.723L60.7585 110.752C60.6437 111.261 60.2651 111.624 59.589 111.624ZM62.5808 111.624C61.7924 111.624 61.2885 111.052 61.2885 110.159V110.154C61.2885 109.279 61.7897 108.71 62.5781 108.71C63.2621 108.71 63.672 109.105 63.7555 109.606L63.7581 109.621H63.3065L63.3039 109.614C63.2334 109.337 62.9828 109.112 62.5781 109.112C62.0717 109.112 61.7532 109.52 61.7532 110.154V110.159C61.7532 110.807 62.0769 111.222 62.5781 111.222C62.9567 111.222 63.1969 111.055 63.3013 110.741L63.3065 110.726L63.7555 110.723L63.7503 110.752C63.6354 111.261 63.2569 111.624 62.5808 111.624ZM65.5777 111.624C64.7763 111.624 64.2803 111.07 64.2803 110.17V110.164C64.2803 109.261 64.7763 108.71 65.5777 108.71C66.3792 108.71 66.8752 109.261 66.8752 110.164V110.17C66.8752 111.07 66.3792 111.624 65.5777 111.624ZM65.5777 111.222C66.1103 111.222 66.4105 110.833 66.4105 110.17V110.164C66.4105 109.499 66.1103 109.112 65.5777 109.112C65.0452 109.112 64.745 109.499 64.745 110.164V110.17C64.745 110.833 65.0452 111.222 65.5777 111.222ZM68.5225 111.624C67.8829 111.624 67.554 111.248 67.554 110.582V108.76H68.0082V110.473C68.0082 110.979 68.191 111.222 68.64 111.222C69.136 111.222 69.3997 110.919 69.3997 110.426V108.76H69.8539V111.574H69.3997V111.154H69.3579C69.2195 111.454 68.935 111.624 68.5225 111.624ZM70.7024 111.574V108.76H71.1566V109.183H71.1984C71.3394 108.885 71.603 108.71 72.0181 108.71C72.6499 108.71 73.0023 109.084 73.0023 109.752V111.574H72.5481V109.862C72.5481 109.355 72.3392 109.112 71.8902 109.112C71.4412 109.112 71.1566 109.415 71.1566 109.909V111.574H70.7024ZM74.8245 111.595C74.245 111.595 74.0022 111.381 74.0022 110.843V109.136H73.5584V108.76H74.0022V108.032H74.4721V108.76H75.0882V109.136H74.4721V110.728C74.4721 111.06 74.587 111.193 74.8794 111.193C74.9603 111.193 75.0047 111.19 75.0882 111.183V111.569C74.9994 111.585 74.9133 111.595 74.8245 111.595ZM76.6807 111.624C76.0541 111.624 75.6234 111.321 75.5712 110.856H76.0359C76.1116 111.091 76.3361 111.245 76.6963 111.245C77.0749 111.245 77.3438 111.065 77.3438 110.809V110.804C77.3438 110.614 77.2002 110.48 76.853 110.397L76.417 110.292C75.8897 110.167 75.6521 109.937 75.6521 109.533V109.53C75.6521 109.063 76.1011 108.71 76.699 108.71C77.2889 108.71 77.6988 109.005 77.7615 109.465H77.3151C77.255 109.243 77.0357 109.089 76.6963 109.089C76.3622 109.089 76.1168 109.261 76.1168 109.509V109.514C76.1168 109.705 76.2578 109.825 76.5893 109.906L77.0227 110.01C77.5526 110.138 77.8085 110.368 77.8085 110.77V110.775C77.8085 111.277 77.3203 111.624 76.6807 111.624ZM80.017 111.574V108.76H80.4713V109.178H80.5131C80.6201 108.883 80.8838 108.71 81.2649 108.71C81.3511 108.71 81.4477 108.721 81.492 108.729V109.17C81.3981 109.154 81.3119 109.144 81.2127 109.144C80.7793 109.144 80.4713 109.418 80.4713 109.83V111.574H80.017ZM83.1237 111.624C82.3196 111.624 81.834 111.06 81.834 110.178V110.175C81.834 109.306 82.33 108.71 83.095 108.71C83.8599 108.71 84.3246 109.279 84.3246 110.12V110.298H82.2987C82.3118 110.88 82.6329 111.219 83.1341 111.219C83.5153 111.219 83.7502 111.039 83.8259 110.869L83.8364 110.846H84.2906L84.2854 110.867C84.1888 111.248 83.7868 111.624 83.1237 111.624ZM83.0923 109.115C82.6746 109.115 82.3561 109.4 82.3065 109.935H83.8625C83.8155 109.379 83.5074 109.115 83.0923 109.115ZM85.8022 111.624C85.267 111.624 84.8623 111.3 84.8623 110.788V110.783C84.8623 110.282 85.233 109.992 85.8883 109.953L86.695 109.903V109.648C86.695 109.3 86.4835 109.112 86.0632 109.112C85.7264 109.112 85.5045 109.238 85.4315 109.457L85.4288 109.465H84.9746L84.9772 109.449C85.0503 109.008 85.4784 108.71 86.0789 108.71C86.7655 108.71 87.1492 109.063 87.1492 109.648V111.574H86.695V111.159H86.6532C86.4757 111.459 86.1807 111.624 85.8022 111.624ZM85.327 110.778C85.327 111.063 85.5698 111.23 85.8961 111.23C86.3582 111.23 86.695 110.927 86.695 110.525V110.269L85.9431 110.316C85.515 110.342 85.327 110.493 85.327 110.773V110.778ZM89.1307 111.624C88.3423 111.624 87.8384 111.052 87.8384 110.159V110.154C87.8384 109.279 88.3397 108.71 89.1281 108.71C89.8121 108.71 90.2219 109.105 90.3055 109.606L90.3081 109.621H89.8564L89.8538 109.614C89.7833 109.337 89.5327 109.112 89.1281 109.112C88.6216 109.112 88.3031 109.52 88.3031 110.154V110.159C88.3031 110.807 88.6268 111.222 89.1281 111.222C89.5066 111.222 89.7468 111.055 89.8512 110.741L89.8564 110.726L90.3055 110.723L90.3002 110.752C90.1854 111.261 89.8068 111.624 89.1307 111.624ZM90.9973 111.574V107.643H91.4515V109.183H91.4933C91.6343 108.885 91.8979 108.71 92.313 108.71C92.9448 108.71 93.2972 109.084 93.2972 109.752V111.574H92.843V109.862C92.843 109.355 92.6341 109.112 92.1851 109.112C91.7361 109.112 91.4515 109.415 91.4515 109.909V111.574H90.9973ZM95.2682 111.624C94.4642 111.624 93.9786 111.06 93.9786 110.178V110.175C93.9786 109.306 94.4746 108.71 95.2395 108.71C96.0044 108.71 96.4691 109.279 96.4691 110.12V110.298H94.4433C94.4563 110.88 94.7774 111.219 95.2787 111.219C95.6598 111.219 95.8948 111.039 95.9705 110.869L95.9809 110.846H96.4352L96.43 110.867C96.3334 111.248 95.9313 111.624 95.2682 111.624ZM95.2369 109.115C94.8192 109.115 94.5007 109.4 94.4511 109.935H96.007C95.9601 109.379 95.652 109.115 95.2369 109.115ZM98.213 111.624C97.5003 111.624 97.033 111.047 97.033 110.17V110.164C97.033 109.282 97.4977 108.71 98.213 108.71C98.5994 108.71 98.9362 108.904 99.0902 109.204H99.1319V107.643H99.5862V111.574H99.1319V111.125H99.0902C98.9179 111.438 98.6046 111.624 98.213 111.624ZM98.3174 111.222C98.8291 111.222 99.1424 110.82 99.1424 110.17V110.164C99.1424 109.514 98.8291 109.112 98.3174 109.112C97.8031 109.112 97.4977 109.509 97.4977 110.164V110.17C97.4977 110.825 97.8031 111.222 98.3174 111.222Z" fill="#8B8B8B"/>
<path d="M48.792 133.054V130.031H48.745L47.8209 130.674V129.963L48.7946 129.287H49.5804V133.054H48.792ZM51.528 133.054V130.031H51.481L50.5568 130.674V129.963L51.5306 129.287H52.3164V133.054H51.528ZM53.5094 133.054L55.1149 129.958V129.914H53.2144V129.285H55.9086V129.922L54.3344 133.054H53.5094Z" fill="#202020"/>
<path d="M34.6556 139.5V136.675H36.3707V136.992H35.008V137.963H36.2591V138.276H35.008V139.5H34.6556ZM37.7746 139.537C37.1735 139.537 36.8015 139.122 36.8015 138.447V138.443C36.8015 137.765 37.1735 137.352 37.7746 137.352C38.3757 137.352 38.7477 137.765 38.7477 138.443V138.447C38.7477 139.122 38.3757 139.537 37.7746 139.537ZM37.7746 139.236C38.174 139.236 38.3992 138.944 38.3992 138.447V138.443C38.3992 137.943 38.174 137.654 37.7746 137.654C37.3752 137.654 37.15 137.943 37.15 138.443V138.447C37.15 138.944 37.3752 139.236 37.7746 139.236ZM39.2959 139.5V136.551H39.6366V139.5H39.2959ZM40.3102 139.5V136.551H40.6508V139.5H40.3102ZM42.1722 139.537C41.5711 139.537 41.1991 139.122 41.1991 138.447V138.443C41.1991 137.765 41.5711 137.352 42.1722 137.352C42.7733 137.352 43.1453 137.765 43.1453 138.443V138.447C43.1453 139.122 42.7733 139.537 42.1722 139.537ZM42.1722 139.236C42.5716 139.236 42.7968 138.944 42.7968 138.447V138.443C42.7968 137.943 42.5716 137.654 42.1722 137.654C41.7728 137.654 41.5476 137.943 41.5476 138.443V138.447C41.5476 138.944 41.7728 139.236 42.1722 139.236ZM44.0029 139.5L43.4116 137.389H43.7523L44.1673 139.077H44.1987L44.6705 137.389H44.9936L45.4655 139.077H45.4968L45.9119 137.389H46.2506L45.6593 139.5H45.3167L44.8448 137.867H44.8135L44.3436 139.5H44.0029ZM47.4841 139.537C46.8811 139.537 46.5169 139.114 46.5169 138.452V138.451C46.5169 137.799 46.8889 137.352 47.4626 137.352C48.0363 137.352 48.3848 137.779 48.3848 138.409V138.543H46.8654C46.8752 138.979 47.116 139.234 47.492 139.234C47.7778 139.234 47.954 139.099 48.0108 138.971L48.0186 138.954H48.3593L48.3554 138.969C48.283 139.255 47.9814 139.537 47.4841 139.537ZM47.4606 137.656C47.1474 137.656 46.9085 137.869 46.8713 138.27H48.0382C48.003 137.853 47.7719 137.656 47.4606 137.656ZM48.9134 139.5V137.389H49.2541V137.703H49.2854C49.3657 137.481 49.5635 137.352 49.8493 137.352C49.914 137.352 49.9864 137.36 50.0197 137.366V137.697C49.9492 137.685 49.8846 137.677 49.8102 137.677C49.4852 137.677 49.2541 137.883 49.2541 138.192V139.5H48.9134ZM51.1259 139.537C50.656 139.537 50.333 139.31 50.2938 138.962H50.6423C50.6991 139.138 50.8675 139.253 51.1377 139.253C51.4216 139.253 51.6233 139.118 51.6233 138.926V138.922C51.6233 138.779 51.5156 138.68 51.2552 138.617L50.9282 138.539C50.5327 138.445 50.3545 138.272 50.3545 137.969V137.967C50.3545 137.616 50.6913 137.352 51.1396 137.352C51.5821 137.352 51.8895 137.573 51.9365 137.918H51.6017C51.5567 137.752 51.3922 137.636 51.1377 137.636C50.8871 137.636 50.703 137.765 50.703 137.951V137.955C50.703 138.098 50.8087 138.188 51.0574 138.249L51.3824 138.327C51.7799 138.423 51.9718 138.595 51.9718 138.897V138.901C51.9718 139.277 51.6056 139.537 51.1259 139.537Z" fill="#8B8B8B"/>
<circle cx="54.8565" cy="138.5" r="1.33663" fill="#0194F4"/>
<g clip-path="url(#clip2_49_878)">
<path d="M77.802 121.634C74.8073 121.634 71.9024 122.656 69.5681 124.532C67.2339 126.408 65.6103 129.025 64.9661 131.95C64.3219 134.875 64.6958 137.931 66.0258 140.615C67.3559 143.298 69.5623 145.446 72.2799 146.704C74.9974 147.963 78.0632 148.255 80.9696 147.533C83.8761 146.812 86.4489 145.119 88.2622 142.736C90.0755 140.352 91.0206 137.421 90.9409 134.428C90.8613 131.434 89.7617 128.557 87.8243 126.274L85.4189 128.315C86.8914 130.05 87.7271 132.236 87.7876 134.512C87.8481 136.787 87.1299 139.014 85.7518 140.826C84.3736 142.637 82.4183 143.923 80.2094 144.472C78.0005 145.02 75.6705 144.798 73.6052 143.842C71.5398 142.886 69.8629 141.253 68.8521 139.214C67.8413 137.174 67.5572 134.851 68.0467 132.629C68.5363 130.406 69.7702 128.417 71.5443 126.991C73.3183 125.565 75.526 124.788 77.802 124.788L77.802 121.634Z" fill="#0194F4"/>
<path d="M78.0314 121.636C79.8292 121.667 81.6014 122.067 83.2384 122.811C84.8755 123.554 86.3425 124.626 87.5488 125.959L85.2096 128.076C84.2928 127.062 83.1778 126.248 81.9337 125.683C80.6895 125.117 79.3426 124.813 77.9763 124.79L78.0314 121.636Z" fill="#013767"/>
</g>
<path d="M101.267 133.138C100.361 133.138 99.7372 132.686 99.7372 132.034V132.028C99.7372 131.538 100.103 131.175 100.617 131.073V131.057C100.176 130.95 99.8756 130.632 99.8756 130.222V130.217C99.8756 129.632 100.447 129.204 101.267 129.204C102.084 129.204 102.658 129.632 102.658 130.217V130.222C102.658 130.632 102.356 130.948 101.917 131.057V131.073C102.429 131.172 102.797 131.538 102.797 132.028V132.034C102.797 132.686 102.173 133.138 101.267 133.138ZM101.267 130.82C101.627 130.82 101.878 130.606 101.878 130.298V130.292C101.878 129.984 101.625 129.773 101.267 129.773C100.907 129.773 100.654 129.984 100.654 130.292V130.298C100.654 130.606 100.904 130.82 101.267 130.82ZM101.267 132.564C101.68 132.564 101.972 132.321 101.972 131.981V131.976C101.972 131.637 101.685 131.391 101.267 131.391C100.849 131.391 100.56 131.637 100.56 131.976V131.981C100.56 132.321 100.852 132.564 101.267 132.564Z" fill="#202020"/>
<circle cx="100.748" cy="138.5" r="1.33663" fill="#013767"/>
<path d="M103.781 139.5V136.675H104.124L105.657 138.873H105.688V136.675H106.037V139.5H105.694L104.161 137.309H104.13V139.5H103.781ZM107.581 139.537C106.98 139.537 106.608 139.122 106.608 138.447V138.443C106.608 137.765 106.98 137.352 107.581 137.352C108.183 137.352 108.555 137.765 108.555 138.443V138.447C108.555 139.122 108.183 139.537 107.581 139.537ZM107.581 139.236C107.981 139.236 108.206 138.944 108.206 138.447V138.443C108.206 137.943 107.981 137.654 107.581 137.654C107.182 137.654 106.957 137.943 106.957 138.443V138.447C106.957 138.944 107.182 139.236 107.581 139.236ZM109.083 139.5V137.389H109.424V137.707H109.455C109.561 137.483 109.759 137.352 110.07 137.352C110.544 137.352 110.808 137.632 110.808 138.133V139.5H110.467V138.216C110.467 137.836 110.311 137.654 109.974 137.654C109.637 137.654 109.424 137.881 109.424 138.251V139.5H109.083ZM111.396 138.521V138.204H112.711V138.521H111.396ZM113.379 139.5V137.671H113.028V137.389H113.379V137.154C113.379 136.733 113.59 136.532 113.992 136.532C114.074 136.532 114.148 136.538 114.219 136.551V136.823C114.178 136.816 114.121 136.814 114.06 136.814C113.818 136.814 113.72 136.933 113.72 137.164V137.389H114.199V137.671H113.72V139.5H113.379ZM115.468 139.537C114.867 139.537 114.495 139.122 114.495 138.447V138.443C114.495 137.765 114.867 137.352 115.468 137.352C116.069 137.352 116.441 137.765 116.441 138.443V138.447C116.441 139.122 116.069 139.537 115.468 139.537ZM115.468 139.236C115.868 139.236 116.093 138.944 116.093 138.447V138.443C116.093 137.943 115.868 137.654 115.468 137.654C115.069 137.654 114.844 137.943 114.844 138.443V138.447C114.844 138.944 115.069 139.236 115.468 139.236ZM116.989 139.5V136.551H117.33V139.5H116.989ZM118.004 139.5V136.551H118.344V139.5H118.004ZM119.866 139.537C119.265 139.537 118.893 139.122 118.893 138.447V138.443C118.893 137.765 119.265 137.352 119.866 137.352C120.467 137.352 120.839 137.765 120.839 138.443V138.447C120.839 139.122 120.467 139.537 119.866 139.537ZM119.866 139.236C120.265 139.236 120.49 138.944 120.49 138.447V138.443C120.49 137.943 120.265 137.654 119.866 137.654C119.466 137.654 119.241 137.943 119.241 138.443V138.447C119.241 138.944 119.466 139.236 119.866 139.236ZM121.696 139.5L121.105 137.389H121.446L121.861 139.077H121.892L122.364 137.389H122.687L123.159 139.077H123.19L123.605 137.389H123.944L123.353 139.5H123.01L122.538 137.867H122.507L122.037 139.5H121.696ZM125.178 139.537C124.575 139.537 124.21 139.114 124.21 138.452V138.451C124.21 137.799 124.582 137.352 125.156 137.352C125.73 137.352 126.078 137.779 126.078 138.409V138.543H124.559C124.569 138.979 124.81 139.234 125.185 139.234C125.471 139.234 125.648 139.099 125.704 138.971L125.712 138.954H126.053L126.049 138.969C125.976 139.255 125.675 139.537 125.178 139.537ZM125.154 137.656C124.841 137.656 124.602 137.869 124.565 138.27H125.732C125.696 137.853 125.465 137.656 125.154 137.656ZM126.607 139.5V137.389H126.948V137.703H126.979C127.059 137.481 127.257 137.352 127.543 137.352C127.607 137.352 127.68 137.36 127.713 137.366V137.697C127.643 137.685 127.578 137.677 127.504 137.677C127.179 137.677 126.948 137.883 126.948 138.192V139.5H126.607ZM128.819 139.537C128.35 139.537 128.026 139.31 127.987 138.962H128.336C128.393 139.138 128.561 139.253 128.831 139.253C129.115 139.253 129.317 139.118 129.317 138.926V138.922C129.317 138.779 129.209 138.68 128.949 138.617L128.622 138.539C128.226 138.445 128.048 138.272 128.048 137.969V137.967C128.048 137.616 128.385 137.352 128.833 137.352C129.276 137.352 129.583 137.573 129.63 137.918H129.295C129.25 137.752 129.086 137.636 128.831 137.636C128.581 137.636 128.397 137.765 128.397 137.951V137.955C128.397 138.098 128.502 138.188 128.751 138.249L129.076 138.327C129.473 138.423 129.665 138.595 129.665 138.897V138.901C129.665 139.277 129.299 139.537 128.819 139.537Z" fill="#8B8B8B"/>
</g>
</g>
</g>
<defs>
<filter id="filter0_dd_49_878" x="-11.1386" y="-6.23762" width="177.277" height="252.277" filterUnits="userSpaceOnUse" color-interpolation-filters="sRGB">
<feFlood flood-opacity="0" result="BackgroundImageFix"/>
<feColorMatrix in="SourceAlpha" type="matrix" values="0 0 0 0 0 0 0 0 0 0 0 0 0 0 0 0 0 0 127 0" result="hardAlpha"/>
<feOffset/>
<feColorMatrix type="matrix" values="0 0 0 0 0.0823529 0 0 0 0 0.0823529 0 0 0 0 0.266667 0 0 0 0.1 0"/>
<feBlend mode="normal" in2="BackgroundImageFix" result="effect1_dropShadow_49_878"/>
<feColorMatrix in="SourceAlpha" type="matrix" values="0 0 0 0 0 0 0 0 0 0 0 0 0 0 0 0 0 0 127 0" result="hardAlpha"/>
<feOffset dy="4.90099"/>
<feGaussianBlur stdDeviation="5.56931"/>
<feColorMatrix type="matrix" values="0 0 0 0 0.0823529 0 0 0 0 0.0823529 0 0 0 0 0.266667 0 0 0 0.1 0"/>
<feBlend mode="normal" in2="effect1_dropShadow_49_878" result="effect2_dropShadow_49_878"/>
<feBlend mode="normal" in="SourceGraphic" in2="effect2_dropShadow_49_878" result="shape"/>
</filter>
<clipPath id="clip0_49_878">
<rect width="155" height="230" fill="white"/>
</clipPath>
<clipPath id="clip1_49_878">
<rect width="155" height="230" rx="5.34653" fill="white"/>
</clipPath>
<clipPath id="clip2_49_878">
<rect width="26.2871" height="26.2871" fill="white" transform="translate(64.6584 121.634)"/>
</clipPath>
</defs>
</svg>
