<svg width="240" height="244" viewBox="0 0 240 244" fill="none" xmlns="http://www.w3.org/2000/svg">
<path d="M236.335 125.584C238.29 60.4934 187.887 6.16596 123.757 4.24022C59.6266 2.31448 6.05446 53.5197 4.09988 118.61C2.14529 183.701 52.5484 238.028 116.678 239.954C180.808 241.88 234.381 190.674 236.335 125.584Z" fill="url(#paint0_linear_4_3363)"/>
<path d="M120.103 236.268C183.064 236.268 234.103 185.228 234.103 122.268C234.103 59.3072 183.064 8.26764 120.103 8.26764C57.1428 8.26764 6.10327 59.3072 6.10327 122.268C6.10327 185.228 57.1428 236.268 120.103 236.268Z" fill="url(#paint1_linear_4_3363)"/>
<path d="M199.883 77.6676C195.503 72.0976 187.443 71.1376 181.873 75.5176C181.873 75.5176 112.033 134.218 110.013 135.988L82.5133 111.738C76.8333 106.718 68.2133 106.288 62.0133 111.108C55.0133 116.558 54.7533 124.658 60.2033 131.658L94.4633 178.968C94.6233 179.168 94.8233 179.418 94.9933 179.618C101.913 187.758 114.123 188.748 122.263 181.828L198.943 92.6176L199.173 92.3676C203.443 87.8276 203.863 82.7176 199.893 77.6676H199.883Z" fill="white"/>
<path d="M199.883 72.6676C195.503 67.0976 187.443 66.1376 181.873 70.5176C181.873 70.5176 112.033 129.218 110.013 130.988L82.5134 106.738C76.8334 101.718 68.2134 101.288 62.0134 106.108C55.0134 111.558 53.7534 121.658 59.2034 128.658L94.4634 173.968C94.6234 174.168 94.8234 174.418 94.9934 174.618C101.913 182.758 114.123 183.748 122.263 176.828L198.943 89.6176L199.173 89.3676C203.443 84.8276 203.863 77.7176 199.893 72.6676H199.883Z" fill="#E73F85"/>
<path d="M199.883 72.6676C195.503 67.0976 187.443 66.1376 181.873 70.5176C181.873 70.5176 112.033 129.218 110.013 130.988L82.5134 106.738C76.8334 101.718 68.2134 101.288 62.0134 106.108C55.0134 111.558 53.7534 121.658 59.2034 128.658L94.4634 173.968C94.6234 174.168 94.8234 174.418 94.9934 174.618C101.913 182.758 114.123 183.748 122.263 176.828L198.943 89.6176L199.173 89.3676C203.443 84.8276 203.863 77.7176 199.893 72.6676H199.883Z" fill="url(#paint2_linear_4_3363)"/>
<g style="mix-blend-mode:multiply">
<path d="M62.0033 114.098C68.2033 109.278 76.8233 109.708 82.5033 114.728L104.673 140.158C106.513 142.268 109.703 142.468 111.793 140.618C126.953 127.188 181.863 78.5076 181.863 78.5076C187.433 74.1276 195.493 75.0876 199.873 80.6576C200.823 81.8676 201.523 83.1976 201.973 84.5876C203.263 80.6476 202.623 76.1576 199.873 72.6576C195.493 67.0876 187.433 66.1276 181.863 70.5076C181.863 70.5076 112.023 129.208 110.003 130.978L82.5033 106.728C76.8233 101.708 68.2033 101.278 62.0033 106.098C56.7833 110.158 54.7633 116.788 56.3133 122.808C57.1633 119.468 59.0733 116.378 62.0033 114.098Z" fill="#E0E0E0"/>
</g>
<defs>
<linearGradient id="paint0_linear_4_3363" x1="70.5356" y1="229.867" x2="165.569" y2="13.4333" gradientUnits="userSpaceOnUse">
<stop offset="0.17" stop-color="#A4B3BD"/>
<stop offset="0.73" stop-color="#EEF1F3"/>
<stop offset="0.85" stop-color="white"/>
</linearGradient>
<linearGradient id="paint1_linear_4_3363" x1="71.9133" y1="225.618" x2="168.293" y2="18.9276" gradientUnits="userSpaceOnUse">
<stop stop-color="#FDFDFD"/>
<stop offset="0.3" stop-color="#F4F4F4"/>
<stop offset="0.79" stop-color="#DCDCDC"/>
<stop offset="1" stop-color="#D0D0D0"/>
</linearGradient>
<linearGradient id="paint2_linear_4_3363" x1="56.0492" y1="124.853" x2="202.751" y2="124.853" gradientUnits="userSpaceOnUse">
<stop stop-color="#F7366B"/>
<stop offset="0.1547" stop-color="#E73F85"/>
<stop offset="0.5541" stop-color="#C155C3"/>
<stop offset="0.847" stop-color="#A963E9"/>
<stop offset="1" stop-color="#A068F8"/>
</linearGradient>
</defs>
</svg>
