<svg width="375" height="812" viewBox="0 0 375 812" fill="none" xmlns="http://www.w3.org/2000/svg">
<path d="M347.557 66.7542C347.557 66.7542 352.049 71.2457 353.737 72.9338C354.741 73.9386 353.887 75.5463 352.812 76.0487C351.908 76.4707 351.124 76.1793 351.124 76.1793C351.124 76.1793 351.576 79.3947 348.291 78.7616C348.291 78.7616 348.25 81.4746 345.115 80.8114C345.115 80.8114 345.115 81.7861 344.382 82.5598C343.538 83.4441 342.342 83.3838 340.956 81.9871C338.464 79.4952 330.435 71.4667 330.435 71.4667L338.775 63.1268C338.775 63.1268 346.562 62.544 348.049 61.2277C349.537 59.9115 350.843 57.5703 352.36 59.0775C353.867 60.5847 351.878 65.4982 347.567 66.7642L347.557 66.7542Z" stroke="#DCE8FF" stroke-width="1.5" stroke-miterlimit="10"/>
<path d="M337.911 59.2592L335.147 56.4954C333.845 55.1926 331.732 55.1926 330.43 56.4954L324.632 62.2931C323.329 63.5959 323.329 65.7081 324.632 67.0109L327.396 69.7747C328.699 71.0775 330.811 71.0775 332.114 69.7747L337.911 63.977C339.214 62.6742 339.214 60.562 337.911 59.2592Z" stroke="#DCE8FF" stroke-width="1.5" stroke-miterlimit="10"/>
<path d="M300.874 10.2436C298.643 8.05315 294.353 8.89719 294.353 8.89719C294.353 8.89719 295.096 4.97844 293.107 2.48652C289.369 -2.19589 282.958 0.326182 280.788 5.15931C280.406 6.02344 280.195 6.90767 280.134 7.80195C279.923 9.86181 279.873 13.7203 281.702 21.5276C281.702 21.5276 293.378 23.3363 295.438 23.1253C296.322 23.065 297.216 22.854 298.08 22.4721C302.944 20.352 305.295 14.6045 300.874 10.2436Z" stroke="#DCE8FF" stroke-width="1.5" stroke-miterlimit="10"/>
<path d="M276.959 87.0912C276.959 87.0912 281.451 91.5827 283.139 93.2708C284.144 94.2756 283.29 95.8833 282.214 96.3857C281.31 96.8077 280.526 96.5163 280.526 96.5163C280.526 96.5163 280.979 99.7317 277.693 99.0987C277.693 99.0987 277.653 101.812 274.518 101.148C274.518 101.148 274.518 102.123 273.784 102.897C272.94 103.781 271.744 103.721 270.358 102.324L259.837 91.8038L268.177 83.4639C268.177 83.4639 275.965 82.8811 277.452 81.5648C278.939 80.2485 280.245 77.9073 281.762 79.4145C283.28 80.9217 281.28 85.8352 276.969 87.1013L276.959 87.0912Z" stroke="#DCE8FF" stroke-width="1.5" stroke-miterlimit="10"/>
<path d="M267.314 79.5997L264.55 76.8358C263.247 75.533 261.135 75.533 259.832 76.8358L254.035 82.6335C252.732 83.9363 252.732 86.0485 254.035 87.3513L256.798 90.1152C258.101 91.4179 260.213 91.4179 261.516 90.1152L267.314 84.3174C268.617 83.0147 268.617 80.9025 267.314 79.5997Z" stroke="#DCE8FF" stroke-width="1.5" stroke-miterlimit="10"/>
<path d="M230.276 30.5809C228.045 28.3904 223.755 29.2345 223.755 29.2345C223.755 29.2345 224.498 25.3157 222.509 22.8238C218.771 18.1414 212.36 20.6635 210.19 25.4966C209.808 26.3607 209.597 27.245 209.537 28.1392C209.326 30.1991 209.276 34.0575 211.104 41.8649C211.104 41.8649 222.78 43.6736 224.84 43.4626C225.724 43.4023 226.619 43.1913 227.483 42.8094C232.346 40.6893 234.697 34.9418 230.276 30.5809Z" stroke="#DCE8FF" stroke-width="1.5" stroke-miterlimit="10"/>
<path d="M381.65 191.782L387.83 197.962C388.835 198.967 387.981 200.574 386.905 201.077C386.001 201.499 385.217 201.207 385.217 201.207C385.217 201.207 385.669 204.423 382.384 203.79C382.384 203.79 382.344 206.503 379.209 205.839C379.209 205.839 379.209 206.814 378.475 207.588C377.631 208.472 376.435 208.412 375.049 207.015C372.557 204.523 364.528 196.495 364.528 196.495L372.868 188.155C372.868 188.155 380.656 187.572 382.143 186.256C383.63 184.939 384.936 182.588 386.453 184.105C387.96 185.613 385.971 190.526 381.66 191.792L381.65 191.782Z" stroke="#DCE8FF" stroke-width="1.5" stroke-miterlimit="10"/>
<path d="M372.002 184.291L369.238 181.527C367.935 180.224 365.823 180.224 364.52 181.527L358.722 187.324C357.42 188.627 357.42 190.739 358.722 192.042L361.486 194.806C362.789 196.109 364.901 196.109 366.204 194.806L372.002 189.008C373.305 187.705 373.305 185.593 372.002 184.291Z" stroke="#DCE8FF" stroke-width="1.5" stroke-miterlimit="10"/>
<path d="M334.967 135.272C332.736 133.082 328.446 133.926 328.446 133.926C328.446 133.926 329.189 130.007 327.2 127.515C323.462 122.832 317.051 125.355 314.881 130.188C314.499 131.052 314.288 131.936 314.228 132.83C314.017 134.89 313.966 138.749 315.795 146.556C315.795 146.556 327.471 148.365 329.531 148.154C330.415 148.093 331.309 147.882 332.173 147.501C337.037 145.38 339.388 139.633 334.967 135.272Z" stroke="#DCE8FF" stroke-width="1.5" stroke-miterlimit="10"/>
<path d="M151.931 52.9981C151.931 52.9981 156.423 57.4896 158.111 59.1777C159.116 60.1825 158.261 61.7902 157.186 62.2926C156.282 62.7146 155.498 62.4232 155.498 62.4232C155.498 62.4232 155.95 65.6386 152.665 65.0056C152.665 65.0056 152.624 67.7186 149.489 67.0554C149.489 67.0554 149.489 68.0301 148.756 68.8038C147.912 69.688 146.716 69.6277 145.33 68.231C142.838 65.7391 134.809 57.7107 134.809 57.7107L143.149 49.3708C143.149 49.3708 150.936 48.788 152.423 47.4717C153.911 46.1554 155.217 43.8142 156.734 45.3214C158.241 46.8286 156.252 51.7421 151.941 53.0082L151.931 52.9981Z" stroke="#DCE8FF" stroke-width="1.5" stroke-miterlimit="10"/>
<path d="M142.281 45.5024L139.517 42.7385C138.215 41.4357 136.102 41.4358 134.8 42.7385L129.002 48.5363C127.699 49.839 127.699 51.9512 129.002 53.254L131.766 56.0179C133.068 57.3206 135.181 57.3207 136.483 56.0179L142.281 50.2202C143.584 48.9174 143.584 46.8052 142.281 45.5024Z" stroke="#DCE8FF" stroke-width="1.5" stroke-miterlimit="10"/>
<path d="M256.622 157.689C256.622 157.689 261.114 162.181 262.802 163.869C263.806 164.874 262.952 166.481 261.877 166.984C260.973 167.406 260.189 167.114 260.189 167.114C260.189 167.114 260.641 170.33 257.356 169.697C257.356 169.697 257.315 172.41 254.18 171.747C254.18 171.747 254.18 172.721 253.447 173.495C252.603 174.379 251.407 174.319 250.02 172.922C247.529 170.43 239.5 162.402 239.5 162.402L247.84 154.062C247.84 154.062 255.627 153.479 257.114 152.163C258.602 150.847 259.908 148.505 261.425 150.013C262.942 151.52 260.943 156.433 256.632 157.699L256.622 157.689Z" stroke="#DCE8FF" stroke-width="1.5" stroke-miterlimit="10"/>
<path d="M246.969 150.194L244.205 147.43C242.902 146.127 240.79 146.127 239.487 147.43L233.69 153.227C232.387 154.53 232.387 156.642 233.69 157.945L236.454 160.709C237.756 162.012 239.869 162.012 241.171 160.709L246.969 154.911C248.272 153.609 248.272 151.496 246.969 150.194Z" stroke="#DCE8FF" stroke-width="1.5" stroke-miterlimit="10"/>
<path d="M209.939 101.169C207.708 98.9781 203.417 99.8222 203.417 99.8222C203.417 99.8222 204.161 95.9034 202.171 93.4115C198.434 88.7291 192.023 91.2512 189.853 96.0843C189.471 96.9484 189.26 97.8327 189.199 98.7269C188.988 100.787 188.938 104.645 190.767 112.453C190.767 112.453 202.443 114.261 204.503 114.05C205.387 113.99 206.281 113.779 207.145 113.397C212.009 111.277 214.36 105.529 209.939 101.169Z" stroke="#DCE8FF" stroke-width="1.5" stroke-miterlimit="10"/>
<path d="M361.313 262.38C361.313 262.38 365.804 266.872 367.493 268.56C368.497 269.565 367.643 271.172 366.568 271.675C365.664 272.097 364.88 271.805 364.88 271.805C364.88 271.805 365.332 275.021 362.046 274.388C362.046 274.388 362.006 277.101 358.871 276.437C358.871 276.437 358.871 277.412 358.138 278.186C357.294 279.07 356.098 279.01 354.711 277.613L344.191 267.093L352.531 258.753C352.531 258.753 360.318 258.17 361.805 256.854C363.292 255.537 364.599 253.196 366.116 254.703C367.623 256.211 365.634 261.124 361.323 262.39L361.313 262.38Z" stroke="#DCE8FF" stroke-width="1.5" stroke-miterlimit="10"/>
<path d="M351.667 254.884L348.903 252.121C347.6 250.818 345.488 250.818 344.185 252.121L338.388 257.918C337.085 259.221 337.085 261.333 338.388 262.636L341.151 265.4C342.454 266.703 344.566 266.703 345.869 265.4L351.667 259.602C352.97 258.299 352.97 256.187 351.667 254.884Z" stroke="#DCE8FF" stroke-width="1.5" stroke-miterlimit="10"/>
<path d="M314.63 205.86C312.399 203.669 308.108 204.513 308.108 204.513C308.108 204.513 308.852 200.595 306.863 198.103C303.125 193.42 296.714 195.942 294.544 200.775C294.162 201.64 293.951 202.524 293.89 203.418C293.679 205.478 295.458 217.144 295.458 217.144C295.458 217.144 307.134 218.952 309.194 218.741C310.078 218.681 310.972 218.47 311.836 218.088C316.7 215.968 319.051 210.221 314.63 205.86Z" stroke="#DCE8FF" stroke-width="1.5" stroke-miterlimit="10"/>
<path d="M81.3333 73.3354C81.3333 73.3354 85.8249 77.8269 87.5129 79.515C88.5177 80.5198 87.6636 82.1275 86.5885 82.6299C85.6842 83.0519 84.9004 82.7605 84.9004 82.7605C84.9004 82.7605 85.3526 85.9759 82.0669 85.3429C82.0669 85.3429 82.0267 88.0559 78.8917 87.3927C78.8917 87.3927 78.8917 88.3673 78.1581 89.1411C77.3141 90.0253 76.1184 89.965 74.7318 88.5683C72.2399 86.0764 64.2114 78.048 64.2114 78.048L72.5513 69.7081C72.5513 69.7081 80.3386 69.1253 81.8257 67.809C83.3128 66.4927 84.6191 64.1515 86.1363 65.6587C87.6435 67.1659 85.654 72.0794 81.3434 73.3455L81.3333 73.3354Z" stroke="#DCE8FF" stroke-width="1.5" stroke-miterlimit="10"/>
<path d="M71.6839 65.843L68.92 63.0791C67.6173 61.7763 65.505 61.7763 64.2023 63.0791L58.4046 68.8768C57.1018 70.1796 57.1018 72.2918 58.4046 73.5946L61.1684 76.3585C62.4712 77.6612 64.5834 77.6612 65.8862 76.3584L71.6839 70.5607C72.9867 69.258 72.9867 67.1457 71.6839 65.843Z" stroke="#DCE8FF" stroke-width="1.5" stroke-miterlimit="10"/>
<path d="M34.65 16.815C32.4193 14.6246 28.1288 15.4686 28.1288 15.4686C28.1288 15.4686 28.8723 11.5499 26.8828 9.05793C23.1449 4.37553 16.7342 6.89759 14.5639 11.7307C14.182 12.5949 13.971 13.4791 13.9107 14.3734C13.6997 16.4332 13.6495 20.2917 15.4782 28.099C15.4782 28.099 27.1541 29.9077 29.2139 29.6967C30.0982 29.6364 30.9925 29.4254 31.8566 29.0436C36.7199 26.9234 39.0711 21.1759 34.65 16.815Z" stroke="#DCE8FF" stroke-width="1.5" stroke-miterlimit="10"/>
<path d="M186.024 178.026C186.024 178.026 190.516 182.518 192.204 184.206C193.209 185.211 192.355 186.818 191.279 187.321C190.375 187.743 189.591 187.451 189.591 187.451C189.591 187.451 190.044 190.667 186.758 190.034C186.758 190.034 186.718 192.747 183.583 192.084C183.583 192.084 183.583 193.058 182.849 193.832C182.005 194.716 180.809 194.656 179.423 193.259L168.902 182.739L177.242 174.399C177.242 174.399 185.03 173.816 186.517 172.5C188.004 171.184 189.31 168.842 190.827 170.35C192.334 171.857 190.345 176.77 186.034 178.036L186.024 178.026Z" stroke="#DCE8FF" stroke-width="1.5" stroke-miterlimit="10"/>
<path d="M176.372 170.534L173.608 167.77C172.305 166.467 170.193 166.467 168.89 167.77L163.092 173.568C161.79 174.871 161.79 176.983 163.092 178.286L165.856 181.05C167.159 182.352 169.271 182.352 170.574 181.05L176.372 175.252C177.675 173.949 177.675 171.837 176.372 170.534Z" stroke="#DCE8FF" stroke-width="1.5" stroke-miterlimit="10"/>
<path d="M139.341 121.506C137.11 119.315 132.82 120.16 132.82 120.16C132.82 120.16 133.563 116.241 131.574 113.749C127.836 109.066 121.425 111.589 119.255 116.422C118.873 117.286 118.662 118.17 118.602 119.064C118.391 121.124 118.34 124.983 120.169 132.79C120.169 132.79 131.845 134.599 133.905 134.388C134.789 134.327 135.683 134.116 136.548 133.734C141.411 131.614 143.762 125.867 139.341 121.506Z" stroke="#DCE8FF" stroke-width="1.5" stroke-miterlimit="10"/>
<path d="M290.715 282.717C290.715 282.717 295.207 287.209 296.895 288.897C297.9 289.901 297.045 291.509 295.97 292.012C295.066 292.434 294.282 292.142 294.282 292.142C294.282 292.142 294.734 295.358 291.449 294.725C291.449 294.725 291.409 297.438 288.274 296.774C288.274 296.774 288.274 297.749 287.54 298.523C286.696 299.407 285.5 299.347 284.114 297.95C281.622 295.458 273.593 287.43 273.593 287.43L281.933 279.09C281.933 279.09 289.72 278.507 291.208 277.191C292.695 275.874 294.001 273.533 295.518 275.04C297.035 276.548 295.036 281.461 290.725 282.727L290.715 282.717Z" stroke="#DCE8FF" stroke-width="1.5" stroke-miterlimit="10"/>
<path d="M281.07 275.225L278.306 272.461C277.003 271.158 274.891 271.158 273.588 272.461L267.79 278.259C266.488 279.562 266.488 281.674 267.79 282.977L270.554 285.74C271.857 287.043 273.969 287.043 275.272 285.74L281.07 279.943C282.372 278.64 282.372 276.528 281.07 275.225Z" stroke="#DCE8FF" stroke-width="1.5" stroke-miterlimit="10"/>
<path d="M244.032 226.197C241.801 224.006 237.511 224.85 237.511 224.85C237.511 224.85 238.254 220.932 236.265 218.44C232.527 213.757 226.116 216.279 223.946 221.112C223.564 221.977 223.353 222.861 223.293 223.755C223.082 225.815 224.86 237.481 224.86 237.481C224.86 237.481 236.536 239.289 238.596 239.078C239.48 239.018 240.374 238.807 241.238 238.425C246.102 236.305 248.453 230.558 244.032 226.197Z" stroke="#DCE8FF" stroke-width="1.5" stroke-miterlimit="10"/>
<path d="M385.757 379.916L382.994 377.152C381.691 375.849 379.579 375.849 378.276 377.152L372.478 382.95C371.175 384.253 371.175 386.365 372.478 387.668L375.242 390.432C376.545 391.734 378.657 391.734 379.96 390.432L385.757 384.634C387.06 383.331 387.06 381.219 385.757 379.916Z" stroke="#DCE8FF" stroke-width="1.5" stroke-miterlimit="10"/>
<path d="M348.723 330.888C346.492 328.697 342.202 329.541 342.202 329.541C342.202 329.541 342.945 325.622 340.956 323.131C337.218 318.448 330.807 320.97 328.637 325.803C328.255 326.667 328.044 327.552 327.983 328.446C327.772 330.506 327.722 334.364 329.551 342.172C329.551 342.172 341.227 343.98 343.287 343.769C344.171 343.709 345.065 343.498 345.929 343.116C350.793 340.996 353.144 335.249 348.723 330.888Z" stroke="#DCE8FF" stroke-width="1.5" stroke-miterlimit="10"/>
<path d="M60.9961 143.923C60.9961 143.923 65.4876 148.415 67.1756 150.103C68.1805 151.108 67.3264 152.715 66.2512 153.218C65.3469 153.64 64.5631 153.348 64.5631 153.348C64.5631 153.348 65.0153 156.564 61.7296 155.931C61.7296 155.931 61.6894 158.644 58.5544 157.98C58.5544 157.98 58.5544 158.955 57.8209 159.729C56.9768 160.613 55.7811 160.553 54.3945 159.156C51.9026 156.664 43.8742 148.636 43.8742 148.636L52.2141 140.296C52.2141 140.296 60.0013 139.713 61.4884 138.397C62.9755 137.08 64.2818 134.739 65.7991 136.246C67.3063 137.754 65.3168 142.667 61.0061 143.933L60.9961 143.923Z" stroke="#DCE8FF" stroke-width="1.5" stroke-miterlimit="10"/>
<path d="M51.3461 136.434L48.5823 133.67C47.2795 132.367 45.1673 132.367 43.8645 133.67L38.0668 139.468C36.764 140.771 36.764 142.883 38.0668 144.186L40.8306 146.95C42.1334 148.252 44.2456 148.252 45.5484 146.95L51.3461 141.152C52.6489 139.849 52.6489 137.737 51.3461 136.434Z" stroke="#DCE8FF" stroke-width="1.5" stroke-miterlimit="10"/>
<path d="M14.3127 87.4129C12.082 85.2224 7.79145 86.0664 7.79145 86.0664C7.79145 86.0664 8.53502 82.1477 6.5455 79.6558C2.80762 74.9734 -3.60307 77.4954 -5.77345 82.3286C-6.15528 83.1927 -6.36628 84.0769 -6.42657 84.9712C-6.63758 87.0311 -6.68782 90.8895 -4.85907 98.6969C-4.85907 98.6969 6.81681 100.506 8.87666 100.295C9.76089 100.234 10.6552 100.023 11.5193 99.6414C16.3826 97.5213 18.7338 91.7737 14.3127 87.4129Z" stroke="#DCE8FF" stroke-width="1.5" stroke-miterlimit="10"/>
<path d="M165.687 248.614L171.867 254.794C172.871 255.798 172.017 257.406 170.942 257.909C170.038 258.331 169.254 258.039 169.254 258.039C169.254 258.039 169.706 261.255 166.421 260.622C166.421 260.622 166.38 263.335 163.245 262.671C163.245 262.671 163.245 263.646 162.512 264.42C161.668 265.304 160.472 265.244 159.085 263.847C156.593 261.355 148.565 253.327 148.565 253.327L156.905 244.987C156.905 244.987 164.692 244.404 166.179 243.088C167.666 241.771 168.973 239.43 170.49 240.937C172.007 242.445 170.008 247.358 165.697 248.624L165.687 248.614Z" stroke="#DCE8FF" stroke-width="1.5" stroke-miterlimit="10"/>
<path d="M156.034 241.125L153.27 238.361C151.967 237.058 149.855 237.058 148.552 238.361L142.755 244.159C141.452 245.462 141.452 247.574 142.755 248.877L145.518 251.64C146.821 252.943 148.933 252.943 150.236 251.64L156.034 245.843C157.337 244.54 157.337 242.428 156.034 241.125Z" stroke="#DCE8FF" stroke-width="1.5" stroke-miterlimit="10"/>
<path d="M119.004 192.104C116.773 189.913 112.482 190.757 112.482 190.757C112.482 190.757 113.226 186.839 111.236 184.347C107.499 179.664 101.088 182.186 98.9175 187.019C98.5356 187.884 98.3246 188.768 98.2643 189.662C98.0533 191.722 98.0031 195.58 99.8318 203.388C99.8318 203.388 111.508 205.196 113.568 204.985C114.452 204.925 115.346 204.714 116.21 204.332C121.073 202.212 123.425 196.465 119.004 192.104Z" stroke="#DCE8FF" stroke-width="1.5" stroke-miterlimit="10"/>
<path d="M270.378 353.305C270.378 353.305 274.869 357.797 276.557 359.485C277.562 360.489 276.708 362.097 275.633 362.6C274.729 363.022 273.945 362.73 273.945 362.73C273.945 362.73 274.397 365.946 271.111 365.313C271.111 365.313 271.071 368.026 267.936 367.362C267.936 367.362 267.936 368.337 267.203 369.111C266.359 369.995 265.163 369.935 263.776 368.538C261.284 366.046 253.256 358.018 253.256 358.018L261.596 349.678C261.596 349.678 269.383 349.095 270.87 347.779C272.357 346.462 273.664 344.111 275.181 345.628C276.688 347.136 274.699 352.049 270.388 353.315L270.378 353.305Z" stroke="#DCE8FF" stroke-width="1.5" stroke-miterlimit="10"/>
<path d="M260.732 345.816L257.968 343.052C256.665 341.749 254.553 341.749 253.25 343.052L247.453 348.85C246.15 350.153 246.15 352.265 247.453 353.567L250.216 356.331C251.519 357.634 253.631 357.634 254.934 356.331L260.732 350.534C262.035 349.231 262.035 347.119 260.732 345.816Z" stroke="#DCE8FF" stroke-width="1.5" stroke-miterlimit="10"/>
<path d="M223.695 296.795C221.464 294.604 217.173 295.448 217.173 295.448C217.173 295.448 217.917 291.53 215.927 289.038C212.189 284.355 205.779 286.877 203.608 291.711C203.227 292.575 203.016 293.459 202.955 294.353C202.744 296.413 202.694 300.272 204.523 308.079C204.523 308.079 216.199 309.888 218.258 309.677C219.143 309.616 220.037 309.405 220.901 309.023C225.764 306.903 228.116 301.156 223.695 296.795Z" stroke="#DCE8FF" stroke-width="1.5" stroke-miterlimit="10"/>
<path d="M375.069 457.996L381.248 464.176C382.253 465.18 381.399 466.788 380.324 467.291C379.42 467.713 378.636 467.421 378.636 467.421C378.636 467.421 379.088 470.637 375.802 470.003C375.802 470.003 375.762 472.716 372.627 472.053C372.627 472.053 372.627 473.028 371.894 473.802C371.05 474.686 369.854 474.626 368.467 473.229L357.947 462.709L366.287 454.369C366.287 454.369 374.074 453.786 375.561 452.47C377.048 451.153 378.355 448.812 379.872 450.319C381.389 451.827 379.39 456.74 375.079 458.006L375.069 457.996Z" stroke="#DCE8FF" stroke-width="1.5" stroke-miterlimit="10"/>
<path d="M365.42 450.507L362.656 447.743C361.353 446.44 359.241 446.44 357.938 447.743L352.14 453.541C350.837 454.843 350.837 456.956 352.14 458.258L354.904 461.022C356.207 462.325 358.319 462.325 359.622 461.022L365.42 455.224C366.722 453.922 366.722 451.809 365.42 450.507Z" stroke="#DCE8FF" stroke-width="1.5" stroke-miterlimit="10"/>
<path d="M328.385 401.486C326.155 399.295 321.864 400.139 321.864 400.139C321.864 400.139 322.608 396.221 320.618 393.729C316.88 389.046 310.47 391.568 308.299 396.401C307.917 397.266 307.706 398.15 307.646 399.044C307.435 401.104 307.385 404.962 309.214 412.77C309.214 412.77 320.89 414.578 322.949 414.367C323.834 414.307 324.728 414.096 325.592 413.714C330.455 411.594 332.807 405.847 328.385 401.486Z" stroke="#DCE8FF" stroke-width="1.5" stroke-miterlimit="10"/>
<path d="M95.0992 268.951C95.0992 268.951 99.5907 273.443 101.279 275.131C102.284 276.136 101.43 277.743 100.354 278.246C99.4501 278.668 98.6663 278.376 98.6663 278.376C98.6663 278.376 99.1185 281.592 95.8328 280.959C95.8328 280.959 95.7926 283.672 92.6576 283.009C92.6576 283.009 92.6575 283.983 91.924 284.757C91.08 285.641 89.8843 285.581 88.4976 284.184L77.9773 273.664L86.3172 265.324C86.3172 265.324 94.1045 264.741 95.5916 263.425C97.0787 262.109 98.385 259.757 99.9022 261.275C101.409 262.782 99.4199 267.695 95.1093 268.961L95.0992 268.951Z" stroke="#DCE8FF" stroke-width="1.5" stroke-miterlimit="10"/>
<path d="M85.4367 261.465L82.6729 258.702C81.3701 257.399 79.2579 257.399 77.9551 258.702L72.1574 264.499C70.8546 265.802 70.8546 267.914 72.1574 269.217L74.9212 271.981C76.224 273.284 78.3362 273.284 79.639 271.981L85.4367 266.183C86.7395 264.88 86.7395 262.768 85.4367 261.465Z" stroke="#DCE8FF" stroke-width="1.5" stroke-miterlimit="10"/>
<path d="M48.4158 212.441C46.1852 210.251 41.8946 211.095 41.8946 211.095C41.8946 211.095 42.6382 207.176 40.6487 204.684C36.9108 200.001 30.5001 202.524 28.3297 207.357C27.9479 208.221 27.7369 209.105 27.6766 209.999C27.4656 212.059 27.4153 215.918 29.2441 223.725C29.2441 223.725 40.92 225.534 42.9798 225.323C43.864 225.262 44.7583 225.051 45.6225 224.67C50.4857 222.549 52.837 216.802 48.4158 212.441Z" stroke="#DCE8FF" stroke-width="1.5" stroke-miterlimit="10"/>
<path d="M199.79 373.642C199.79 373.642 204.282 378.134 205.97 379.822C206.975 380.827 206.12 382.435 205.045 382.937C204.141 383.359 203.357 383.068 203.357 383.068C203.357 383.068 203.809 386.283 200.524 385.65C200.524 385.65 200.483 388.363 197.348 387.7C197.348 387.7 197.348 388.674 196.615 389.448C195.771 390.332 194.575 390.272 193.189 388.875C190.697 386.383 182.668 378.355 182.668 378.355L191.008 370.015C191.008 370.015 198.795 369.432 200.283 368.116C201.77 366.8 203.076 364.448 204.593 365.966C206.11 367.483 204.111 372.386 199.8 373.652L199.79 373.642Z" stroke="#DCE8FF" stroke-width="1.5" stroke-miterlimit="10"/>
<path d="M190.135 366.156L187.371 363.392C186.068 362.09 183.956 362.09 182.653 363.392L176.855 369.19C175.552 370.493 175.552 372.605 176.855 373.908L179.619 376.672C180.922 377.975 183.034 377.975 184.337 376.672L190.135 370.874C191.437 369.571 191.437 367.459 190.135 366.156Z" stroke="#DCE8FF" stroke-width="1.5" stroke-miterlimit="10"/>
<path d="M153.107 317.132C150.876 314.941 146.586 315.785 146.586 315.785C146.586 315.785 147.329 311.867 145.34 309.375C141.602 304.692 135.191 307.214 133.021 312.048C132.639 312.912 132.428 313.796 132.367 314.69C132.156 316.75 132.106 320.609 133.935 328.416C133.935 328.416 145.611 330.225 147.671 330.014C148.555 329.953 149.449 329.742 150.313 329.36C155.177 327.24 157.528 321.493 153.107 317.132Z" stroke="#DCE8FF" stroke-width="1.5" stroke-miterlimit="10"/>
<path d="M304.481 478.333C304.481 478.333 308.973 482.825 310.661 484.513C311.665 485.518 310.811 487.125 309.736 487.628C308.832 488.05 308.048 487.758 308.048 487.758C308.048 487.758 308.5 490.974 305.215 490.341C305.215 490.341 305.174 493.054 302.039 492.391C302.039 492.391 302.039 493.365 301.306 494.139C300.462 495.023 299.266 494.963 297.879 493.566C295.388 491.074 287.359 483.046 287.359 483.046L295.699 474.706C295.699 474.706 303.486 474.123 304.973 472.807C306.461 471.491 307.767 469.149 309.284 470.657C310.791 472.164 308.802 477.077 304.491 478.343L304.481 478.333Z" stroke="#DCE8FF" stroke-width="1.5" stroke-miterlimit="10"/>
<path d="M294.822 470.847L292.058 468.083C290.756 466.781 288.643 466.781 287.341 468.083L281.543 473.881C280.24 475.184 280.24 477.296 281.543 478.599L284.307 481.363C285.61 482.665 287.722 482.665 289.025 481.363L294.822 475.565C296.125 474.262 296.125 472.15 294.822 470.847Z" stroke="#DCE8FF" stroke-width="1.5" stroke-miterlimit="10"/>
<path d="M257.798 421.823C255.567 419.632 251.276 420.476 251.276 420.476C251.276 420.476 252.02 416.558 250.031 414.066C246.293 409.383 239.882 411.905 237.712 416.738C237.33 417.603 237.119 418.487 237.058 419.381C236.847 421.441 236.797 425.299 238.626 433.107C238.626 433.107 250.302 434.915 252.362 434.704C253.246 434.644 254.14 434.433 255.004 434.051C259.868 431.931 262.219 426.184 257.798 421.823Z" stroke="#DCE8FF" stroke-width="1.5" stroke-miterlimit="10"/>
<path d="M362.489 526.514C360.258 524.323 355.967 525.167 355.967 525.167C355.967 525.167 356.711 521.248 354.721 518.757C350.984 514.074 344.573 516.596 342.402 521.429C342.021 522.293 341.81 523.178 341.749 524.072C341.538 526.132 341.488 529.99 343.317 537.798C343.317 537.798 354.993 539.606 357.053 539.395C357.937 539.335 358.831 539.124 359.695 538.742C364.558 536.622 366.91 530.875 362.489 526.514Z" stroke="#DCE8FF" stroke-width="1.5" stroke-miterlimit="10"/>
<path d="M74.762 339.549L80.9415 345.729C81.9463 346.734 81.0922 348.341 80.0171 348.844C79.1128 349.266 78.329 348.974 78.329 348.974C78.329 348.974 78.7812 352.19 75.4954 351.557C75.4954 351.557 75.4553 354.27 72.3203 353.606C72.3203 353.606 72.3203 354.581 71.5868 355.355C70.7427 356.239 69.547 356.179 68.1604 354.782C65.6684 352.29 57.64 344.262 57.64 344.262L65.9799 335.922C65.9799 335.922 73.7672 335.339 75.2543 334.023C76.7414 332.706 78.0477 330.365 79.5649 331.872C81.0722 333.38 79.0826 338.293 74.772 339.559L74.762 339.549Z" stroke="#DCE8FF" stroke-width="1.5" stroke-miterlimit="10"/>
<path d="M65.109 332.066L62.3451 329.303C61.0423 328 58.9301 328 57.6273 329.303L51.8296 335.1C50.5268 336.403 50.5268 338.515 51.8296 339.818L54.5934 342.582C55.8962 343.885 58.0084 343.885 59.3112 342.582L65.1089 336.784C66.4117 335.481 66.4117 333.369 65.109 332.066Z" stroke="#DCE8FF" stroke-width="1.5" stroke-miterlimit="10"/>
<path d="M28.0785 283.039C25.8479 280.848 21.5574 281.692 21.5574 281.692C21.5574 281.692 22.3009 277.774 20.3114 275.282C16.5735 270.599 10.1628 273.121 7.99245 277.955C7.61062 278.819 7.39962 279.703 7.33933 280.597C7.12832 282.657 7.07808 286.516 8.90683 294.323C8.90683 294.323 20.5827 296.132 22.6425 295.921C23.5268 295.86 24.421 295.649 25.2852 295.267C30.1485 293.147 32.4997 287.4 28.0785 283.039Z" stroke="#DCE8FF" stroke-width="1.5" stroke-miterlimit="10"/>
<path d="M179.453 444.24C179.453 444.24 183.944 448.731 185.632 450.42C186.637 451.424 185.783 453.032 184.708 453.534C183.804 453.956 183.02 453.665 183.02 453.665C183.02 453.665 183.472 456.88 180.186 456.247C180.186 456.247 180.146 458.96 177.011 458.297C177.011 458.297 177.011 459.272 176.278 460.046C175.434 460.93 174.238 460.87 172.851 459.473L162.331 448.953L170.671 440.613C170.671 440.613 178.458 440.03 179.945 438.714C181.432 437.397 182.739 435.056 184.256 436.563C185.763 438.07 183.774 442.984 179.463 444.25L179.453 444.24Z" stroke="#DCE8FF" stroke-width="1.5" stroke-miterlimit="10"/>
<path d="M169.797 436.757L167.033 433.993C165.73 432.691 163.618 432.691 162.315 433.993L156.517 439.791C155.215 441.094 155.215 443.206 156.517 444.509L159.281 447.273C160.584 448.576 162.696 448.576 163.999 447.273L169.797 441.475C171.099 440.172 171.099 438.06 169.797 436.757Z" stroke="#DCE8FF" stroke-width="1.5" stroke-miterlimit="10"/>
<path d="M132.769 387.73C130.539 385.539 126.248 386.384 126.248 386.384C126.248 386.384 126.992 382.465 125.002 379.973C121.264 375.29 114.854 377.813 112.683 382.646C112.302 383.51 112.091 384.394 112.03 385.288C111.819 387.348 111.769 391.207 113.598 399.014C113.598 399.014 125.274 400.823 127.333 400.612C128.218 400.551 129.112 400.34 129.976 399.959C134.839 397.838 137.191 392.091 132.769 387.73Z" stroke="#DCE8FF" stroke-width="1.5" stroke-miterlimit="10"/>
<path d="M284.144 548.931C284.144 548.931 288.635 553.423 290.323 555.111C291.328 556.115 290.474 557.723 289.399 558.226C288.494 558.648 287.711 558.356 287.711 558.356C287.711 558.356 288.163 561.572 284.877 560.939C284.877 560.939 284.837 563.652 281.702 562.988C281.702 562.988 281.702 563.963 280.968 564.737C280.124 565.621 278.929 565.561 277.542 564.164C275.05 561.672 267.022 553.644 267.022 553.644L275.362 545.304C275.362 545.304 283.149 544.721 284.636 543.405C286.123 542.088 287.429 539.737 288.947 541.254C290.464 542.772 288.464 547.675 284.154 548.941L284.144 548.931Z" stroke="#DCE8FF" stroke-width="1.5" stroke-miterlimit="10"/>
<path d="M274.485 541.448L271.721 538.684C270.418 537.382 268.306 537.382 267.003 538.684L261.205 544.482C259.902 545.785 259.902 547.897 261.205 549.2L263.969 551.964C265.272 553.266 267.384 553.266 268.687 551.964L274.485 546.166C275.787 544.863 275.787 542.751 274.485 541.448Z" stroke="#DCE8FF" stroke-width="1.5" stroke-miterlimit="10"/>
<path d="M237.46 492.421C235.23 490.23 230.939 491.074 230.939 491.074C230.939 491.074 231.683 487.156 229.693 484.664C225.955 479.981 219.545 482.503 217.374 487.337C216.992 488.201 216.781 489.085 216.721 489.979C216.51 492.039 216.46 495.897 218.289 503.705C218.289 503.705 229.965 505.513 232.024 505.302C232.909 505.242 233.803 505.031 234.667 504.649C239.53 502.529 241.882 496.782 237.46 492.421Z" stroke="#DCE8FF" stroke-width="1.5" stroke-miterlimit="10"/>
<path d="M388.835 653.622C388.835 653.622 393.326 658.113 395.014 659.802C396.019 660.806 395.165 662.414 394.09 662.916C393.185 663.339 392.402 663.047 392.402 663.047C392.402 663.047 392.854 666.262 389.568 665.629C389.568 665.629 389.528 668.342 386.393 667.679C386.393 667.679 386.393 668.654 385.659 669.428C384.815 670.312 383.62 670.252 382.233 668.855L371.713 658.335L380.053 649.995C380.053 649.995 387.84 649.412 389.327 648.096C390.814 646.779 392.12 644.428 393.638 645.945C395.145 647.452 393.155 652.366 388.845 653.632L388.835 653.622Z" stroke="#DCE8FF" stroke-width="1.5" stroke-miterlimit="10"/>
<path d="M379.182 646.139L376.419 643.375C375.116 642.072 373.004 642.072 371.701 643.375L365.903 649.173C364.6 650.476 364.6 652.588 365.903 653.891L368.667 656.655C369.97 657.957 372.082 657.957 373.385 656.655L379.182 650.857C380.485 649.554 380.485 647.442 379.182 646.139Z" stroke="#DCE8FF" stroke-width="1.5" stroke-miterlimit="10"/>
<path d="M342.151 597.112C339.921 594.921 335.63 595.765 335.63 595.765C335.63 595.765 336.374 591.847 334.384 589.355C330.646 584.672 324.236 587.194 322.065 592.027C321.683 592.892 321.472 593.776 321.412 594.67C321.201 596.73 321.151 600.588 322.98 608.396C322.98 608.396 334.655 610.204 336.715 609.993C337.6 609.933 338.494 609.722 339.358 609.34C344.221 607.22 346.572 601.473 342.151 597.112Z" stroke="#DCE8FF" stroke-width="1.5" stroke-miterlimit="10"/>
<path d="M4.16405 359.886C4.16405 359.886 8.65554 364.378 10.3436 366.066C11.3484 367.071 10.4944 368.678 9.41921 369.181C8.51488 369.603 7.73111 369.312 7.73111 369.312C7.73111 369.312 8.18329 372.527 4.89757 371.894C4.89757 371.894 4.85738 374.607 1.72238 373.944C1.72238 373.944 1.72237 374.918 0.988857 375.692C0.144818 376.576 -1.05091 376.516 -2.43754 375.119C-4.92946 372.627 -12.9579 364.599 -12.9579 364.599L-4.61796 356.259C-4.61796 356.259 3.16928 355.676 4.6564 354.36C6.14351 353.044 7.44977 350.692 8.96703 352.21C10.4742 353.717 8.48474 358.63 4.17411 359.896L4.16405 359.886Z" stroke="#DCE8FF" stroke-width="1.5" stroke-miterlimit="10"/>
<path d="M108.855 464.578C108.855 464.578 113.346 469.069 115.035 470.757C116.039 471.762 115.185 473.37 114.11 473.872C113.206 474.294 112.422 474.003 112.422 474.003C112.422 474.003 112.874 477.218 109.588 476.585C109.588 476.585 109.548 479.298 106.413 478.635C106.413 478.635 106.413 479.609 105.68 480.383C104.836 481.267 103.64 481.207 102.253 479.81L91.733 469.29L100.073 460.95C100.073 460.95 107.86 460.367 109.347 459.051C110.834 457.735 112.141 455.384 113.658 456.901C115.165 458.408 113.176 463.321 108.865 464.588L108.855 464.578Z" stroke="#DCE8FF" stroke-width="1.5" stroke-miterlimit="10"/>
<path d="M99.2065 457.091L96.4426 454.327C95.1399 453.024 93.0276 453.024 91.7249 454.327L85.9271 460.125C84.6243 461.427 84.6243 463.54 85.9271 464.842L88.691 467.606C89.9938 468.909 92.106 468.909 93.4087 467.606L99.2065 461.808C100.509 460.506 100.509 458.393 99.2065 457.091Z" stroke="#DCE8FF" stroke-width="1.5" stroke-miterlimit="10"/>
<path d="M62.1717 408.067C59.941 405.877 55.6505 406.721 55.6505 406.721C55.6505 406.721 56.394 402.802 54.4045 400.31C50.6666 395.628 44.2559 398.15 42.0856 402.983C41.7037 403.847 41.4927 404.731 41.4324 405.625C41.2214 407.685 41.1712 411.544 42.9999 419.351C42.9999 419.351 54.6758 421.16 56.7357 420.949C57.6199 420.888 58.5142 420.677 59.3783 420.296C64.2416 418.175 66.5928 412.428 62.1717 408.067Z" stroke="#DCE8FF" stroke-width="1.5" stroke-miterlimit="10"/>
<path d="M213.546 569.268C213.546 569.268 218.037 573.76 219.725 575.448C220.73 576.453 219.876 578.061 218.801 578.563C217.897 578.985 217.113 578.694 217.113 578.694C217.113 578.694 217.565 581.909 214.279 581.276C214.279 581.276 214.239 583.989 211.104 583.326C211.104 583.326 211.104 584.3 210.371 585.074C209.527 585.958 208.331 585.898 206.944 584.501C204.452 582.009 196.424 573.981 196.424 573.981L204.764 565.641C204.764 565.641 212.551 565.058 214.038 563.742C215.525 562.426 216.832 560.085 218.349 561.592C219.866 563.099 217.867 568.012 213.556 569.279L213.546 569.268Z" stroke="#DCE8FF" stroke-width="1.5" stroke-miterlimit="10"/>
<path d="M203.894 561.782L201.131 559.018C199.828 557.715 197.716 557.715 196.413 559.018L190.615 564.816C189.312 566.118 189.312 568.231 190.615 569.533L193.379 572.297C194.682 573.6 196.794 573.6 198.097 572.297L203.894 566.5C205.197 565.197 205.197 563.085 203.894 561.782Z" stroke="#DCE8FF" stroke-width="1.5" stroke-miterlimit="10"/>
<path d="M166.863 512.758C164.632 510.567 160.341 511.411 160.341 511.411C160.341 511.411 161.085 507.493 159.095 505.001C155.358 500.318 148.947 502.84 146.777 507.674C146.395 508.538 146.184 509.422 146.123 510.316C145.912 512.376 145.862 516.235 147.691 524.042C147.691 524.042 159.367 525.85 161.427 525.639C162.311 525.579 163.205 525.368 164.069 524.986C168.933 522.866 171.284 517.119 166.863 512.758Z" stroke="#DCE8FF" stroke-width="1.5" stroke-miterlimit="10"/>
<path d="M318.237 673.959L324.416 680.139C325.421 681.144 324.567 682.751 323.492 683.254C322.588 683.676 321.804 683.384 321.804 683.384C321.804 683.384 322.256 686.6 318.97 685.967C318.97 685.967 318.93 688.68 315.795 688.017C315.795 688.017 315.795 688.991 315.062 689.765C314.218 690.649 313.022 690.589 311.635 689.192L301.115 678.672L309.455 670.332C309.455 670.332 317.242 669.749 318.729 668.433C320.216 667.117 321.523 664.775 323.04 666.283C324.557 667.79 322.558 672.703 318.247 673.969L318.237 673.959Z" stroke="#DCE8FF" stroke-width="1.5" stroke-miterlimit="10"/>
<path d="M308.592 666.473L305.828 663.709C304.526 662.406 302.413 662.406 301.111 663.709L295.313 669.507C294.01 670.809 294.01 672.922 295.313 674.224L298.077 676.988C299.38 678.291 301.492 678.291 302.795 676.988L308.592 671.19C309.895 669.888 309.895 667.775 308.592 666.473Z" stroke="#DCE8FF" stroke-width="1.5" stroke-miterlimit="10"/>
<path d="M271.554 617.449C269.323 615.258 265.032 616.102 265.032 616.102C265.032 616.102 265.776 612.184 263.786 609.692C260.048 605.009 253.638 607.531 251.467 612.365C251.086 613.229 250.875 614.113 250.814 615.007C250.603 617.067 250.553 620.925 252.382 628.733C252.382 628.733 264.058 630.541 266.118 630.33C267.002 630.27 267.896 630.059 268.76 629.677C273.623 627.557 275.975 621.81 271.554 617.449Z" stroke="#DCE8FF" stroke-width="1.5" stroke-miterlimit="10"/>
<path d="M376.244 722.14C374.014 719.949 369.723 720.793 369.723 720.793C369.723 720.793 370.467 716.875 368.477 714.383C364.739 709.7 358.329 712.222 356.158 717.056C355.777 717.92 355.565 718.804 355.505 719.698C355.294 721.758 355.244 725.617 357.073 733.424C357.073 733.424 368.749 735.233 370.808 735.021C371.693 734.961 372.587 734.75 373.451 734.368C378.314 732.248 380.666 726.501 376.244 722.14Z" stroke="#DCE8FF" stroke-width="1.5" stroke-miterlimit="10"/>
<path d="M88.5177 535.175C88.5177 535.175 93.0092 539.667 94.6973 541.355C95.7021 542.359 94.848 543.967 93.7728 544.47C92.8685 544.892 92.0848 544.6 92.0848 544.6C92.0848 544.6 92.5369 547.816 89.2512 547.183C89.2512 547.183 89.211 549.896 86.076 549.232C86.076 549.232 86.076 550.207 85.3425 550.981C84.4985 551.865 83.3027 551.805 81.9161 550.408L71.3958 539.888L79.7357 531.548C79.7357 531.548 87.5229 530.965 89.01 529.649C90.4972 528.332 91.8034 525.991 93.3207 527.498C94.8279 529.006 92.8383 533.919 88.5277 535.185L88.5177 535.175Z" stroke="#DCE8FF" stroke-width="1.5" stroke-miterlimit="10"/>
<path d="M78.8687 527.682L76.1049 524.918C74.8021 523.615 72.6899 523.615 71.3871 524.918L65.5894 530.715C64.2866 532.018 64.2866 534.13 65.5894 535.433L68.3533 538.197C69.656 539.5 71.7682 539.5 73.071 538.197L78.8688 532.399C80.1715 531.097 80.1715 528.984 78.8687 527.682Z" stroke="#DCE8FF" stroke-width="1.5" stroke-miterlimit="10"/>
<path d="M41.8343 478.665C39.6036 476.475 35.3131 477.319 35.3131 477.319C35.3131 477.319 36.0567 473.4 34.0671 470.908C30.3293 466.226 23.9186 468.748 21.7482 473.581C21.3664 474.445 21.1554 475.329 21.0951 476.223C20.8841 478.283 20.8338 482.142 22.6626 489.949C22.6626 489.949 34.3384 491.758 36.3983 491.547C37.2825 491.486 38.1768 491.275 39.0409 490.894C43.9042 488.773 46.2554 483.026 41.8343 478.665Z" stroke="#DCE8FF" stroke-width="1.5" stroke-miterlimit="10"/>
<path d="M193.209 639.866C193.209 639.866 197.7 644.358 199.388 646.046C200.393 647.051 199.539 648.658 198.464 649.161C197.559 649.583 196.776 649.291 196.776 649.291C196.776 649.291 197.228 652.507 193.942 651.874C193.942 651.874 193.902 654.587 190.767 653.923C190.767 653.923 190.767 654.898 190.033 655.672C189.189 656.556 187.994 656.496 186.607 655.099L176.087 644.579L184.427 636.239C184.427 636.239 192.214 635.656 193.701 634.34C195.188 633.023 196.494 630.672 198.012 632.189C199.529 633.707 197.529 638.61 193.219 639.876L193.209 639.866Z" stroke="#DCE8FF" stroke-width="1.5" stroke-miterlimit="10"/>
<path d="M183.567 632.373L180.803 629.609C179.5 628.306 177.388 628.306 176.085 629.609L170.287 635.406C168.984 636.709 168.984 638.821 170.287 640.124L173.051 642.888C174.354 644.191 176.466 644.191 177.769 642.888L183.567 637.09C184.869 635.788 184.869 633.675 183.567 632.373Z" stroke="#DCE8FF" stroke-width="1.5" stroke-miterlimit="10"/>
<path d="M146.525 583.356C144.295 581.165 140.004 582.009 140.004 582.009C140.004 582.009 140.748 578.091 138.758 575.599C135.02 570.916 128.609 573.438 126.439 578.272C126.057 579.136 125.846 580.02 125.786 580.914C125.575 582.974 125.525 586.833 127.353 594.64C127.353 594.64 139.029 596.449 141.089 596.238C141.973 596.177 142.868 595.966 143.732 595.584C148.595 593.464 150.946 587.717 146.525 583.356Z" stroke="#DCE8FF" stroke-width="1.5" stroke-miterlimit="10"/>
<path d="M297.9 744.557C297.9 744.557 302.391 749.049 304.079 750.737C305.084 751.741 304.23 753.349 303.155 753.852C302.25 754.274 301.467 753.982 301.467 753.982C301.467 753.982 301.919 757.198 298.633 756.564C298.633 756.564 298.593 759.277 295.458 758.614C295.458 758.614 295.458 759.589 294.724 760.363C293.88 761.247 292.685 761.187 291.298 759.79L280.778 749.27L289.118 740.93C289.118 740.93 296.905 740.347 298.392 739.031C299.879 737.714 301.185 735.363 302.703 736.88C304.21 738.388 302.22 743.301 297.91 744.567L297.9 744.557Z" stroke="#DCE8FF" stroke-width="1.5" stroke-miterlimit="10"/>
<path d="M288.254 737.063L285.49 734.299C284.188 732.997 282.075 732.997 280.773 734.299L274.975 740.097C273.672 741.4 273.672 743.512 274.975 744.815L277.739 747.579C279.042 748.882 281.154 748.882 282.457 747.579L288.254 741.781C289.557 740.478 289.557 738.366 288.254 737.063Z" stroke="#DCE8FF" stroke-width="1.5" stroke-miterlimit="10"/>
<path d="M251.216 688.047C248.985 685.856 244.695 686.7 244.695 686.7C244.695 686.7 245.438 682.782 243.449 680.29C239.711 675.607 233.3 678.129 231.13 682.963C230.748 683.827 230.537 684.711 230.477 685.605C230.266 687.665 230.216 691.524 232.044 699.331C232.044 699.331 243.72 701.139 245.78 700.928C246.664 700.868 247.559 700.657 248.423 700.275C253.286 698.155 255.637 692.408 251.216 688.047Z" stroke="#DCE8FF" stroke-width="1.5" stroke-miterlimit="10"/>
<path d="M355.907 792.738C353.676 790.547 349.386 791.391 349.386 791.391C349.386 791.391 350.129 787.472 348.14 784.981C344.402 780.298 337.991 782.82 335.821 787.653C335.439 788.517 335.228 789.402 335.168 790.296C334.957 792.356 334.907 796.214 336.735 804.022C336.735 804.022 348.411 805.83 350.471 805.619C351.355 805.559 352.25 805.348 353.114 804.966C357.977 802.846 360.328 797.098 355.907 792.738Z" stroke="#DCE8FF" stroke-width="1.5" stroke-miterlimit="10"/>
<path d="M17.9199 555.513L24.0995 561.692C25.1043 562.697 24.2502 564.305 23.175 564.807C22.2707 565.229 21.487 564.938 21.487 564.938C21.487 564.938 21.9391 568.153 18.6534 567.52C18.6534 567.52 18.6132 570.233 15.4782 569.57C15.4782 569.57 15.4782 570.545 14.7447 571.318C13.9007 572.203 12.705 572.142 11.3183 570.746L0.797987 560.225L9.13791 551.885C9.13791 551.885 16.9252 551.303 18.4123 549.986C19.8994 548.67 21.2056 546.329 22.7229 547.836C24.2301 549.343 22.2406 554.257 17.93 555.523L17.9199 555.513Z" stroke="#DCE8FF" stroke-width="1.5" stroke-miterlimit="10"/>
<path d="M8.27153 548.022L5.50765 545.258C4.20487 543.955 2.09269 543.956 0.789917 545.258L-5.00782 551.056C-6.31059 552.359 -6.31064 554.471 -5.00786 555.774L-2.24398 558.538C-0.941207 559.84 1.17102 559.84 2.47379 558.538L8.27153 552.74C9.5743 551.437 9.5743 549.325 8.27153 548.022Z" stroke="#DCE8FF" stroke-width="1.5" stroke-miterlimit="10"/>
<path d="M122.611 660.204C122.611 660.204 127.102 664.695 128.79 666.383C129.795 667.388 128.941 668.996 127.866 669.498C126.962 669.92 126.178 669.629 126.178 669.629C126.178 669.629 126.63 672.844 123.344 672.211C123.344 672.211 123.304 674.924 120.169 674.261C120.169 674.261 120.169 675.236 119.436 676.009C118.592 676.894 117.396 676.833 116.009 675.437C113.517 672.945 105.489 664.916 105.489 664.916L113.829 656.576C113.829 656.576 121.616 655.994 123.103 654.677C124.59 653.361 125.897 651.01 127.414 652.527C128.931 654.044 126.931 658.948 122.621 660.214L122.611 660.204Z" stroke="#DCE8FF" stroke-width="1.5" stroke-miterlimit="10"/>
<path d="M112.969 652.713L110.205 649.949C108.903 648.646 106.79 648.646 105.488 649.949L99.6899 655.747C98.3872 657.05 98.3871 659.162 99.6899 660.465L102.454 663.228C103.757 664.531 105.869 664.531 107.172 663.228L112.969 657.431C114.272 656.128 114.272 654.016 112.969 652.713Z" stroke="#DCE8FF" stroke-width="1.5" stroke-miterlimit="10"/>
<path d="M75.9274 603.693C73.6967 601.503 69.4062 602.347 69.4062 602.347C69.4062 602.347 70.1498 598.428 68.1603 595.936C64.4224 591.253 58.0117 593.776 55.8413 598.609C55.4595 599.473 55.2485 600.357 55.1882 601.251C54.9772 603.311 54.927 607.17 56.7557 614.977C56.7557 614.977 68.4316 616.786 70.4914 616.575C71.3757 616.514 72.2699 616.303 73.1341 615.922C77.9973 613.801 80.3486 608.054 75.9274 603.693Z" stroke="#DCE8FF" stroke-width="1.5" stroke-miterlimit="10"/>
<path d="M227.302 764.894L233.481 771.074C234.486 772.079 233.632 773.687 232.557 774.189C231.653 774.611 230.869 774.32 230.869 774.32C230.869 774.32 231.321 777.535 228.035 776.902C228.035 776.902 227.995 779.615 224.86 778.952C224.86 778.952 224.86 779.926 224.127 780.7C223.283 781.584 222.087 781.524 220.7 780.127L210.18 769.607L218.52 761.267C218.52 761.267 226.307 760.684 227.794 759.368C229.281 758.052 230.587 755.71 232.105 757.218C233.622 758.725 231.622 763.638 227.312 764.905L227.302 764.894Z" stroke="#DCE8FF" stroke-width="1.5" stroke-miterlimit="10"/>
<path d="M217.657 757.404L214.893 754.64C213.59 753.337 211.478 753.337 210.175 754.64L204.378 760.438C203.075 761.741 203.075 763.853 204.378 765.156L207.142 767.919C208.444 769.222 210.557 769.222 211.859 767.919L217.657 762.122C218.96 760.819 218.96 758.707 217.657 757.404Z" stroke="#DCE8FF" stroke-width="1.5" stroke-miterlimit="10"/>
<path d="M180.618 708.384C178.388 706.193 174.097 707.037 174.097 707.037C174.097 707.037 174.841 703.119 172.851 700.627C169.113 695.944 162.703 698.466 160.532 703.3C160.15 704.164 159.939 705.048 159.879 705.942C159.668 708.002 159.618 711.861 161.447 719.668C161.447 719.668 173.123 721.476 175.182 721.265C176.067 721.205 176.961 720.994 177.825 720.612C182.688 718.492 185.039 712.745 180.618 708.384Z" stroke="#DCE8FF" stroke-width="1.5" stroke-miterlimit="10"/>
<path d="M-2.41736 626.11C-2.41736 626.11 2.07412 630.602 3.7622 632.29C4.76701 633.295 3.91291 634.902 2.83776 635.405C1.93344 635.827 1.14969 635.535 1.14969 635.535C1.14969 635.535 1.60185 638.751 -1.68387 638.118C-1.68387 638.118 -1.72407 640.831 -4.85907 640.168C-4.85907 640.168 -4.85905 641.142 -5.59256 641.916C-6.4366 642.8 -7.63232 642.74 -9.01896 641.343C-11.5109 638.851 -19.5393 630.823 -19.5393 630.823L-11.1994 622.483C-11.1994 622.483 -3.41213 621.9 -1.92501 620.584C-0.437899 619.268 0.86836 616.926 2.38562 618.434C3.89283 619.941 1.90329 624.854 -2.40733 626.12L-2.41736 626.11Z" stroke="#DCE8FF" stroke-width="1.5" stroke-miterlimit="10"/>
<path d="M102.273 730.801L108.453 736.981C109.458 737.986 108.604 739.593 107.529 740.096C106.624 740.518 105.84 740.226 105.84 740.226C105.84 740.226 106.293 743.442 103.007 742.809C103.007 742.809 102.967 745.522 99.8317 744.859C99.8317 744.859 99.8317 745.833 99.0982 746.607C98.2542 747.491 97.0585 747.431 95.6718 746.034C93.1799 743.542 85.1515 735.514 85.1515 735.514L93.4914 727.174C93.4914 727.174 101.279 726.591 102.766 725.275C104.253 723.959 105.559 721.617 107.076 723.125C108.584 724.632 106.594 729.545 102.283 730.811L102.273 730.801Z" stroke="#DCE8FF" stroke-width="1.5" stroke-miterlimit="10"/>
<path d="M92.6243 723.307L89.8604 720.543C88.5577 719.24 86.4455 719.24 85.1427 720.543L79.345 726.341C78.0422 727.644 78.0422 729.756 79.3449 731.059L82.1088 733.823C83.4116 735.125 85.5238 735.125 86.8266 733.823L92.6243 728.025C93.9271 726.722 93.9271 724.61 92.6243 723.307Z" stroke="#DCE8FF" stroke-width="1.5" stroke-miterlimit="10"/>
<path d="M55.5901 674.281C53.3595 672.09 49.0689 672.934 49.0689 672.934C49.0689 672.934 49.8125 669.016 47.823 666.524C44.0851 661.841 37.6744 664.363 35.504 669.196C35.1222 670.061 34.9112 670.945 34.8509 671.839C34.6399 673.899 34.5897 677.757 36.4184 685.565C36.4184 685.565 48.0943 687.373 50.1541 687.162C51.0384 687.102 51.9326 686.891 52.7968 686.509C57.66 684.389 60.0113 678.642 55.5901 674.281Z" stroke="#DCE8FF" stroke-width="1.5" stroke-miterlimit="10"/>
<path d="M160.281 778.972C158.05 776.781 153.76 777.625 153.76 777.625C153.76 777.625 154.503 773.706 152.514 771.215C148.776 766.532 142.365 769.054 140.195 773.887C139.813 774.751 139.602 775.636 139.542 776.53C139.331 778.59 139.281 782.448 141.109 790.256C141.109 790.256 152.785 792.064 154.845 791.853C155.729 791.793 156.624 791.582 157.488 791.2C162.351 789.08 164.702 783.333 160.281 778.972Z" stroke="#DCE8FF" stroke-width="1.5" stroke-miterlimit="10"/>
<path d="M31.6757 751.139L37.8552 757.318C38.86 758.323 38.0059 759.931 36.9308 760.433C36.0265 760.855 35.2427 760.564 35.2427 760.564C35.2427 760.564 35.6949 763.779 32.4091 763.146C32.4091 763.146 32.369 765.859 29.234 765.196C29.234 765.196 29.234 766.171 28.5005 766.944C27.6564 767.829 26.4607 767.768 25.0741 766.372C22.5821 763.88 14.5537 755.851 14.5537 755.851L22.8936 747.511C22.8936 747.511 30.6809 746.929 32.168 745.612C33.6551 744.296 34.9614 741.945 36.4786 743.462C37.9959 744.979 35.9963 749.883 31.6857 751.149L31.6757 751.139Z" stroke="#DCE8FF" stroke-width="1.5" stroke-miterlimit="10"/>
<path d="M22.027 743.647L19.2632 740.883C17.9604 739.581 15.8482 739.581 14.5454 740.883L8.74767 746.681C7.4449 747.984 7.4449 750.096 8.74767 751.399L11.5115 754.163C12.8143 755.466 14.9265 755.466 16.2293 754.163L22.027 748.365C23.3298 747.062 23.3298 744.95 22.027 743.647Z" stroke="#DCE8FF" stroke-width="1.5" stroke-miterlimit="10"/>
<path d="M89.6832 799.309C87.4525 797.119 83.162 797.963 83.162 797.963C83.162 797.963 83.9055 794.044 81.916 791.552C78.1781 786.87 71.7674 789.392 69.5971 794.225C69.2152 795.089 69.0042 795.973 68.9439 796.867C68.7329 798.927 68.6827 802.786 70.5114 810.593C70.5114 810.593 82.1873 812.402 84.2472 812.191C85.1314 812.13 86.0257 811.919 86.8898 811.538C91.7531 809.417 94.1043 803.67 89.6832 799.309Z" stroke="#DCE8FF" stroke-width="1.5" stroke-miterlimit="10"/>
</svg>
