<svg width="155" height="230" viewBox="0 0 155 230" fill="none" xmlns="http://www.w3.org/2000/svg">
<g clip-path="url(#clip0_49_877)">
<g filter="url(#filter0_dd_49_877)">
<g clip-path="url(#clip1_49_877)">
<rect width="155" height="230" rx="5.34653" fill="white"/>
<rect width="133.614" height="220.99" transform="translate(10.6931 10.6931)" fill="white"/>
<path d="M63.3104 20.9208V15.2701H64.493V20.9208H63.3104ZM65.7501 20.9208V16.6093H66.8935V17.2751H66.964C67.1598 16.8091 67.5866 16.5154 68.2014 16.5154C69.1608 16.5154 69.6777 17.1028 69.6777 18.1326V20.9208H68.5343V18.3911C68.5343 17.7841 68.2837 17.463 67.7433 17.463C67.2146 17.463 66.8935 17.8429 66.8935 18.4263V20.9208H65.7501ZM72.5011 21.0108C71.3302 21.0108 70.6645 20.4861 70.5823 19.746L70.5784 19.7303H71.7023L71.7101 19.746C71.8002 20.0123 72.0625 20.2042 72.5129 20.2042C72.9514 20.2042 73.249 20.0162 73.249 19.7303V19.7225C73.249 19.4915 73.0767 19.3466 72.6382 19.2487L71.9176 19.096C71.0953 18.9197 70.688 18.5164 70.688 17.8703V17.8664C70.688 17.0558 71.4086 16.5154 72.4854 16.5154C73.6171 16.5154 74.2437 17.0793 74.2907 17.7724V17.788H73.2295L73.2255 17.7685C73.1629 17.5374 72.9084 17.322 72.4815 17.322C72.086 17.322 71.8041 17.5061 71.8041 17.7959V17.7998C71.8041 18.0308 71.9646 18.164 72.411 18.2619L73.1277 18.4146C73.9892 18.5986 74.3925 18.9589 74.3925 19.5972V19.6011C74.3925 20.4548 73.6054 21.0108 72.5011 21.0108ZM75.9119 15.9476C75.5594 15.9476 75.2657 15.6656 75.2657 15.3132C75.2657 14.9568 75.5594 14.6749 75.9119 14.6749C76.2643 14.6749 76.5541 14.9568 76.5541 15.3132C76.5541 15.6656 76.2643 15.9476 75.9119 15.9476ZM75.3362 20.9208V16.6093H76.4797V20.9208H75.3362ZM79.5341 22.4362C78.3397 22.4362 77.6466 21.935 77.5526 21.2027V21.1831H78.6843L78.6883 21.1988C78.7509 21.4494 79.0485 21.6217 79.5576 21.6217C80.1685 21.6217 80.5248 21.3359 80.5248 20.8346V20.0319H80.4543C80.2155 20.4861 79.7612 20.7328 79.1621 20.7328C78.0774 20.7328 77.4078 19.8948 77.4078 18.6691V18.6613C77.4078 17.3925 78.0774 16.5389 79.1817 16.5389C79.773 16.5389 80.235 16.8286 80.4661 17.3142H80.5209V16.6093H81.6644V20.7876C81.6644 21.7979 80.8381 22.4362 79.5341 22.4362ZM79.5498 19.8556C80.1685 19.8556 80.5366 19.374 80.5366 18.6652V18.6574C80.5366 17.9486 80.1646 17.4669 79.5498 17.4669C78.935 17.4669 78.5786 17.9486 78.5786 18.6574V18.6652C78.5786 19.374 78.931 19.8556 79.5498 19.8556ZM82.847 20.9208V14.9607H83.9904V17.2751H84.0609C84.2567 16.8091 84.6835 16.5154 85.2983 16.5154C86.2577 16.5154 86.7746 17.1028 86.7746 18.1326V20.9208H85.6312V18.3911C85.6312 17.7841 85.3806 17.463 84.8402 17.463C84.3115 17.463 83.9904 17.8429 83.9904 18.4263V20.9208H82.847ZM89.6724 20.9364C88.6229 20.9364 88.2 20.5958 88.2 19.7577V17.4709H87.5343V16.6093H88.2V15.5795H89.3552V16.6093H90.2441V17.4709H89.3552V19.4954C89.3552 19.8831 89.5197 20.0554 89.9074 20.0554C90.0562 20.0554 90.1345 20.0475 90.2441 20.0358V20.8855C90.1032 20.9129 89.8917 20.9364 89.6724 20.9364ZM92.8717 21.0108C91.7009 21.0108 91.0351 20.4861 90.9529 19.746L90.949 19.7303H92.0729L92.0807 19.746C92.1708 20.0123 92.4331 20.2042 92.8835 20.2042C93.322 20.2042 93.6197 20.0162 93.6197 19.7303V19.7225C93.6197 19.4915 93.4474 19.3466 93.0088 19.2487L92.2882 19.096C91.4659 18.9197 91.0586 18.5164 91.0586 17.8703V17.8664C91.0586 17.0558 91.7792 16.5154 92.8561 16.5154C93.9878 16.5154 94.6143 17.0793 94.6613 17.7724V17.788H93.6001L93.5962 17.7685C93.5335 17.5374 93.279 17.322 92.8521 17.322C92.4566 17.322 92.1747 17.5061 92.1747 17.7959V17.7998C92.1747 18.0308 92.3352 18.164 92.7816 18.2619L93.4983 18.4146C94.3598 18.5986 94.7631 18.9589 94.7631 19.5972V19.6011C94.7631 20.4548 93.976 21.0108 92.8717 21.0108Z" fill="#202020"/>
<rect x="10.6931" y="25.8416" width="134.218" height="0.445545" fill="#F5F5FC"/>
<rect x="16.0396" y="162.178" width="123.525" height="0.445545" fill="#F5F5FC"/>
<rect x="10.6931" y="65.495" width="134.218" height="1.78218" fill="#F5F5FC"/>
<path d="M29.9901 39.2676C30.2872 39.4391 30.2872 39.8678 29.9901 40.0393L25.3119 42.7403C25.0149 42.9118 24.6436 42.6974 24.6436 42.3544L24.6436 36.9525C24.6436 36.6095 25.0149 36.3951 25.3119 36.5666L29.9901 39.2676Z" fill="#202020"/>
<path d="M16.6055 49.5544V46.3095H16.5638L15.6057 47.0039V46.5079L16.6081 45.7873H17.0754V49.5544H16.6055ZM19.425 49.6432C18.5922 49.6432 18.0962 48.8835 18.0962 47.6722V47.667C18.0962 46.4556 18.5922 45.6986 19.425 45.6986C20.2578 45.6986 20.759 46.4556 20.759 47.667V47.6722C20.759 48.8835 20.2578 49.6432 19.425 49.6432ZM19.425 49.2333C19.9654 49.2333 20.2865 48.6329 20.2865 47.6722V47.667C20.2865 46.7063 19.9654 46.111 19.425 46.111C18.8846 46.111 18.5687 46.7063 18.5687 47.667V47.6722C18.5687 48.6329 18.8846 49.2333 19.425 49.2333ZM22.7927 49.6432C21.9599 49.6432 21.4639 48.8835 21.4639 47.6722V47.667C21.4639 46.4556 21.9599 45.6986 22.7927 45.6986C23.6255 45.6986 24.1267 46.4556 24.1267 47.667V47.6722C24.1267 48.8835 23.6255 49.6432 22.7927 49.6432ZM22.7927 49.2333C23.3331 49.2333 23.6542 48.6329 23.6542 47.6722V47.667C23.6542 46.7063 23.3331 46.111 22.7927 46.111C22.2523 46.111 21.9364 46.7063 21.9364 47.667V47.6722C21.9364 48.6329 22.2523 49.2333 22.7927 49.2333ZM26.6198 49.5544V48.7739H24.7846V48.3457C25.2937 47.4921 25.8706 46.5731 26.3979 45.7873H27.0793V48.3536H27.6145V48.7739H27.0793V49.5544H26.6198ZM25.2649 48.3562H26.6225V46.2233H26.5911C26.1682 46.8551 25.6748 47.633 25.2649 48.3248V48.3562ZM29.5724 45.6986C30.2616 45.6986 30.99 46.1841 30.99 47.6017V47.6069C30.99 48.8913 30.4548 49.6432 29.5411 49.6432C28.9093 49.6432 28.4394 49.2725 28.3115 48.7164L28.3037 48.6825H28.7762L28.7867 48.7112C28.9015 49.0271 29.1652 49.2229 29.5463 49.2229C30.2303 49.2229 30.5097 48.5546 30.5384 47.7688C30.541 47.7401 30.541 47.7087 30.541 47.68H30.4914C30.353 47.9881 29.998 48.2622 29.4889 48.2622C28.7814 48.2622 28.2541 47.7244 28.2541 47.0013V46.996C28.2541 46.2442 28.8128 45.6986 29.5724 45.6986ZM29.5698 47.8523C30.058 47.8523 30.4287 47.4947 30.4287 47.0039V47.0013C30.4287 46.5052 30.0554 46.1137 29.5777 46.1137C29.1051 46.1137 28.7266 46.4974 28.7266 46.9856V46.9908C28.7266 47.4921 29.0817 47.8523 29.5698 47.8523ZM33.0759 49.6432C32.3867 49.6432 31.6583 49.1576 31.6583 47.7401V47.7348C31.6583 46.4504 32.1935 45.6986 33.1072 45.6986C33.739 45.6986 34.2089 46.0693 34.3368 46.6253L34.3446 46.6593H33.8721L33.8617 46.6306C33.7468 46.3147 33.4831 46.1189 33.102 46.1189C32.418 46.1189 32.1387 46.7872 32.11 47.573C32.1074 47.6017 32.1074 47.633 32.1074 47.6617H32.157C32.2953 47.3537 32.6504 47.0796 33.1594 47.0796C33.8669 47.0796 34.3942 47.6174 34.3942 48.3405V48.3457C34.3942 49.0976 33.8356 49.6432 33.0759 49.6432ZM32.2196 48.3405C32.2196 48.8365 32.5929 49.2281 33.0707 49.2281C33.5432 49.2281 33.9217 48.8444 33.9217 48.3562V48.351C33.9217 47.8497 33.5667 47.4894 33.0785 47.4894C32.5903 47.4894 32.2196 47.8471 32.2196 48.3379V48.3405ZM36.3861 49.6432C35.6839 49.6432 35.1827 49.1916 35.1278 48.5885L35.1252 48.5598H35.5769L35.5795 48.5807C35.6238 48.9409 35.9502 49.2281 36.3914 49.2281C36.8926 49.2281 37.2372 48.8705 37.2372 48.3614V48.3562C37.2372 47.8549 36.8874 47.4973 36.3992 47.4973C36.1486 47.4973 35.9345 47.573 35.7727 47.727C35.7074 47.7897 35.6473 47.8628 35.6003 47.9515H35.1931L35.3915 45.7873H37.4878V46.2076H35.7622L35.6343 47.4816H35.6761C35.8431 47.2284 36.1381 47.09 36.4801 47.09C37.1876 47.09 37.6967 47.62 37.6967 48.3483V48.3536C37.6967 49.1132 37.1511 49.6432 36.3861 49.6432Z" fill="#202020"/>
<path d="M60.3494 37.5035C60.0265 37.1661 59.5834 36.9802 59.1017 36.9802C58.7416 36.9802 58.4119 37.0899 58.1216 37.3062C57.9751 37.4153 57.8424 37.5489 57.7254 37.7048C57.6084 37.5489 57.4756 37.4153 57.3291 37.3062C57.0389 37.0899 56.7091 36.9802 56.349 36.9802C55.8674 36.9802 55.4242 37.1661 55.1014 37.5035C54.7823 37.8369 54.6066 38.2925 54.6066 38.7863C54.6066 39.2945 54.8032 39.7597 55.2252 40.2504C55.6028 40.6893 56.1455 41.1349 56.7739 41.6508C56.9885 41.827 57.2317 42.0267 57.4842 42.2395C57.551 42.2958 57.6366 42.3268 57.7254 42.3268C57.8141 42.3268 57.8998 42.2958 57.9664 42.2396C58.219 42.0268 58.4623 41.827 58.677 41.6507C59.3053 41.1348 59.848 40.6893 60.2256 40.2504C60.6476 39.7597 60.8442 39.2945 60.8442 38.7862C60.8442 38.2925 60.6684 37.8369 60.3494 37.5035Z" fill="#202020"/>
<path d="M50.9821 49.6432C50.2799 49.6432 49.7786 49.1916 49.7238 48.5885L49.7212 48.5598H50.1728L50.1755 48.5807C50.2198 48.9409 50.5462 49.2281 50.9874 49.2281C51.4886 49.2281 51.8332 48.8705 51.8332 48.3614V48.3562C51.8332 47.8549 51.4834 47.4973 50.9952 47.4973C50.7446 47.4973 50.5305 47.573 50.3686 47.727C50.3034 47.7897 50.2433 47.8628 50.1963 47.9515H49.7891L49.9875 45.7873H52.0838V46.2076H50.3582L50.2303 47.4816H50.272C50.4391 47.2284 50.7341 47.09 51.0761 47.09C51.7836 47.09 52.2927 47.62 52.2927 48.3483V48.3536C52.2927 49.1132 51.747 49.6432 50.9821 49.6432ZM54.3368 49.6171C53.5379 49.6171 52.9688 49.1681 52.9688 48.5363V48.5311C52.9688 48.0664 53.2951 47.68 53.7781 47.5678V47.5573C53.3656 47.4294 53.1046 47.1161 53.1046 46.7193V46.7141C53.1046 46.145 53.6241 45.7247 54.3368 45.7247C55.0495 45.7247 55.569 46.145 55.569 46.7141V46.7193C55.569 47.1161 55.3079 47.4294 54.8954 47.5573V47.5678C55.3784 47.68 55.7047 48.0664 55.7047 48.5311V48.5363C55.7047 49.1681 55.1356 49.6171 54.3368 49.6171ZM54.3368 47.3824C54.791 47.3824 55.1017 47.124 55.1017 46.7585V46.7533C55.1017 46.3878 54.791 46.1293 54.3368 46.1293C53.8825 46.1293 53.5719 46.3878 53.5719 46.7533V46.7585C53.5719 47.124 53.8825 47.3824 54.3368 47.3824ZM54.3368 49.2072C54.8563 49.2072 55.227 48.9148 55.227 48.5076V48.5024C55.227 48.0899 54.8589 47.7949 54.3368 47.7949C53.8146 47.7949 53.4465 48.0899 53.4465 48.5024V48.5076C53.4465 48.9148 53.8173 49.2072 54.3368 49.2072ZM57.7514 49.6171C56.9526 49.6171 56.3835 49.1681 56.3835 48.5363V48.5311C56.3835 48.0664 56.7098 47.68 57.1928 47.5678V47.5573C56.7803 47.4294 56.5192 47.1161 56.5192 46.7193V46.7141C56.5192 46.145 57.0388 45.7247 57.7514 45.7247C58.4641 45.7247 58.9837 46.145 58.9837 46.7141V46.7193C58.9837 47.1161 58.7226 47.4294 58.3101 47.5573V47.5678C58.7931 47.68 59.1194 48.0664 59.1194 48.5311V48.5363C59.1194 49.1681 58.5503 49.6171 57.7514 49.6171ZM57.7514 47.3824C58.2057 47.3824 58.5164 47.124 58.5164 46.7585V46.7533C58.5164 46.3878 58.2057 46.1293 57.7514 46.1293C57.2972 46.1293 56.9865 46.3878 56.9865 46.7533V46.7585C56.9865 47.124 57.2972 47.3824 57.7514 47.3824ZM57.7514 49.2072C58.271 49.2072 58.6417 48.9148 58.6417 48.5076V48.5024C58.6417 48.0899 58.2736 47.7949 57.7514 47.7949C57.2293 47.7949 56.8612 48.0899 56.8612 48.5024V48.5076C56.8612 48.9148 57.2319 49.2072 57.7514 49.2072ZM61.5995 49.5544V48.7739H59.7642V48.3457C60.2733 47.4921 60.8502 46.5731 61.3776 45.7873H62.059V48.3536H62.5941V48.7739H62.059V49.5544H61.5995ZM60.2446 48.3562H61.6021V46.2233H61.5708C61.1479 46.8551 60.6544 47.633 60.2446 48.3248V48.3562ZM63.3199 49.5544V49.2307L64.5939 47.8523C65.0742 47.3328 65.2152 47.137 65.2152 46.8081V46.8029C65.2152 46.406 64.9463 46.1084 64.5025 46.1084C64.0509 46.1084 63.7506 46.4034 63.7506 46.8472L63.748 46.8525L63.299 46.8498L63.2938 46.8472C63.2964 46.1789 63.8133 45.6986 64.5338 45.6986C65.1917 45.6986 65.6955 46.145 65.6955 46.7533V46.7585C65.6955 47.1892 65.5102 47.5025 64.8288 48.2048L63.9725 49.0898V49.1315H65.7582V49.5544H63.3199Z" fill="#202020"/>
<path d="M83.6173 42.3509L85.017 42.7593C85.2543 42.8283 85.4756 42.6115 85.4087 42.3755L85.0109 40.9822C85.6068 39.8041 85.4009 38.3738 84.4519 37.4339C83.2418 36.2349 81.27 36.2349 80.0599 37.4339C78.8498 38.6328 78.9453 40.6806 80.0212 41.7467C81.097 42.8127 82.432 42.9267 83.6173 42.3509Z" fill="#202020"/>
<path d="M77.8822 49.5544V49.2307L79.1562 47.8523C79.6366 47.3328 79.7775 47.137 79.7775 46.8081V46.8029C79.7775 46.406 79.5086 46.1084 79.0648 46.1084C78.6132 46.1084 78.313 46.4034 78.313 46.8472L78.3104 46.8525L77.8613 46.8498L77.8561 46.8472C77.8587 46.1789 78.3756 45.6986 79.0962 45.6986C79.754 45.6986 80.2579 46.145 80.2579 46.7533V46.7585C80.2579 47.1892 80.0725 47.5025 79.3912 48.2048L78.5349 49.0898V49.1315H80.3205V49.5544H77.8822ZM81.109 49.5544V49.2307L82.3829 47.8523C82.8633 47.3328 83.0043 47.137 83.0043 46.8081V46.8029C83.0043 46.406 82.7354 46.1084 82.2916 46.1084C81.8399 46.1084 81.5397 46.4034 81.5397 46.8472L81.5371 46.8525L81.0881 46.8498L81.0828 46.8472C81.0855 46.1789 81.6024 45.6986 82.3229 45.6986C82.9808 45.6986 83.4846 46.145 83.4846 46.7533V46.7585C83.4846 47.1892 83.2993 47.5025 82.6179 48.2048L81.7616 49.0898V49.1315H83.5473V49.5544H81.109ZM84.3357 49.5544V49.2307L85.6096 47.8523C86.09 47.3328 86.231 47.137 86.231 46.8081V46.8029C86.231 46.406 85.9621 46.1084 85.5183 46.1084C85.0666 46.1084 84.7664 46.4034 84.7664 46.8472L84.7638 46.8525L84.3148 46.8498L84.3096 46.8472C84.3122 46.1789 84.8291 45.6986 85.5496 45.6986C86.2075 45.6986 86.7113 46.145 86.7113 46.7533V46.7585C86.7113 47.1892 86.526 47.5025 85.8446 48.2048L84.9883 49.0898V49.1315H86.774V49.5544H84.3357Z" fill="#202020"/>
<path d="M110.041 37.8191C110.126 37.706 110.14 37.5545 110.076 37.4278C110.013 37.3011 109.884 37.221 109.742 37.2209L103.893 37.2147C103.745 37.2146 103.611 37.302 103.551 37.4376C103.491 37.5732 103.517 37.7313 103.617 37.8406L104.928 39.2745C105.041 39.3976 105.222 39.4312 105.371 39.3567L106.9 38.5943C107.084 38.5022 107.309 38.5773 107.401 38.762C107.493 38.9467 107.418 39.1711 107.233 39.2632L105.705 40.0255C105.555 40.1 105.473 40.2644 105.504 40.4285L105.86 42.3388C105.887 42.4845 105.998 42.6004 106.142 42.6342C106.286 42.668 106.437 42.6133 106.526 42.4949L110.041 37.8191Z" fill="#202020"/>
<path d="M98.9477 49.5544V49.2307L100.222 47.8523C100.702 47.3328 100.843 47.137 100.843 46.8081V46.8029C100.843 46.406 100.574 46.1084 100.13 46.1084C99.6787 46.1084 99.3785 46.4034 99.3785 46.8472L99.3759 46.8525L98.9269 46.8498L98.9216 46.8472C98.9242 46.1789 99.4411 45.6986 100.162 45.6986C100.82 45.6986 101.323 46.145 101.323 46.7533V46.7585C101.323 47.1892 101.138 47.5025 100.457 48.2048L99.6004 49.0898V49.1315H101.386V49.5544H98.9477ZM103.412 49.6432C102.71 49.6432 102.208 49.1916 102.154 48.5885L102.151 48.5598H102.603L102.605 48.5807C102.65 48.9409 102.976 49.2281 103.417 49.2281C103.918 49.2281 104.263 48.8705 104.263 48.3614V48.3562C104.263 47.8549 103.913 47.4973 103.425 47.4973C103.174 47.4973 102.96 47.573 102.798 47.727C102.733 47.7897 102.673 47.8628 102.626 47.9515H102.219L102.417 45.7873H104.514V46.2076H102.788L102.66 47.4816H102.702C102.869 47.2284 103.164 47.09 103.506 47.09C104.213 47.09 104.722 47.62 104.722 48.3483V48.3536C104.722 49.1132 104.177 49.6432 103.412 49.6432ZM106.811 49.6432C106.122 49.6432 105.393 49.1576 105.393 47.7401V47.7348C105.393 46.4504 105.929 45.6986 106.842 45.6986C107.474 45.6986 107.944 46.0693 108.072 46.6253L108.08 46.6593H107.607L107.597 46.6306C107.482 46.3147 107.218 46.1189 106.837 46.1189C106.153 46.1189 105.874 46.7872 105.845 47.573C105.842 47.6017 105.842 47.633 105.842 47.6617H105.892C106.03 47.3537 106.385 47.0796 106.894 47.0796C107.602 47.0796 108.129 47.6174 108.129 48.3405V48.3457C108.129 49.0976 107.571 49.6432 106.811 49.6432ZM105.955 48.3405C105.955 48.8365 106.328 49.2281 106.806 49.2281C107.278 49.2281 107.657 48.8444 107.657 48.3562V48.351C107.657 47.8497 107.302 47.4894 106.814 47.4894C106.325 47.4894 105.955 47.8471 105.955 48.3379V48.3405ZM110.166 49.6171C109.388 49.6171 108.884 49.1837 108.834 48.5885L108.832 48.5572H109.283L109.286 48.5833C109.322 48.954 109.664 49.2098 110.166 49.2098C110.659 49.2098 110.996 48.9331 110.996 48.5337V48.5285C110.996 48.0664 110.664 47.8079 110.137 47.8079H109.664V47.4111H110.116C110.565 47.4111 110.878 47.1344 110.878 46.7585V46.7533C110.878 46.3591 110.62 46.1319 110.16 46.1319C109.717 46.1319 109.401 46.3669 109.361 46.748L109.359 46.7741H108.907L108.91 46.748C108.97 46.1345 109.455 45.7247 110.16 45.7247C110.878 45.7247 111.351 46.1241 111.351 46.6958V46.701C111.351 47.1657 111.022 47.4842 110.552 47.5834V47.5939C111.1 47.6409 111.473 47.9829 111.473 48.518V48.5233C111.473 49.1524 110.92 49.6171 110.166 49.6171ZM113.523 49.6171C112.724 49.6171 112.155 49.1681 112.155 48.5363V48.5311C112.155 48.0664 112.481 47.68 112.964 47.5678V47.5573C112.552 47.4294 112.291 47.1161 112.291 46.7193V46.7141C112.291 46.145 112.81 45.7247 113.523 45.7247C114.235 45.7247 114.755 46.145 114.755 46.7141V46.7193C114.755 47.1161 114.494 47.4294 114.081 47.5573V47.5678C114.564 47.68 114.891 48.0664 114.891 48.5311V48.5363C114.891 49.1681 114.322 49.6171 113.523 49.6171ZM113.523 47.3824C113.977 47.3824 114.288 47.124 114.288 46.7585V46.7533C114.288 46.3878 113.977 46.1293 113.523 46.1293C113.069 46.1293 112.758 46.3878 112.758 46.7533V46.7585C112.758 47.124 113.069 47.3824 113.523 47.3824ZM113.523 49.2072C114.042 49.2072 114.413 48.9148 114.413 48.5076V48.5024C114.413 48.0899 114.045 47.7949 113.523 47.7949C113.001 47.7949 112.633 48.0899 112.633 48.5024V48.5076C112.633 48.9148 113.003 49.2072 113.523 49.2072Z" fill="#202020"/>
<path d="M131.228 37.4258C131.228 37.1797 131.427 36.9802 131.673 36.9802H135.238C135.484 36.9802 135.683 37.1797 135.683 37.4258V41.3997C135.683 41.7733 135.251 41.981 134.959 41.7477L133.734 40.7672C133.571 40.6371 133.34 40.6371 133.177 40.7672L131.952 41.7477C131.66 41.981 131.228 41.7733 131.228 41.3997V37.4258Z" fill="#202020"/>
<path d="M128.339 49.6171C127.561 49.6171 127.057 49.1837 127.007 48.5885L127.005 48.5572H127.456L127.459 48.5833C127.495 48.954 127.837 49.2098 128.339 49.2098C128.832 49.2098 129.169 48.9331 129.169 48.5337V48.5285C129.169 48.0664 128.837 47.8079 128.31 47.8079H127.837V47.4111H128.289C128.738 47.4111 129.051 47.1344 129.051 46.7585V46.7533C129.051 46.3591 128.793 46.1319 128.333 46.1319C127.89 46.1319 127.574 46.3669 127.535 46.748L127.532 46.7741H127.08L127.083 46.748C127.143 46.1345 127.629 45.7247 128.333 45.7247C129.051 45.7247 129.524 46.1241 129.524 46.6958V46.701C129.524 47.1657 129.195 47.4842 128.725 47.5834V47.5939C129.273 47.6409 129.647 47.9829 129.647 48.518V48.5233C129.647 49.1524 129.093 49.6171 128.339 49.6171ZM131.74 49.6432C131.051 49.6432 130.323 49.1576 130.323 47.7401V47.7348C130.323 46.4504 130.858 45.6986 131.772 45.6986C132.403 45.6986 132.873 46.0693 133.001 46.6253L133.009 46.6593H132.537L132.526 46.6306C132.411 46.3147 132.148 46.1189 131.766 46.1189C131.082 46.1189 130.803 46.7872 130.774 47.573C130.772 47.6017 130.772 47.633 130.772 47.6617H130.821C130.96 47.3537 131.315 47.0796 131.824 47.0796C132.531 47.0796 133.059 47.6174 133.059 48.3405V48.3457C133.059 49.0976 132.5 49.6432 131.74 49.6432ZM130.884 48.3405C130.884 48.8365 131.257 49.2281 131.735 49.2281C132.208 49.2281 132.586 48.8444 132.586 48.3562V48.351C132.586 47.8497 132.231 47.4894 131.743 47.4894C131.255 47.4894 130.884 47.8471 130.884 48.3379V48.3405ZM135.533 49.5544V48.7739H133.698V48.3457C134.207 47.4921 134.784 46.5731 135.312 45.7873H135.993V48.3536H136.528V48.7739H135.993V49.5544H135.533ZM134.179 48.3562H135.536V46.2233H135.505C135.082 46.8551 134.588 47.633 134.179 48.3248V48.3562ZM138.974 49.5544V48.7739H137.139V48.3457C137.648 47.4921 138.225 46.5731 138.752 45.7873H139.434V48.3536H139.969V48.7739H139.434V49.5544H138.974ZM137.619 48.3562H138.977V46.2233H138.946C138.523 46.8551 138.029 47.633 137.619 48.3248V48.3562Z" fill="#202020"/>
<path d="M16.6106 85.3069V80.598H18.5718C19.6422 80.598 20.2557 81.1691 20.2557 82.0958V82.1024C20.2557 82.7061 19.9424 83.2249 19.404 83.437L20.396 85.3069H19.28L18.4022 83.5839H17.5961V85.3069H16.6106ZM17.5961 82.866H18.4642C18.9569 82.866 19.2473 82.5853 19.2473 82.1219V82.1154C19.2473 81.6618 18.9439 81.3681 18.4511 81.3681H17.5961V82.866ZM22.6183 85.3819C21.5251 85.3819 20.8627 84.6673 20.8627 83.5154V83.5121C20.8627 82.3699 21.5316 81.6357 22.5791 81.6357C23.6266 81.6357 24.2793 82.3536 24.2793 83.4403V83.7373H21.8057C21.8155 84.3279 22.1321 84.6705 22.6379 84.6705C23.0556 84.6705 23.2873 84.4486 23.3525 84.3116L23.3623 84.292H24.2499L24.2434 84.3246C24.1324 84.775 23.6691 85.3819 22.6183 85.3819ZM22.5955 82.3504C22.181 82.3504 21.8743 82.631 21.8155 83.1401H23.3656C23.3068 82.618 23.0099 82.3504 22.5955 82.3504ZM26.0382 85.3624C25.3529 85.3624 24.8667 84.9381 24.8667 84.2855V84.279C24.8667 83.6328 25.366 83.2543 26.2601 83.2021L27.1281 83.1499V82.8529C27.1281 82.5429 26.916 82.3667 26.5244 82.3667C26.1818 82.3667 25.9631 82.4874 25.8881 82.6995L25.8816 82.7126H25.0005L25.0037 82.6832C25.0788 82.0534 25.6727 81.6357 26.5766 81.6357C27.5295 81.6357 28.0679 82.086 28.0679 82.8529V85.3069H27.1281V84.8304H27.0694C26.8866 85.1633 26.5081 85.3624 26.0382 85.3624ZM25.7967 84.2267C25.7967 84.5009 26.0284 84.6673 26.358 84.6673C26.7985 84.6673 27.1281 84.3769 27.1281 83.9983V83.734L26.4037 83.7797C25.9958 83.8058 25.7967 83.9592 25.7967 84.2202V84.2267ZM30.5839 85.3819C29.4614 85.3819 28.825 84.6999 28.825 83.5056V83.499C28.825 82.3177 29.4581 81.6357 30.5839 81.6357C31.5368 81.6357 32.1013 82.1546 32.1862 82.9573V82.9671H31.2986L31.2953 82.9606C31.2333 82.6114 30.9951 82.383 30.5872 82.383C30.0749 82.383 29.7942 82.7811 29.7942 83.499V83.5056C29.7942 84.2333 30.0781 84.6347 30.5872 84.6347C30.9788 84.6347 31.2105 84.4486 31.2953 84.0897L31.3018 84.0766H32.1829L32.1797 84.0962C32.0818 84.8794 31.5205 85.3819 30.5839 85.3819ZM32.9628 85.3069V80.3402H33.9157V82.2688H33.9745C34.1376 81.8805 34.4933 81.6357 35.0057 81.6357C35.8052 81.6357 36.2359 82.1252 36.2359 82.9834V85.3069H35.283V83.1988C35.283 82.693 35.0742 82.4254 34.6238 82.4254C34.1833 82.4254 33.9157 82.742 33.9157 83.2282V85.3069H32.9628Z" fill="#202020"/>
<path d="M42.1634 82.4257V81.9802H42.6089V82.4257H42.1634Z" fill="#202020"/>
<path d="M41.7178 83.3168V82.8713H42.6089V84.2079H43.0545V84.6534H41.7178V84.2079H42.1634V83.3168H41.7178Z" fill="#202020"/>
<path fill-rule="evenodd" clip-rule="evenodd" d="M45.505 83.3168C45.505 85.0393 44.1086 86.4356 42.3861 86.4356C40.6637 86.4356 39.2673 85.0393 39.2673 83.3168C39.2673 81.5943 40.6637 80.198 42.3861 80.198C44.1086 80.198 45.505 81.5943 45.505 83.3168ZM45.0594 83.3168C45.0594 84.7932 43.8626 85.9901 42.3861 85.9901C40.9097 85.9901 39.7129 84.7932 39.7129 83.3168C39.7129 81.8404 40.9097 80.6435 42.3861 80.6435C43.8626 80.6435 45.0594 81.8404 45.0594 83.3168Z" fill="#202020"/>
<path d="M17.3688 176.198L16.2884 172.117H17.1765L17.8128 175.033H17.8581L18.6019 172.117H19.323L20.081 175.033H20.1262L20.7569 172.117H21.6393L20.5561 176.198H19.7558L18.9837 173.449H18.9384L18.1748 176.198H17.3688ZM22.7932 176.246C22.1993 176.246 21.7779 175.878 21.7779 175.313V175.307C21.7779 174.747 22.2106 174.419 22.9855 174.374L23.7378 174.329V174.071C23.7378 173.803 23.554 173.65 23.2146 173.65C22.9176 173.65 22.7282 173.754 22.6631 173.938L22.6575 173.95H21.8938L21.8967 173.924C21.9617 173.378 22.4765 173.016 23.2599 173.016C24.0857 173.016 24.5523 173.407 24.5523 174.071V176.198H23.7378V175.785H23.6869C23.5285 176.074 23.2005 176.246 22.7932 176.246ZM22.5839 175.262C22.5839 175.499 22.7847 175.644 23.0704 175.644C23.4522 175.644 23.7378 175.392 23.7378 175.064V174.835L23.11 174.874C22.7564 174.897 22.5839 175.03 22.5839 175.256V175.262ZM26.6536 176.209C25.8957 176.209 25.5903 175.963 25.5903 175.358V173.706H25.1095V173.084H25.5903V172.34H26.4246V173.084H27.0666V173.706H26.4246V175.169C26.4246 175.449 26.5434 175.573 26.8233 175.573C26.9308 175.573 26.9874 175.567 27.0666 175.559V176.173C26.9647 176.192 26.812 176.209 26.6536 176.209ZM29.1028 176.263C28.13 176.263 27.5785 175.672 27.5785 174.637V174.631C27.5785 173.607 28.1271 173.016 29.1028 173.016C29.9287 173.016 30.4179 173.466 30.4915 174.162V174.17H29.7222L29.7194 174.165C29.6656 173.862 29.4592 173.664 29.1057 173.664C28.6616 173.664 28.4184 174.009 28.4184 174.631V174.637C28.4184 175.268 28.6645 175.615 29.1057 175.615C29.445 175.615 29.6458 175.454 29.7194 175.143L29.725 175.132H30.4886L30.4858 175.149C30.401 175.828 29.9145 176.263 29.1028 176.263ZM31.1646 176.198V171.894H31.9904V173.565H32.0413C32.1827 173.228 32.491 173.016 32.935 173.016C33.6279 173.016 34.0012 173.441 34.0012 174.184V176.198H33.1754V174.371C33.1754 173.933 32.9944 173.701 32.6041 173.701C32.2223 173.701 31.9904 173.975 31.9904 174.396V176.198H31.1646Z" fill="#202020"/>
<path d="M16.4799 190.792V187.339H17.7817C18.4302 187.339 18.8897 187.786 18.8897 188.442V188.447C18.8897 189.103 18.4302 189.56 17.7817 189.56H16.9106V190.792H16.4799ZM17.6716 187.722H16.9106V189.177H17.6716C18.1646 189.177 18.4494 188.906 18.4494 188.452V188.447C18.4494 187.992 18.1646 187.722 17.6716 187.722ZM19.5669 190.792V187.188H19.9833V190.792H19.5669ZM21.4909 190.838C21.0004 190.838 20.6294 190.541 20.6294 190.072V190.067C20.6294 189.608 20.9693 189.342 21.5699 189.306L22.3094 189.261V189.026C22.3094 188.708 22.1155 188.535 21.7303 188.535C21.4215 188.535 21.2181 188.65 21.1511 188.851L21.1487 188.859H20.7323L20.7347 188.844C20.8017 188.44 21.1942 188.167 21.7446 188.167C22.374 188.167 22.7258 188.49 22.7258 189.026V190.792H22.3094V190.412H22.2711C22.1084 190.687 21.8379 190.838 21.4909 190.838ZM21.0554 190.062C21.0554 190.323 21.278 190.476 21.5771 190.476C22.0007 190.476 22.3094 190.199 22.3094 189.83V189.596L21.6202 189.639C21.2277 189.663 21.0554 189.801 21.0554 190.057V190.062ZM23.6112 191.697C23.5562 191.697 23.4844 191.692 23.4269 191.682V191.34C23.4772 191.35 23.5418 191.352 23.5992 191.352C23.8361 191.352 23.9797 191.244 24.0731 190.948L24.1209 190.795L23.1661 188.212H23.6112L24.3195 190.335H24.3578L25.0638 188.212H25.5017L24.4942 190.95C24.2813 191.529 24.0683 191.697 23.6112 191.697ZM26.8658 190.838C26.2914 190.838 25.8966 190.56 25.8487 190.134H26.2747C26.3441 190.349 26.5499 190.491 26.8801 190.491C27.2271 190.491 27.4736 190.325 27.4736 190.091V190.086C27.4736 189.911 27.342 189.789 27.0237 189.713L26.6241 189.617C26.1407 189.502 25.9229 189.292 25.9229 188.921V188.918C25.9229 188.49 26.3345 188.167 26.8825 188.167C27.4233 188.167 27.7991 188.437 27.8565 188.859H27.4473C27.3922 188.655 27.1912 188.514 26.8801 188.514C26.5738 188.514 26.3489 188.672 26.3489 188.899V188.904C26.3489 189.079 26.4781 189.189 26.782 189.263L27.1793 189.359C27.665 189.476 27.8996 189.687 27.8996 190.055V190.06C27.8996 190.519 27.4521 190.838 26.8658 190.838Z" fill="#202020"/>
<path d="M118.128 190.792V187.818H118.089L117.211 188.454V187.999L118.13 187.339H118.558V190.792H118.128ZM119.334 191.67L119.542 190.309H120.018L119.643 191.67H119.334ZM121.856 190.873C121.093 190.873 120.638 190.177 120.638 189.067V189.062C120.638 187.952 121.093 187.258 121.856 187.258C122.62 187.258 123.079 187.952 123.079 189.062V189.067C123.079 190.177 122.62 190.873 121.856 190.873ZM121.856 190.498C122.351 190.498 122.646 189.947 122.646 189.067V189.062C122.646 188.181 122.351 187.636 121.856 187.636C121.361 187.636 121.071 188.181 121.071 189.062V189.067C121.071 189.947 121.361 190.498 121.856 190.498ZM124.943 190.873C124.18 190.873 123.725 190.177 123.725 189.067V189.062C123.725 187.952 124.18 187.258 124.943 187.258C125.707 187.258 126.166 187.952 126.166 189.062V189.067C126.166 190.177 125.707 190.873 124.943 190.873ZM124.943 190.498C125.439 190.498 125.733 189.947 125.733 189.067V189.062C125.733 188.181 125.439 187.636 124.943 187.636C124.448 187.636 124.158 188.181 124.158 189.062V189.067C124.158 189.947 124.448 190.498 124.943 190.498ZM128.451 190.792V190.077H126.769V189.684C127.236 188.902 127.765 188.059 128.248 187.339H128.873V189.691H129.363V190.077H128.873V190.792H128.451ZM127.209 189.694H128.454V187.739H128.425C128.037 188.318 127.585 189.031 127.209 189.665V189.694ZM129.758 191.67L129.966 190.309H130.442L130.067 191.67H129.758ZM132.254 187.258C132.886 187.258 133.553 187.703 133.553 189.002V189.007C133.553 190.184 133.063 190.873 132.225 190.873C131.646 190.873 131.215 190.534 131.098 190.024L131.091 189.993H131.524L131.534 190.019C131.639 190.309 131.881 190.488 132.23 190.488C132.857 190.488 133.113 189.876 133.139 189.155C133.142 189.129 133.142 189.1 133.142 189.074H133.096C132.97 189.356 132.644 189.608 132.177 189.608C131.529 189.608 131.045 189.115 131.045 188.452V188.447C131.045 187.758 131.558 187.258 132.254 187.258ZM132.252 189.232C132.699 189.232 133.039 188.904 133.039 188.454V188.452C133.039 187.997 132.697 187.638 132.259 187.638C131.826 187.638 131.479 187.99 131.479 188.437V188.442C131.479 188.902 131.804 189.232 132.252 189.232ZM135.465 190.873C134.834 190.873 134.166 190.428 134.166 189.129V189.124C134.166 187.947 134.657 187.258 135.494 187.258C136.073 187.258 136.504 187.597 136.621 188.107L136.628 188.138H136.195L136.186 188.112C136.08 187.822 135.839 187.643 135.489 187.643C134.862 187.643 134.606 188.255 134.58 188.976C134.578 189.002 134.578 189.031 134.578 189.057H134.623C134.75 188.775 135.075 188.523 135.542 188.523C136.191 188.523 136.674 189.016 136.674 189.679V189.684C136.674 190.373 136.162 190.873 135.465 190.873ZM134.681 189.679C134.681 190.134 135.023 190.493 135.461 190.493C135.894 190.493 136.241 190.141 136.241 189.694V189.689C136.241 189.229 135.915 188.899 135.468 188.899C135.02 188.899 134.681 189.227 134.681 189.677V189.679ZM138.5 190.873C137.856 190.873 137.397 190.459 137.346 189.907L137.344 189.88H137.758L137.76 189.9C137.801 190.23 138.1 190.493 138.505 190.493C138.964 190.493 139.28 190.165 139.28 189.698V189.694C139.28 189.234 138.959 188.906 138.512 188.906C138.282 188.906 138.086 188.976 137.937 189.117C137.878 189.174 137.823 189.241 137.78 189.323H137.406L137.588 187.339H139.51V187.724H137.928L137.811 188.892H137.849C138.002 188.66 138.273 188.533 138.586 188.533C139.235 188.533 139.701 189.019 139.701 189.687V189.691C139.701 190.388 139.201 190.873 138.5 190.873Z" fill="#202020"/>
<path d="M17.1954 205.03L16.2549 201.577H16.7048L17.3916 204.384H17.4203L18.1933 201.577H18.6288L19.4018 204.384H19.4305L20.1173 201.577H20.5672L19.6268 205.03H19.2199L18.4254 202.304H18.3967L17.6022 205.03H17.1954ZM21.6393 205.075C21.1487 205.075 20.7778 204.779 20.7778 204.309V204.305C20.7778 203.845 21.1176 203.58 21.7183 203.544L22.4577 203.498V203.264C22.4577 202.945 22.2639 202.773 21.8786 202.773C21.5699 202.773 21.3665 202.888 21.2995 203.089L21.2971 203.096H20.8807L20.8831 203.082C20.9501 202.677 21.3426 202.405 21.893 202.405C22.5224 202.405 22.8741 202.728 22.8741 203.264V205.03H22.4577V204.649H22.4195C22.2567 204.924 21.9863 205.075 21.6393 205.075ZM21.2038 204.3C21.2038 204.561 21.4263 204.714 21.7255 204.714C22.149 204.714 22.4577 204.436 22.4577 204.068V203.833L21.7685 203.876C21.3761 203.9 21.2038 204.039 21.2038 204.295V204.3ZM23.6351 205.03V202.45H24.0515V202.833H24.0898C24.1879 202.563 24.4296 202.405 24.779 202.405C24.858 202.405 24.9465 202.414 24.9872 202.421V202.826C24.9011 202.811 24.8221 202.802 24.7311 202.802C24.3339 202.802 24.0515 203.053 24.0515 203.431V205.03H23.6351ZM26.4853 205.075C25.7626 205.075 25.3007 204.551 25.3007 203.733V203.728C25.3007 202.926 25.7602 202.405 26.4829 202.405C27.1099 202.405 27.4856 202.766 27.5621 203.225L27.5645 203.24H27.1505L27.1481 203.233C27.0835 202.979 26.8538 202.773 26.4829 202.773C26.0186 202.773 25.7267 203.146 25.7267 203.728V203.733C25.7267 204.326 26.0234 204.707 26.4829 204.707C26.8299 204.707 27.05 204.554 27.1457 204.266L27.1505 204.252L27.5621 204.25L27.5574 204.276C27.4521 204.743 27.1051 205.075 26.4853 205.075ZM28.1963 205.03V201.426H28.6127V202.838H28.651C28.7802 202.565 29.0219 202.405 29.4024 202.405C29.9815 202.405 30.3046 202.747 30.3046 203.359V205.03H29.8882V203.46C29.8882 202.996 29.6968 202.773 29.2851 202.773C28.8735 202.773 28.6127 203.051 28.6127 203.503V205.03H28.1963ZM33.3533 205.049C32.8221 205.049 32.5995 204.853 32.5995 204.36V202.795H32.1927V202.45H32.5995V201.782H33.0303V202.45H33.595V202.795H33.0303V204.254C33.0303 204.558 33.1356 204.68 33.4036 204.68C33.4778 204.68 33.5185 204.678 33.595 204.671V205.025C33.5137 205.039 33.4347 205.049 33.3533 205.049ZM34.4374 201.952C34.2795 201.952 34.1502 201.823 34.1502 201.665C34.1502 201.507 34.2795 201.378 34.4374 201.378C34.5954 201.378 34.7246 201.507 34.7246 201.665C34.7246 201.823 34.5954 201.952 34.4374 201.952ZM34.2268 205.03V202.45H34.6432V205.03H34.2268ZM35.4281 205.03V202.45H35.8445V202.843H35.8828C35.9977 202.565 36.2418 202.405 36.5792 202.405C36.9286 202.405 37.1727 202.589 37.2923 202.857H37.3306C37.4694 202.584 37.7638 202.405 38.1203 202.405C38.6468 202.405 38.9411 202.706 38.9411 203.247V205.03H38.5248V203.343C38.5248 202.962 38.3501 202.773 37.9863 202.773C37.6274 202.773 37.3904 203.044 37.3904 203.371V205.03H36.9741V203.278C36.9741 202.972 36.7635 202.773 36.438 202.773C36.1006 202.773 35.8445 203.067 35.8445 203.431V205.03H35.4281ZM40.7455 205.075C40.0085 205.075 39.5633 204.558 39.5633 203.749V203.747C39.5633 202.95 40.018 202.405 40.7192 202.405C41.4204 202.405 41.8463 202.926 41.8463 203.697V203.86H39.9893C40.0013 204.393 40.2956 204.704 40.7551 204.704C41.1045 204.704 41.3199 204.539 41.3893 204.384L41.3988 204.362H41.8152L41.8104 204.381C41.7219 204.731 41.3534 205.075 40.7455 205.075ZM40.7168 202.776C40.3339 202.776 40.042 203.036 39.9965 203.527H41.4228C41.3797 203.017 41.0973 202.776 40.7168 202.776Z" fill="#202020"/>
<path d="M89.009 205.087C88.2958 205.087 87.834 204.69 87.7885 204.144L87.7861 204.116H88.2001L88.2025 204.14C88.236 204.479 88.5495 204.714 89.009 204.714C89.4612 204.714 89.77 204.46 89.77 204.094V204.089C89.77 203.666 89.466 203.429 88.9826 203.429H88.5495V203.065H88.9635C89.3751 203.065 89.6623 202.811 89.6623 202.467V202.462C89.6623 202.101 89.4254 201.892 89.0042 201.892C88.5974 201.892 88.3078 202.108 88.2719 202.457L88.2695 202.481H87.8555L87.8579 202.457C87.9129 201.895 88.358 201.519 89.0042 201.519C89.6623 201.519 90.0954 201.885 90.0954 202.409V202.414C90.0954 202.84 89.7939 203.132 89.3631 203.223V203.233C89.8657 203.276 90.2079 203.589 90.2079 204.08V204.085C90.2079 204.661 89.7006 205.087 89.009 205.087ZM90.9067 205.03V204.733L92.0745 203.47C92.5148 202.993 92.644 202.814 92.644 202.512V202.507C92.644 202.144 92.3975 201.871 91.9907 201.871C91.5767 201.871 91.3015 202.141 91.3015 202.548L91.2991 202.553L90.8875 202.551L90.8827 202.548C90.8851 201.936 91.3589 201.495 92.0194 201.495C92.6225 201.495 93.0843 201.904 93.0843 202.462V202.467C93.0843 202.862 92.9144 203.149 92.2898 203.793L91.5049 204.604V204.642H93.1418V205.03H90.9067ZM94.9988 205.111C94.3551 205.111 93.8956 204.697 93.8453 204.144L93.8429 204.118H94.2569L94.2593 204.137C94.3 204.467 94.5992 204.731 95.0036 204.731C95.463 204.731 95.7789 204.403 95.7789 203.936V203.931C95.7789 203.472 95.4583 203.144 95.0108 203.144C94.781 203.144 94.5848 203.213 94.4364 203.355C94.3766 203.412 94.3216 203.479 94.2785 203.56H93.9052L94.087 201.577H96.0087V201.962H94.4269L94.3096 203.13H94.3479C94.501 202.898 94.7715 202.771 95.0849 202.771C95.7335 202.771 96.2001 203.257 96.2001 203.924V203.929C96.2001 204.625 95.7 205.111 94.9988 205.111ZM98.4711 205.03V204.314H96.7888V203.922C97.2555 203.139 97.7843 202.297 98.2677 201.577H98.8923V203.929H99.3829V204.314H98.8923V205.03H98.4711ZM97.2291 203.931H98.4735V201.976H98.4448C98.0571 202.555 97.6048 203.268 97.2291 203.903V203.931ZM101.453 205.03V201.426H101.869V202.838H101.908C102.037 202.565 102.278 202.405 102.659 202.405C103.238 202.405 103.561 202.747 103.561 203.359V205.03H103.145V203.46C103.145 202.996 102.953 202.773 102.542 202.773C102.13 202.773 101.869 203.051 101.869 203.503V205.03H101.453ZM104.315 205.03V202.45H104.731V202.833H104.77C104.868 202.563 105.109 202.405 105.459 202.405C105.538 202.405 105.626 202.414 105.667 202.421V202.826C105.581 202.811 105.502 202.802 105.411 202.802C105.014 202.802 104.731 203.053 104.731 203.431V205.03H104.315ZM108.733 205.087C108.019 205.087 107.558 204.69 107.512 204.144L107.51 204.116H107.924L107.926 204.14C107.96 204.479 108.273 204.714 108.733 204.714C109.185 204.714 109.494 204.46 109.494 204.094V204.089C109.494 203.666 109.19 203.429 108.706 203.429H108.273V203.065H108.687C109.099 203.065 109.386 202.811 109.386 202.467V202.462C109.386 202.101 109.149 201.892 108.728 201.892C108.321 201.892 108.031 202.108 107.996 202.457L107.993 202.481H107.579L107.582 202.457C107.637 201.895 108.082 201.519 108.728 201.519C109.386 201.519 109.819 201.885 109.819 202.409V202.414C109.819 202.84 109.517 203.132 109.087 203.223V203.233C109.589 203.276 109.931 203.589 109.931 204.08V204.085C109.931 204.661 109.424 205.087 108.733 205.087ZM110.63 205.03V204.733L111.798 203.47C112.238 202.993 112.368 202.814 112.368 202.512V202.507C112.368 202.144 112.121 201.871 111.714 201.871C111.3 201.871 111.025 202.141 111.025 202.548L111.023 202.553L110.611 202.551L110.606 202.548C110.609 201.936 111.083 201.495 111.743 201.495C112.346 201.495 112.808 201.904 112.808 202.462V202.467C112.808 202.862 112.638 203.149 112.013 203.793L111.229 204.604V204.642H112.865V205.03H110.63ZM114.969 205.03V202.45H115.385V202.843H115.424C115.538 202.565 115.783 202.405 116.12 202.405C116.469 202.405 116.713 202.589 116.833 202.857H116.871C117.01 202.584 117.305 202.405 117.661 202.405C118.188 202.405 118.482 202.706 118.482 203.247V205.03H118.066V203.343C118.066 202.962 117.891 202.773 117.527 202.773C117.168 202.773 116.931 203.044 116.931 203.371V205.03H116.515V203.278C116.515 202.972 116.304 202.773 115.979 202.773C115.641 202.773 115.385 203.067 115.385 203.431V205.03H114.969ZM119.453 201.952C119.296 201.952 119.166 201.823 119.166 201.665C119.166 201.507 119.296 201.378 119.453 201.378C119.611 201.378 119.741 201.507 119.741 201.665C119.741 201.823 119.611 201.952 119.453 201.952ZM119.243 205.03V202.45H119.659V205.03H119.243ZM120.444 205.03V202.45H120.861V202.838H120.899C121.028 202.565 121.27 202.405 121.65 202.405C122.229 202.405 122.553 202.747 122.553 203.359V205.03H122.136V203.46C122.136 202.996 121.945 202.773 121.533 202.773C121.121 202.773 120.861 203.051 120.861 203.503V205.03H120.444ZM125.857 205.087C125.144 205.087 124.682 204.69 124.637 204.144L124.634 204.116H125.048L125.051 204.14C125.084 204.479 125.398 204.714 125.857 204.714C126.31 204.714 126.618 204.46 126.618 204.094V204.089C126.618 203.666 126.314 203.429 125.831 203.429H125.398V203.065H125.812C126.223 203.065 126.511 202.811 126.511 202.467V202.462C126.511 202.101 126.274 201.892 125.853 201.892C125.446 201.892 125.156 202.108 125.12 202.457L125.118 202.481H124.704L124.706 202.457C124.761 201.895 125.206 201.519 125.853 201.519C126.511 201.519 126.944 201.885 126.944 202.409V202.414C126.944 202.84 126.642 203.132 126.211 203.223V203.233C126.714 203.276 127.056 203.589 127.056 204.08V204.085C127.056 204.661 126.549 205.087 125.857 205.087ZM129.332 205.03V204.314H127.65V203.922C128.116 203.139 128.645 202.297 129.129 201.577H129.753V203.929H130.244V204.314H129.753V205.03H129.332ZM128.09 203.931H129.334V201.976H129.306C128.918 202.555 128.466 203.268 128.09 203.903V203.931ZM133.175 205.075C132.601 205.075 132.206 204.798 132.158 204.372H132.584C132.654 204.587 132.859 204.728 133.19 204.728C133.537 204.728 133.783 204.563 133.783 204.329V204.324C133.783 204.149 133.652 204.027 133.333 203.951L132.934 203.855C132.45 203.74 132.232 203.529 132.232 203.158V203.156C132.232 202.728 132.644 202.405 133.192 202.405C133.733 202.405 134.109 202.675 134.166 203.096H133.757C133.702 202.893 133.501 202.752 133.19 202.752C132.883 202.752 132.658 202.91 132.658 203.137V203.142C132.658 203.316 132.788 203.426 133.092 203.501L133.489 203.596C133.975 203.714 134.209 203.924 134.209 204.293V204.298C134.209 204.757 133.762 205.075 133.175 205.075ZM135.908 205.075C135.171 205.075 134.726 204.558 134.726 203.749V203.747C134.726 202.95 135.181 202.405 135.882 202.405C136.583 202.405 137.009 202.926 137.009 203.697V203.86H135.152C135.164 204.393 135.458 204.704 135.918 204.704C136.267 204.704 136.483 204.539 136.552 204.384L136.561 204.362H136.978L136.973 204.381C136.885 204.731 136.516 205.075 135.908 205.075ZM135.879 202.776C135.497 202.776 135.205 203.036 135.159 203.527H136.585C136.542 203.017 136.26 202.776 135.879 202.776ZM138.71 205.075C137.988 205.075 137.526 204.551 137.526 203.733V203.728C137.526 202.926 137.985 202.405 138.708 202.405C139.335 202.405 139.711 202.766 139.787 203.225L139.79 203.24H139.376L139.373 203.233C139.309 202.979 139.079 202.773 138.708 202.773C138.244 202.773 137.952 203.146 137.952 203.728V203.733C137.952 204.326 138.249 204.707 138.708 204.707C139.055 204.707 139.275 204.554 139.371 204.266L139.376 204.252L139.787 204.25L139.783 204.276C139.677 204.743 139.33 205.075 138.71 205.075Z" fill="#202020"/>
<path d="M16.2047 219.267L17.4778 215.814H17.9037L19.1769 219.267H18.7246L18.3776 218.279H17.004L16.657 219.267H16.2047ZM17.6716 216.372L17.1308 217.913H18.2507L17.7099 216.372H17.6716ZM20.1245 219.267L19.1697 216.688H19.61L20.316 218.813H20.3542L21.0602 216.688H21.5005L20.5457 219.267H20.1245ZM23.0081 219.313C22.2711 219.313 21.826 218.796 21.826 217.987V217.985C21.826 217.188 22.2807 216.642 22.9818 216.642C23.683 216.642 24.109 217.164 24.109 217.934V218.097H22.2519C22.2639 218.631 22.5583 218.942 23.0177 218.942C23.3671 218.942 23.5825 218.777 23.6519 218.621L23.6615 218.6H24.0778L24.0731 218.619C23.9845 218.968 23.616 219.313 23.0081 219.313ZM22.9794 217.013C22.5965 217.013 22.3046 217.274 22.2591 217.764H23.6854C23.6423 217.255 23.3599 217.013 22.9794 217.013ZM24.7551 219.267V216.688H25.1715V217.071H25.2098C25.3079 216.8 25.5496 216.642 25.899 216.642C25.9779 216.642 26.0665 216.652 26.1072 216.659V217.063C26.021 217.049 25.942 217.039 25.8511 217.039C25.4539 217.039 25.1715 217.291 25.1715 217.669V219.267H24.7551ZM27.33 219.313C26.8394 219.313 26.4685 219.016 26.4685 218.547V218.542C26.4685 218.083 26.8083 217.817 27.409 217.781L28.1484 217.736V217.501C28.1484 217.183 27.9546 217.011 27.5693 217.011C27.2606 217.011 27.0572 217.126 26.9902 217.327L26.9878 217.334H26.5714L26.5738 217.319C26.6408 216.915 27.0333 216.642 27.5837 216.642C28.2131 216.642 28.5648 216.965 28.5648 217.501V219.267H28.1484V218.887H28.1102C27.9474 219.162 27.677 219.313 27.33 219.313ZM26.8945 218.537C26.8945 218.798 27.117 218.951 27.4162 218.951C27.8397 218.951 28.1484 218.674 28.1484 218.305V218.071L27.4592 218.114C27.0668 218.138 26.8945 218.277 26.8945 218.533V218.537ZM30.3883 220.177C29.7662 220.177 29.3689 219.897 29.3043 219.473L29.3091 219.471H29.7398L29.7422 219.473C29.7877 219.669 30.0174 219.808 30.3883 219.808C30.8502 219.808 31.1254 219.59 31.1254 219.21V218.688H31.0871C30.9244 218.973 30.6324 219.133 30.2783 219.133C29.6106 219.133 29.1966 218.616 29.1966 217.894V217.889C29.1966 217.166 29.613 216.642 30.2878 216.642C30.6516 216.642 30.934 216.822 31.0919 217.114H31.1206V216.688H31.537V219.231C31.537 219.808 31.0919 220.177 30.3883 220.177ZM30.3692 218.765C30.8478 218.765 31.135 218.406 31.135 217.894V217.889C31.135 217.377 30.8454 217.011 30.3692 217.011C29.8906 217.011 29.6226 217.377 29.6226 217.889V217.894C29.6226 218.406 29.8906 218.765 30.3692 218.765ZM33.3653 219.313C32.6283 219.313 32.1831 218.796 32.1831 217.987V217.985C32.1831 217.188 32.6378 216.642 33.339 216.642C34.0402 216.642 34.4661 217.164 34.4661 217.934V218.097H32.6091C32.6211 218.631 32.9154 218.942 33.3749 218.942C33.7243 218.942 33.9397 218.777 34.009 218.621L34.0186 218.6H34.435L34.4302 218.619C34.3417 218.968 33.9732 219.313 33.3653 219.313ZM33.3366 217.013C32.9537 217.013 32.6618 217.274 32.6163 217.764H34.0426C33.9995 217.255 33.7171 217.013 33.3366 217.013ZM36.9884 219.267L36.2657 216.688H36.6821L37.1894 218.75H37.2277L37.8044 216.688H38.1993L38.776 218.75H38.8143L39.3216 216.688H39.7356L39.0129 219.267H38.5942L38.0174 217.272H37.9791L37.4048 219.267H36.9884ZM40.9226 219.313C40.432 219.313 40.0611 219.016 40.0611 218.547V218.542C40.0611 218.083 40.4009 217.817 41.0016 217.781L41.741 217.736V217.501C41.741 217.183 41.5472 217.011 41.1619 217.011C40.8532 217.011 40.6498 217.126 40.5828 217.327L40.5804 217.334H40.164L40.1664 217.319C40.2334 216.915 40.6259 216.642 41.1763 216.642C41.8056 216.642 42.1574 216.965 42.1574 217.501V219.267H41.741V218.887H41.7027C41.54 219.162 41.2696 219.313 40.9226 219.313ZM40.4871 218.537C40.4871 218.798 40.7096 218.951 41.0088 218.951C41.4323 218.951 41.741 218.674 41.741 218.305V218.071L41.0518 218.114C40.6594 218.138 40.4871 218.277 40.4871 218.533V218.537ZM43.835 219.286C43.3037 219.286 43.0811 219.09 43.0811 218.597V217.032H42.6743V216.688H43.0811V216.02H43.5119V216.688H44.0767V217.032H43.5119V218.492C43.5119 218.796 43.6172 218.918 43.8852 218.918C43.9594 218.918 44.0001 218.916 44.0767 218.908V219.263C43.9953 219.277 43.9163 219.286 43.835 219.286ZM45.7159 219.313C44.9932 219.313 44.5313 218.789 44.5313 217.97V217.966C44.5313 217.164 44.9908 216.642 45.7135 216.642C46.3405 216.642 46.7162 217.003 46.7928 217.463L46.7952 217.477H46.3812L46.3788 217.47C46.3142 217.216 46.0844 217.011 45.7135 217.011C45.2493 217.011 44.9573 217.384 44.9573 217.966V217.97C44.9573 218.564 45.254 218.944 45.7135 218.944C46.0605 218.944 46.2807 218.791 46.3764 218.504L46.3812 218.49L46.7928 218.487L46.788 218.514C46.6827 218.98 46.3357 219.313 45.7159 219.313ZM47.4269 219.267V215.663H47.8433V217.075H47.8816C48.0109 216.802 48.2526 216.642 48.633 216.642C49.2122 216.642 49.5352 216.984 49.5352 217.597V219.267H49.1188V217.697C49.1188 217.233 48.9274 217.011 48.5158 217.011C48.1042 217.011 47.8433 217.288 47.8433 217.741V219.267H47.4269ZM52.584 219.286C52.0527 219.286 51.8302 219.09 51.8302 218.597V217.032H51.4234V216.688H51.8302V216.02H52.2609V216.688H52.8257V217.032H52.2609V218.492C52.2609 218.796 52.3662 218.918 52.6342 218.918C52.7084 218.918 52.7491 218.916 52.8257 218.908V219.263C52.7443 219.277 52.6654 219.286 52.584 219.286ZM53.668 216.19C53.5101 216.19 53.3809 216.061 53.3809 215.903C53.3809 215.745 53.5101 215.616 53.668 215.616C53.826 215.616 53.9552 215.745 53.9552 215.903C53.9552 216.061 53.826 216.19 53.668 216.19ZM53.4575 219.267V216.688H53.8739V219.267H53.4575ZM54.6588 219.267V216.688H55.0752V217.08H55.1135C55.2283 216.802 55.4724 216.642 55.8098 216.642C56.1592 216.642 56.4033 216.826 56.523 217.094H56.5613C56.7001 216.822 56.9944 216.642 57.351 216.642C57.8774 216.642 58.1718 216.944 58.1718 217.485V219.267H57.7554V217.58C57.7554 217.2 57.5807 217.011 57.217 217.011C56.858 217.011 56.6211 217.281 56.6211 217.609V219.267H56.2047V217.516C56.2047 217.209 55.9941 217.011 55.6687 217.011C55.3312 217.011 55.0752 217.305 55.0752 217.669V219.267H54.6588ZM59.9762 219.313C59.2391 219.313 58.794 218.796 58.794 217.987V217.985C58.794 217.188 59.2487 216.642 59.9498 216.642C60.651 216.642 61.077 217.164 61.077 217.934V218.097H59.22C59.2319 218.631 59.5263 218.942 59.9857 218.942C60.3351 218.942 60.5505 218.777 60.6199 218.621L60.6295 218.6H61.0459L61.0411 218.619C60.9525 218.968 60.584 219.313 59.9762 219.313ZM59.9474 217.013C59.5646 217.013 59.2726 217.274 59.2271 217.764H60.6534C60.6103 217.255 60.3279 217.013 59.9474 217.013Z" fill="#202020"/>
<path d="M127.207 219.267V216.293H127.169L126.29 216.929V216.475L127.209 215.814H127.638V219.267H127.207ZM129.48 219.267V216.293H129.442L128.564 216.929V216.475L129.483 215.814H129.911V219.267H129.48ZM133.175 219.313C132.601 219.313 132.206 219.035 132.158 218.609H132.584C132.654 218.825 132.859 218.966 133.19 218.966C133.537 218.966 133.783 218.801 133.783 218.566V218.561C133.783 218.387 133.652 218.265 133.333 218.188L132.934 218.092C132.45 217.977 132.232 217.767 132.232 217.396V217.394C132.232 216.965 132.644 216.642 133.192 216.642C133.733 216.642 134.109 216.913 134.166 217.334H133.757C133.702 217.13 133.501 216.989 133.19 216.989C132.883 216.989 132.658 217.147 132.658 217.374V217.379C132.658 217.554 132.788 217.664 133.092 217.738L133.489 217.834C133.975 217.951 134.209 218.162 134.209 218.53V218.535C134.209 218.995 133.762 219.313 133.175 219.313ZM135.908 219.313C135.171 219.313 134.726 218.796 134.726 217.987V217.985C134.726 217.188 135.181 216.642 135.882 216.642C136.583 216.642 137.009 217.164 137.009 217.934V218.097H135.152C135.164 218.631 135.458 218.942 135.918 218.942C136.267 218.942 136.483 218.777 136.552 218.621L136.561 218.6H136.978L136.973 218.619C136.885 218.968 136.516 219.313 135.908 219.313ZM135.879 217.013C135.497 217.013 135.205 217.274 135.159 217.764H136.585C136.542 217.255 136.26 217.013 135.879 217.013ZM138.71 219.313C137.988 219.313 137.526 218.789 137.526 217.97V217.966C137.526 217.164 137.985 216.642 138.708 216.642C139.335 216.642 139.711 217.003 139.787 217.463L139.79 217.477H139.376L139.373 217.47C139.309 217.216 139.079 217.011 138.708 217.011C138.244 217.011 137.952 217.384 137.952 217.966V217.97C137.952 218.564 138.249 218.944 138.708 218.944C139.055 218.944 139.275 218.791 139.371 218.504L139.376 218.49L139.787 218.487L139.783 218.514C139.677 218.98 139.33 219.313 138.71 219.313Z" fill="#202020"/>
<path d="M62.8523 97.8836C64.1602 97.8836 65.1861 98.8156 65.1861 100.801V100.809C65.1861 102.7 64.2933 103.824 62.8444 103.824C61.7519 103.824 60.9413 103.178 60.7651 102.293L60.7572 102.258H61.9164L61.9281 102.293C62.0652 102.645 62.3863 102.884 62.8405 102.884C63.6589 102.884 64.0192 102.081 64.0623 101.052C64.0623 101.012 64.0623 100.969 64.0623 100.926H63.984C63.7803 101.361 63.3104 101.753 62.5272 101.753C61.4269 101.753 60.6868 100.969 60.6868 99.9003V99.8925C60.6868 98.7373 61.5796 97.8836 62.8523 97.8836ZM62.8523 100.879C63.4357 100.879 63.8861 100.464 63.8861 99.8807V99.8729C63.8861 99.2816 63.4357 98.8235 62.8601 98.8235C62.2884 98.8235 61.8302 99.2738 61.8302 99.8494V99.8573C61.8302 100.452 62.261 100.879 62.8523 100.879ZM66.2434 103.683V102.888L68.0643 101.091C68.8593 100.319 69.0747 100.033 69.0747 99.638V99.6262C69.0747 99.1446 68.7457 98.8078 68.2053 98.8078C67.6532 98.8078 67.2733 99.1759 67.2733 99.7124V99.7319H66.1808L66.1769 99.7163C66.1769 98.6316 67.0227 97.8875 68.2601 97.8875C69.4232 97.8875 70.2377 98.5533 70.2377 99.5283V99.5401C70.2377 100.182 69.9048 100.715 68.8749 101.666L67.8294 102.641V102.732H70.3199V103.683H66.2434ZM73.4957 97.8836C74.8036 97.8836 75.8296 98.8156 75.8296 100.801V100.809C75.8296 102.7 74.9368 103.824 73.4879 103.824C72.3954 103.824 71.5848 103.178 71.4085 102.293L71.4007 102.258H72.5598L72.5716 102.293C72.7086 102.645 73.0297 102.884 73.484 102.884C74.3024 102.884 74.6627 102.081 74.7057 101.052C74.7057 101.012 74.7057 100.969 74.7057 100.926H74.6274C74.4238 101.361 73.9539 101.753 73.1707 101.753C72.0703 101.753 71.3302 100.969 71.3302 99.9003V99.8925C71.3302 98.7373 72.2231 97.8836 73.4957 97.8836ZM73.4957 100.879C74.0792 100.879 74.5295 100.464 74.5295 99.8807V99.8729C74.5295 99.2816 74.0792 98.8235 73.5036 98.8235C72.9318 98.8235 72.4737 99.2738 72.4737 99.8494V99.8573C72.4737 100.452 72.9044 100.879 73.4957 100.879ZM76.3661 105.202L76.7107 102.779H77.8424L77.1297 105.202H76.3661ZM79.1816 103.683V102.888L81.0025 101.091C81.7975 100.319 82.0129 100.033 82.0129 99.638V99.6262C82.0129 99.1446 81.6839 98.8078 81.1435 98.8078C80.5914 98.8078 80.2115 99.1759 80.2115 99.7124V99.7319H79.119L79.1151 99.7163C79.1151 98.6316 79.9609 97.8875 81.1983 97.8875C82.3614 97.8875 83.1759 98.5533 83.1759 99.5283V99.5401C83.1759 100.182 82.843 100.715 81.8131 101.666L80.7676 102.641V102.732H83.2581V103.683H79.1816ZM86.4339 97.8836C87.7418 97.8836 88.7678 98.8156 88.7678 100.801V100.809C88.7678 102.7 87.875 103.824 86.4261 103.824C85.3336 103.824 84.523 103.178 84.3467 102.293L84.3389 102.258H85.498L85.5098 102.293C85.6468 102.645 85.9679 102.884 86.4222 102.884C87.2406 102.884 87.6009 102.081 87.6439 101.052C87.6439 101.012 87.6439 100.969 87.6439 100.926H87.5656C87.362 101.361 86.8921 101.753 86.1089 101.753C85.0085 101.753 84.2684 100.969 84.2684 99.9003V99.8925C84.2684 98.7373 85.1613 97.8836 86.4339 97.8836ZM86.4339 100.879C87.0174 100.879 87.4677 100.464 87.4677 99.8807V99.8729C87.4677 99.2816 87.0174 98.8235 86.4418 98.8235C85.87 98.8235 85.4119 99.2738 85.4119 99.8494V99.8573C85.4119 100.452 85.8426 100.879 86.4339 100.879ZM89.8251 103.683V102.888L91.646 101.091C92.4409 100.319 92.6563 100.033 92.6563 99.638V99.6262C92.6563 99.1446 92.3274 98.8078 91.787 98.8078C91.2348 98.8078 90.855 99.1759 90.855 99.7124V99.7319H89.7625L89.7585 99.7163C89.7585 98.6316 90.6044 97.8875 91.8418 97.8875C93.0048 97.8875 93.8193 98.5533 93.8193 99.5283V99.5401C93.8193 100.182 93.4865 100.715 92.4566 101.666L91.4111 102.641V102.732H93.9016V103.683H89.8251Z" fill="black"/>
<path d="M54.7489 111.574L56.1378 107.807H56.6025L57.9913 111.574H57.4979L57.1194 110.496H55.6209L55.2423 111.574H54.7489ZM56.3492 108.415L55.7592 110.097H56.981L56.391 108.415H56.3492ZM59.589 111.624C58.8006 111.624 58.2967 111.052 58.2967 110.159V110.154C58.2967 109.279 58.798 108.71 59.5864 108.71C60.2704 108.71 60.6802 109.105 60.7638 109.606L60.7664 109.621H60.3147L60.3121 109.614C60.2416 109.337 59.991 109.112 59.5864 109.112C59.0799 109.112 58.7614 109.52 58.7614 110.154V110.159C58.7614 110.807 59.0851 111.222 59.5864 111.222C59.9649 111.222 60.2051 111.055 60.3095 110.741L60.3147 110.726L60.7638 110.723L60.7585 110.752C60.6437 111.261 60.2651 111.624 59.589 111.624ZM62.5808 111.624C61.7924 111.624 61.2885 111.052 61.2885 110.159V110.154C61.2885 109.279 61.7897 108.71 62.5781 108.71C63.2621 108.71 63.672 109.105 63.7555 109.606L63.7581 109.621H63.3065L63.3039 109.614C63.2334 109.337 62.9828 109.112 62.5781 109.112C62.0717 109.112 61.7532 109.52 61.7532 110.154V110.159C61.7532 110.807 62.0769 111.222 62.5781 111.222C62.9567 111.222 63.1969 111.055 63.3013 110.741L63.3065 110.726L63.7555 110.723L63.7503 110.752C63.6354 111.261 63.2569 111.624 62.5808 111.624ZM65.5777 111.624C64.7763 111.624 64.2803 111.07 64.2803 110.17V110.164C64.2803 109.261 64.7763 108.71 65.5777 108.71C66.3792 108.71 66.8752 109.261 66.8752 110.164V110.17C66.8752 111.07 66.3792 111.624 65.5777 111.624ZM65.5777 111.222C66.1103 111.222 66.4105 110.833 66.4105 110.17V110.164C66.4105 109.499 66.1103 109.112 65.5777 109.112C65.0452 109.112 64.745 109.499 64.745 110.164V110.17C64.745 110.833 65.0452 111.222 65.5777 111.222ZM68.5225 111.624C67.8829 111.624 67.554 111.248 67.554 110.582V108.76H68.0082V110.473C68.0082 110.979 68.191 111.222 68.64 111.222C69.136 111.222 69.3997 110.919 69.3997 110.426V108.76H69.8539V111.574H69.3997V111.154H69.3579C69.2195 111.454 68.935 111.624 68.5225 111.624ZM70.7024 111.574V108.76H71.1566V109.183H71.1984C71.3394 108.885 71.603 108.71 72.0181 108.71C72.6499 108.71 73.0023 109.084 73.0023 109.752V111.574H72.5481V109.862C72.5481 109.355 72.3392 109.112 71.8902 109.112C71.4412 109.112 71.1566 109.415 71.1566 109.909V111.574H70.7024ZM74.8245 111.595C74.245 111.595 74.0022 111.381 74.0022 110.843V109.136H73.5584V108.76H74.0022V108.032H74.4721V108.76H75.0882V109.136H74.4721V110.728C74.4721 111.06 74.587 111.193 74.8794 111.193C74.9603 111.193 75.0047 111.19 75.0882 111.183V111.569C74.9994 111.585 74.9133 111.595 74.8245 111.595ZM76.6807 111.624C76.0541 111.624 75.6234 111.321 75.5712 110.856H76.0359C76.1116 111.091 76.3361 111.245 76.6963 111.245C77.0749 111.245 77.3438 111.065 77.3438 110.809V110.804C77.3438 110.614 77.2002 110.48 76.853 110.397L76.417 110.292C75.8897 110.167 75.6521 109.937 75.6521 109.533V109.53C75.6521 109.063 76.1011 108.71 76.699 108.71C77.2889 108.71 77.6988 109.005 77.7615 109.465H77.3151C77.255 109.243 77.0357 109.089 76.6963 109.089C76.3622 109.089 76.1168 109.261 76.1168 109.509V109.514C76.1168 109.705 76.2578 109.825 76.5893 109.906L77.0227 110.01C77.5526 110.138 77.8085 110.368 77.8085 110.77V110.775C77.8085 111.277 77.3203 111.624 76.6807 111.624ZM80.017 111.574V108.76H80.4713V109.178H80.5131C80.6201 108.883 80.8838 108.71 81.2649 108.71C81.3511 108.71 81.4477 108.721 81.492 108.729V109.17C81.3981 109.154 81.3119 109.144 81.2127 109.144C80.7793 109.144 80.4713 109.418 80.4713 109.83V111.574H80.017ZM83.1237 111.624C82.3196 111.624 81.834 111.06 81.834 110.178V110.175C81.834 109.306 82.33 108.71 83.095 108.71C83.8599 108.71 84.3246 109.279 84.3246 110.12V110.298H82.2987C82.3118 110.88 82.6329 111.219 83.1341 111.219C83.5153 111.219 83.7502 111.039 83.8259 110.869L83.8364 110.846H84.2906L84.2854 110.867C84.1888 111.248 83.7868 111.624 83.1237 111.624ZM83.0923 109.115C82.6746 109.115 82.3561 109.4 82.3065 109.935H83.8625C83.8155 109.379 83.5074 109.115 83.0923 109.115ZM85.8022 111.624C85.267 111.624 84.8623 111.3 84.8623 110.788V110.783C84.8623 110.282 85.233 109.992 85.8883 109.953L86.695 109.903V109.648C86.695 109.3 86.4835 109.112 86.0632 109.112C85.7264 109.112 85.5045 109.238 85.4315 109.457L85.4288 109.465H84.9746L84.9772 109.449C85.0503 109.008 85.4784 108.71 86.0789 108.71C86.7655 108.71 87.1492 109.063 87.1492 109.648V111.574H86.695V111.159H86.6532C86.4757 111.459 86.1807 111.624 85.8022 111.624ZM85.327 110.778C85.327 111.063 85.5698 111.23 85.8961 111.23C86.3582 111.23 86.695 110.927 86.695 110.525V110.269L85.9431 110.316C85.515 110.342 85.327 110.493 85.327 110.773V110.778ZM89.1307 111.624C88.3423 111.624 87.8384 111.052 87.8384 110.159V110.154C87.8384 109.279 88.3397 108.71 89.1281 108.71C89.8121 108.71 90.2219 109.105 90.3055 109.606L90.3081 109.621H89.8564L89.8538 109.614C89.7833 109.337 89.5327 109.112 89.1281 109.112C88.6216 109.112 88.3031 109.52 88.3031 110.154V110.159C88.3031 110.807 88.6268 111.222 89.1281 111.222C89.5066 111.222 89.7468 111.055 89.8512 110.741L89.8564 110.726L90.3055 110.723L90.3002 110.752C90.1854 111.261 89.8068 111.624 89.1307 111.624ZM90.9973 111.574V107.643H91.4515V109.183H91.4933C91.6343 108.885 91.8979 108.71 92.313 108.71C92.9448 108.71 93.2972 109.084 93.2972 109.752V111.574H92.843V109.862C92.843 109.355 92.6341 109.112 92.1851 109.112C91.7361 109.112 91.4515 109.415 91.4515 109.909V111.574H90.9973ZM95.2682 111.624C94.4642 111.624 93.9786 111.06 93.9786 110.178V110.175C93.9786 109.306 94.4746 108.71 95.2395 108.71C96.0044 108.71 96.4691 109.279 96.4691 110.12V110.298H94.4433C94.4563 110.88 94.7774 111.219 95.2787 111.219C95.6598 111.219 95.8948 111.039 95.9705 110.869L95.9809 110.846H96.4352L96.43 110.867C96.3334 111.248 95.9313 111.624 95.2682 111.624ZM95.2369 109.115C94.8192 109.115 94.5007 109.4 94.4511 109.935H96.007C95.9601 109.379 95.652 109.115 95.2369 109.115ZM98.213 111.624C97.5003 111.624 97.033 111.047 97.033 110.17V110.164C97.033 109.282 97.4977 108.71 98.213 108.71C98.5994 108.71 98.9362 108.904 99.0902 109.204H99.1319V107.643H99.5862V111.574H99.1319V111.125H99.0902C98.9179 111.438 98.6046 111.624 98.213 111.624ZM98.3174 111.222C98.8291 111.222 99.1424 110.82 99.1424 110.17V110.164C99.1424 109.514 98.8291 109.112 98.3174 109.112C97.8031 109.112 97.4977 109.509 97.4977 110.164V110.17C97.4977 110.825 97.8031 111.222 98.3174 111.222Z" fill="#8B8B8B"/>
<path d="M47.1317 133.138C46.2258 133.138 45.6019 132.686 45.6019 132.034V132.028C45.6019 131.538 45.9673 131.175 46.4816 131.073V131.057C46.0404 130.95 45.7402 130.632 45.7402 130.222V130.217C45.7402 129.632 46.3119 129.204 47.1317 129.204C47.9488 129.204 48.5231 129.632 48.5231 130.217V130.222C48.5231 130.632 48.2203 130.948 47.7817 131.057V131.073C48.2934 131.172 48.6615 131.538 48.6615 132.028V132.034C48.6615 132.686 48.0376 133.138 47.1317 133.138ZM47.1317 130.82C47.4919 130.82 47.7426 130.606 47.7426 130.298V130.292C47.7426 129.984 47.4893 129.773 47.1317 129.773C46.7714 129.773 46.5182 129.984 46.5182 130.292V130.298C46.5182 130.606 46.7688 130.82 47.1317 130.82ZM47.1317 132.564C47.5442 132.564 47.8365 132.321 47.8365 131.981V131.976C47.8365 131.637 47.5494 131.391 47.1317 131.391C46.714 131.391 46.4242 131.637 46.4242 131.976V131.981C46.4242 132.321 46.7166 132.564 47.1317 132.564ZM50.7761 133.138C49.925 133.138 49.3638 132.681 49.3115 132.008L49.3089 131.974H50.0634L50.066 132.002C50.0999 132.295 50.3688 132.504 50.7761 132.504C51.1781 132.504 51.4418 132.279 51.4418 131.961V131.955C51.4418 131.595 51.1729 131.397 50.7161 131.397H50.2853V130.835H50.7056C51.1024 130.835 51.3583 130.627 51.3583 130.321V130.316C51.3583 130.003 51.1416 129.809 50.7709 129.809C50.4002 129.809 50.1522 130.01 50.1208 130.324L50.1182 130.347H49.3925L49.3951 130.316C49.4499 129.642 49.9799 129.204 50.7709 129.204C51.5802 129.204 52.1023 129.611 52.1023 130.211V130.217C52.1023 130.687 51.7577 130.992 51.3165 131.083V131.099C51.8778 131.151 52.2433 131.475 52.2433 131.987V131.992C52.2433 132.676 51.6559 133.138 50.7761 133.138ZM54.4205 133.151C53.546 133.151 52.8646 132.532 52.8646 131.206V131.201C52.8646 129.94 53.4598 129.191 54.4231 129.191C55.1515 129.191 55.6945 129.621 55.8094 130.211L55.8146 130.238H55.0444L55.034 130.214C54.9452 129.979 54.7312 129.82 54.4257 129.82C53.8801 129.82 53.6425 130.355 53.6138 131.039C53.6112 131.068 53.6112 131.096 53.6112 131.125H53.6634C53.7992 130.833 54.1151 130.574 54.6346 130.574C55.3682 130.574 55.8642 131.096 55.8642 131.809V131.814C55.8642 132.585 55.269 133.151 54.4205 133.151ZM53.7287 131.825C53.7287 132.222 54.0315 132.527 54.4153 132.527C54.7964 132.527 55.1019 132.227 55.1019 131.841V131.835C55.1019 131.441 54.8147 131.154 54.4205 131.154C54.0315 131.154 53.7287 131.433 53.7287 131.822V131.825Z" fill="#202020"/>
<path d="M34.6556 139.5V136.675H36.3707V136.992H35.008V137.963H36.2591V138.276H35.008V139.5H34.6556ZM37.7746 139.537C37.1735 139.537 36.8015 139.122 36.8015 138.447V138.443C36.8015 137.765 37.1735 137.352 37.7746 137.352C38.3757 137.352 38.7477 137.765 38.7477 138.443V138.447C38.7477 139.122 38.3757 139.537 37.7746 139.537ZM37.7746 139.236C38.174 139.236 38.3992 138.944 38.3992 138.447V138.443C38.3992 137.943 38.174 137.654 37.7746 137.654C37.3752 137.654 37.15 137.943 37.15 138.443V138.447C37.15 138.944 37.3752 139.236 37.7746 139.236ZM39.2959 139.5V136.551H39.6366V139.5H39.2959ZM40.3102 139.5V136.551H40.6508V139.5H40.3102ZM42.1722 139.537C41.5711 139.537 41.1991 139.122 41.1991 138.447V138.443C41.1991 137.765 41.5711 137.352 42.1722 137.352C42.7733 137.352 43.1453 137.765 43.1453 138.443V138.447C43.1453 139.122 42.7733 139.537 42.1722 139.537ZM42.1722 139.236C42.5716 139.236 42.7968 138.944 42.7968 138.447V138.443C42.7968 137.943 42.5716 137.654 42.1722 137.654C41.7728 137.654 41.5476 137.943 41.5476 138.443V138.447C41.5476 138.944 41.7728 139.236 42.1722 139.236ZM44.0029 139.5L43.4116 137.389H43.7523L44.1673 139.077H44.1987L44.6705 137.389H44.9936L45.4655 139.077H45.4968L45.9119 137.389H46.2506L45.6593 139.5H45.3167L44.8448 137.867H44.8135L44.3436 139.5H44.0029ZM47.4841 139.537C46.8811 139.537 46.5169 139.114 46.5169 138.452V138.451C46.5169 137.799 46.8889 137.352 47.4626 137.352C48.0363 137.352 48.3848 137.779 48.3848 138.409V138.543H46.8654C46.8752 138.979 47.116 139.234 47.492 139.234C47.7778 139.234 47.954 139.099 48.0108 138.971L48.0186 138.954H48.3593L48.3554 138.969C48.283 139.255 47.9814 139.537 47.4841 139.537ZM47.4606 137.656C47.1474 137.656 46.9085 137.869 46.8713 138.27H48.0382C48.003 137.853 47.7719 137.656 47.4606 137.656ZM48.9134 139.5V137.389H49.2541V137.703H49.2854C49.3657 137.481 49.5635 137.352 49.8493 137.352C49.914 137.352 49.9864 137.36 50.0197 137.366V137.697C49.9492 137.685 49.8846 137.677 49.8102 137.677C49.4852 137.677 49.2541 137.883 49.2541 138.192V139.5H48.9134ZM51.1259 139.537C50.656 139.537 50.333 139.31 50.2938 138.962H50.6423C50.6991 139.138 50.8675 139.253 51.1377 139.253C51.4216 139.253 51.6233 139.118 51.6233 138.926V138.922C51.6233 138.779 51.5156 138.68 51.2552 138.617L50.9282 138.539C50.5327 138.445 50.3545 138.272 50.3545 137.969V137.967C50.3545 137.616 50.6913 137.352 51.1396 137.352C51.5821 137.352 51.8895 137.573 51.9365 137.918H51.6017C51.5567 137.752 51.3922 137.636 51.1377 137.636C50.8871 137.636 50.703 137.765 50.703 137.951V137.955C50.703 138.098 50.8087 138.188 51.0574 138.249L51.3824 138.327C51.7799 138.423 51.9718 138.595 51.9718 138.897V138.901C51.9718 139.277 51.6056 139.537 51.1259 139.537Z" fill="#8B8B8B"/>
<circle cx="54.8565" cy="138.5" r="1.33663" fill="#0194F4"/>
<g clip-path="url(#clip2_49_877)">
<path d="M77.802 121.634C81.2521 121.634 84.5639 122.99 87.0226 125.411C89.4813 127.831 90.8897 131.121 90.9439 134.571C90.9981 138.02 89.6937 141.353 87.3123 143.85C84.9308 146.346 81.6633 147.806 78.2148 147.914C74.7664 148.023 71.4136 146.771 68.8801 144.429C66.3466 142.087 64.8355 138.843 64.673 135.396C64.5105 131.95 65.7096 128.578 68.0114 126.008C70.3133 123.438 73.5334 121.876 76.9767 121.66L77.1748 124.808C74.5578 124.972 72.1106 126.159 70.3612 128.113C68.6117 130.066 67.7005 132.629 67.824 135.248C67.9475 137.867 69.0959 140.333 71.0214 142.112C72.9468 143.892 75.495 144.844 78.1158 144.761C80.7366 144.679 83.2199 143.569 85.0298 141.672C86.8397 139.775 87.8311 137.242 87.7899 134.62C87.7487 131.999 86.6783 129.498 84.8097 127.659C82.9411 125.819 80.4241 124.788 77.802 124.788L77.802 121.634Z" fill="#013767"/>
</g>
<path d="M101.186 129.188C102.058 129.188 102.742 129.809 102.742 131.133V131.138C102.742 132.399 102.147 133.148 101.181 133.148C100.453 133.148 99.9121 132.718 99.7946 132.128L99.7894 132.104H100.562L100.57 132.128C100.661 132.363 100.875 132.522 101.178 132.522C101.724 132.522 101.964 131.987 101.993 131.3C101.993 131.274 101.993 131.245 101.993 131.217H101.941C101.805 131.506 101.492 131.767 100.969 131.767C100.236 131.767 99.7424 131.245 99.7424 130.533V130.527C99.7424 129.757 100.338 129.188 101.186 129.188ZM101.186 131.185C101.575 131.185 101.875 130.909 101.875 130.52V130.514C101.875 130.12 101.575 129.815 101.191 129.815C100.81 129.815 100.505 130.115 100.505 130.499V130.504C100.505 130.901 100.792 131.185 101.186 131.185ZM103.447 133.054V132.524L104.661 131.326C105.191 130.812 105.334 130.621 105.334 130.358V130.35C105.334 130.029 105.115 129.804 104.755 129.804C104.387 129.804 104.133 130.05 104.133 130.407V130.42H103.405L103.403 130.41C103.403 129.687 103.966 129.191 104.791 129.191C105.567 129.191 106.11 129.635 106.11 130.285V130.292C106.11 130.721 105.888 131.076 105.201 131.71L104.504 132.36V132.42H106.165V133.054H103.447ZM108.363 133.138C107.457 133.138 106.833 132.686 106.833 132.034V132.028C106.833 131.538 107.198 131.175 107.713 131.073V131.057C107.271 130.95 106.971 130.632 106.971 130.222V130.217C106.971 129.632 107.543 129.204 108.363 129.204C109.18 129.204 109.754 129.632 109.754 130.217V130.222C109.754 130.632 109.451 130.948 109.013 131.057V131.073C109.524 131.172 109.892 131.538 109.892 132.028V132.034C109.892 132.686 109.269 133.138 108.363 133.138ZM108.363 130.82C108.723 130.82 108.974 130.606 108.974 130.298V130.292C108.974 129.984 108.72 129.773 108.363 129.773C108.002 129.773 107.749 129.984 107.749 130.292V130.298C107.749 130.606 108 130.82 108.363 130.82ZM108.363 132.564C108.775 132.564 109.068 132.321 109.068 131.981V131.976C109.068 131.637 108.78 131.391 108.363 131.391C107.945 131.391 107.655 131.637 107.655 131.976V131.981C107.655 132.321 107.948 132.564 108.363 132.564ZM110.321 134.067L110.55 132.451H111.305L110.83 134.067H110.321ZM113.918 133.054V132.363H112.072V131.744C112.55 130.895 113.062 130.06 113.563 129.287H114.67V131.731H115.161V132.363H114.67V133.054H113.918ZM112.782 131.752H113.934V129.885H113.892C113.526 130.446 113.122 131.102 112.782 131.71V131.752ZM117.275 133.151C116.469 133.151 115.936 132.671 115.892 132.042L115.889 132.005H116.604L116.61 132.023C116.664 132.3 116.923 132.522 117.278 132.522C117.683 132.522 117.965 132.237 117.965 131.833V131.827C117.965 131.425 117.68 131.146 117.281 131.146C117.09 131.146 116.928 131.201 116.803 131.308C116.732 131.365 116.67 131.436 116.628 131.517H115.952L116.127 129.287H118.481V129.914H116.74L116.646 130.987H116.693C116.845 130.734 117.137 130.577 117.497 130.577C118.199 130.577 118.706 131.094 118.706 131.812V131.817C118.706 132.611 118.121 133.151 117.275 133.151ZM120.899 133.151C120.024 133.151 119.343 132.532 119.343 131.206V131.201C119.343 129.94 119.938 129.191 120.901 129.191C121.63 129.191 122.173 129.621 122.288 130.211L122.293 130.238H121.523L121.512 130.214C121.424 129.979 121.21 129.82 120.904 129.82C120.358 129.82 120.121 130.355 120.092 131.039C120.09 131.068 120.09 131.096 120.09 131.125H120.142C120.278 130.833 120.593 130.574 121.113 130.574C121.846 130.574 122.343 131.096 122.343 131.809V131.814C122.343 132.585 121.747 133.151 120.899 133.151ZM120.207 131.825C120.207 132.222 120.51 132.527 120.894 132.527C121.275 132.527 121.58 132.227 121.58 131.841V131.835C121.58 131.441 121.293 131.154 120.899 131.154C120.51 131.154 120.207 131.433 120.207 131.822V131.825Z" fill="#202020"/>
<circle cx="100.748" cy="138.5" r="1.33663" fill="#013767"/>
<path d="M103.781 139.5V136.675H104.124L105.657 138.873H105.688V136.675H106.037V139.5H105.694L104.161 137.309H104.13V139.5H103.781ZM107.581 139.537C106.98 139.537 106.608 139.122 106.608 138.447V138.443C106.608 137.765 106.98 137.352 107.581 137.352C108.183 137.352 108.555 137.765 108.555 138.443V138.447C108.555 139.122 108.183 139.537 107.581 139.537ZM107.581 139.236C107.981 139.236 108.206 138.944 108.206 138.447V138.443C108.206 137.943 107.981 137.654 107.581 137.654C107.182 137.654 106.957 137.943 106.957 138.443V138.447C106.957 138.944 107.182 139.236 107.581 139.236ZM109.083 139.5V137.389H109.424V137.707H109.455C109.561 137.483 109.759 137.352 110.07 137.352C110.544 137.352 110.808 137.632 110.808 138.133V139.5H110.467V138.216C110.467 137.836 110.311 137.654 109.974 137.654C109.637 137.654 109.424 137.881 109.424 138.251V139.5H109.083ZM111.396 138.521V138.204H112.711V138.521H111.396ZM113.379 139.5V137.671H113.028V137.389H113.379V137.154C113.379 136.733 113.59 136.532 113.992 136.532C114.074 136.532 114.148 136.538 114.219 136.551V136.823C114.178 136.816 114.121 136.814 114.06 136.814C113.818 136.814 113.72 136.933 113.72 137.164V137.389H114.199V137.671H113.72V139.5H113.379ZM115.468 139.537C114.867 139.537 114.495 139.122 114.495 138.447V138.443C114.495 137.765 114.867 137.352 115.468 137.352C116.069 137.352 116.441 137.765 116.441 138.443V138.447C116.441 139.122 116.069 139.537 115.468 139.537ZM115.468 139.236C115.868 139.236 116.093 138.944 116.093 138.447V138.443C116.093 137.943 115.868 137.654 115.468 137.654C115.069 137.654 114.844 137.943 114.844 138.443V138.447C114.844 138.944 115.069 139.236 115.468 139.236ZM116.989 139.5V136.551H117.33V139.5H116.989ZM118.004 139.5V136.551H118.344V139.5H118.004ZM119.866 139.537C119.265 139.537 118.893 139.122 118.893 138.447V138.443C118.893 137.765 119.265 137.352 119.866 137.352C120.467 137.352 120.839 137.765 120.839 138.443V138.447C120.839 139.122 120.467 139.537 119.866 139.537ZM119.866 139.236C120.265 139.236 120.49 138.944 120.49 138.447V138.443C120.49 137.943 120.265 137.654 119.866 137.654C119.466 137.654 119.241 137.943 119.241 138.443V138.447C119.241 138.944 119.466 139.236 119.866 139.236ZM121.696 139.5L121.105 137.389H121.446L121.861 139.077H121.892L122.364 137.389H122.687L123.159 139.077H123.19L123.605 137.389H123.944L123.353 139.5H123.01L122.538 137.867H122.507L122.037 139.5H121.696ZM125.178 139.537C124.575 139.537 124.21 139.114 124.21 138.452V138.451C124.21 137.799 124.582 137.352 125.156 137.352C125.73 137.352 126.078 137.779 126.078 138.409V138.543H124.559C124.569 138.979 124.81 139.234 125.185 139.234C125.471 139.234 125.648 139.099 125.704 138.971L125.712 138.954H126.053L126.049 138.969C125.976 139.255 125.675 139.537 125.178 139.537ZM125.154 137.656C124.841 137.656 124.602 137.869 124.565 138.27H125.732C125.696 137.853 125.465 137.656 125.154 137.656ZM126.607 139.5V137.389H126.948V137.703H126.979C127.059 137.481 127.257 137.352 127.543 137.352C127.607 137.352 127.68 137.36 127.713 137.366V137.697C127.643 137.685 127.578 137.677 127.504 137.677C127.179 137.677 126.948 137.883 126.948 138.192V139.5H126.607ZM128.819 139.537C128.35 139.537 128.026 139.31 127.987 138.962H128.336C128.393 139.138 128.561 139.253 128.831 139.253C129.115 139.253 129.317 139.118 129.317 138.926V138.922C129.317 138.779 129.209 138.68 128.949 138.617L128.622 138.539C128.226 138.445 128.048 138.272 128.048 137.969V137.967C128.048 137.616 128.385 137.352 128.833 137.352C129.276 137.352 129.583 137.573 129.63 137.918H129.295C129.25 137.752 129.086 137.636 128.831 137.636C128.581 137.636 128.397 137.765 128.397 137.951V137.955C128.397 138.098 128.502 138.188 128.751 138.249L129.076 138.327C129.473 138.423 129.665 138.595 129.665 138.897V138.901C129.665 139.277 129.299 139.537 128.819 139.537Z" fill="#8B8B8B"/>
</g>
</g>
</g>
<defs>
<filter id="filter0_dd_49_877" x="-11.1386" y="-6.23762" width="177.277" height="252.277" filterUnits="userSpaceOnUse" color-interpolation-filters="sRGB">
<feFlood flood-opacity="0" result="BackgroundImageFix"/>
<feColorMatrix in="SourceAlpha" type="matrix" values="0 0 0 0 0 0 0 0 0 0 0 0 0 0 0 0 0 0 127 0" result="hardAlpha"/>
<feOffset/>
<feColorMatrix type="matrix" values="0 0 0 0 0.0823529 0 0 0 0 0.0823529 0 0 0 0 0.266667 0 0 0 0.1 0"/>
<feBlend mode="normal" in2="BackgroundImageFix" result="effect1_dropShadow_49_877"/>
<feColorMatrix in="SourceAlpha" type="matrix" values="0 0 0 0 0 0 0 0 0 0 0 0 0 0 0 0 0 0 127 0" result="hardAlpha"/>
<feOffset dy="4.90099"/>
<feGaussianBlur stdDeviation="5.56931"/>
<feColorMatrix type="matrix" values="0 0 0 0 0.0823529 0 0 0 0 0.0823529 0 0 0 0 0.266667 0 0 0 0.1 0"/>
<feBlend mode="normal" in2="effect1_dropShadow_49_877" result="effect2_dropShadow_49_877"/>
<feBlend mode="normal" in="SourceGraphic" in2="effect2_dropShadow_49_877" result="shape"/>
</filter>
<clipPath id="clip0_49_877">
<rect width="155" height="230" fill="white"/>
</clipPath>
<clipPath id="clip1_49_877">
<rect width="155" height="230" rx="5.34653" fill="white"/>
</clipPath>
<clipPath id="clip2_49_877">
<rect width="26.2871" height="26.2871" fill="white" transform="translate(64.6584 121.634)"/>
</clipPath>
</defs>
</svg>
